<svg xmlns="http://www.w3.org/2000/svg" xmlns:xlink="http://www.w3.org/1999/xlink" viewBox="0 0 860 105"><defs><style>.cls-1{fill:none;}.cls-2{fill:#f6f6f3;}.cls-3{fill:#04c386;}.cls-4{fill:url(#Nueva_muestra_de_motivo_4);}</style><pattern id="Nueva_muestra_de_motivo_4" data-name="Nueva muestra de motivo 4" width="195.57" height="195.57" patternTransform="translate(1942.23 102.09) scale(0.26)" patternUnits="userSpaceOnUse" viewBox="0 0 195.57 195.57"><rect class="cls-1" width="195.57" height="195.57"/><rect class="cls-2" width="195.57" height="195.57"/></pattern></defs><g id="Capa_2" data-name="Capa 2"><g id="BOTONES"><rect class="cls-3" width="860" height="105" rx="52.5"/><path class="cls-2" d="M308.66,47.56H319a4.56,4.56,0,0,0,3-.87,3.33,3.33,0,0,0,0-4.89,4.61,4.61,0,0,0-3-.85H307.55l3.54-3.76V63.6h-7.87V35.1h16.91a13,13,0,0,1,5.7,1.16,9.2,9.2,0,0,1,3.8,3.19,9,9,0,0,1,0,9.56,9.12,9.12,0,0,1-3.8,3.19,13.3,13.3,0,0,1-5.7,1.14H308.66Zm4.25,2.7h8.85L332,63.6h-9.12Z"/><path class="cls-2" d="M345.32,49.35l-1.86,11.43-3.19-3.57h21.81V63.6H335.6l2.16-14.25L335.6,35.1h26.29v6.38H340.27l3.19-3.57Zm15.51-2.85v5.7H340V46.5Z"/><path class="cls-2" d="M398.79,51.67a13.06,13.06,0,0,1-2.58,6.59,14.34,14.34,0,0,1-5.68,4.39,19.78,19.78,0,0,1-8.08,1.55,19.22,19.22,0,0,1-8.7-1.86,14,14,0,0,1-5.8-5.2,14.51,14.51,0,0,1-2.07-7.79A14.48,14.48,0,0,1,368,41.56a14,14,0,0,1,5.8-5.21,19.22,19.22,0,0,1,8.7-1.86,19.78,19.78,0,0,1,8.08,1.56,14.34,14.34,0,0,1,5.68,4.39A13,13,0,0,1,398.79,47h-7.9a6.76,6.76,0,0,0-1.49-3.1,7,7,0,0,0-2.86-2,11.2,11.2,0,0,0-4.09-.69,10.13,10.13,0,0,0-4.6,1,6.85,6.85,0,0,0-3,2.77,9.55,9.55,0,0,0,0,8.63,6.79,6.79,0,0,0,3,2.77,10.13,10.13,0,0,0,4.6,1,11.91,11.91,0,0,0,4.09-.64,6.71,6.71,0,0,0,2.86-1.94,6.89,6.89,0,0,0,1.49-3.15Z"/><path class="cls-2" d="M411.44,35.1v25l-3.53-3.49h21.32v7H403.58V35.1Z"/><path class="cls-2" d="M454.27,35.1l13,28.5h-8.4L448,38.44h2.28L439.34,63.6h-8.4l13-28.5Zm-15.16,23V51.78h19.64v6.34Z"/><path class="cls-2" d="M512.52,35.1V63.6H505V37.91l1.67.19-11,25.5h-8L476.65,38.18l1.71-.19V63.6h-7.48V35.1H483l10.22,24.47h-3L500.36,35.1Z"/><path class="cls-2" d="M534.45,64.2a20,20,0,0,1-8.87-1.86,14.08,14.08,0,0,1-5.93-5.2,14.27,14.27,0,0,1-2.11-7.79,14.25,14.25,0,0,1,2.11-7.79,14.1,14.1,0,0,1,5.93-5.21,22.13,22.13,0,0,1,17.76,0,14.34,14.34,0,0,1,5.93,5.21,14.17,14.17,0,0,1,2.13,7.79,13.86,13.86,0,0,1-8.06,13A20,20,0,0,1,534.45,64.2Zm0-7a11.21,11.21,0,0,0,4.79-1,7.17,7.17,0,0,0,3.09-2.7,8.56,8.56,0,0,0,0-8.36,7,7,0,0,0-3.09-2.7,11.21,11.21,0,0,0-4.79-.95,11.09,11.09,0,0,0-4.75.95,7.23,7.23,0,0,0-3.12,2.7,8.49,8.49,0,0,0,0,8.36,7.37,7.37,0,0,0,3.12,2.7A11.09,11.09,0,0,0,534.45,57.18Z"/><path class="cls-2" d="M555.12,54.25h8a3.58,3.58,0,0,0,1.1,2,6.19,6.19,0,0,0,2.45,1.35,12.3,12.3,0,0,0,3.63.47,11.34,11.34,0,0,0,4.56-.74,2.35,2.35,0,0,0,1.67-2.18,1.9,1.9,0,0,0-.95-1.71,9.09,9.09,0,0,0-3.64-.88l-5.33-.49c-3.92-.35-6.77-1.25-8.55-2.68a7.06,7.06,0,0,1-2.66-5.79,7.54,7.54,0,0,1,1.73-5,10.6,10.6,0,0,1,4.87-3.1,23.35,23.35,0,0,1,7.31-1,21.38,21.38,0,0,1,7.3,1.16,12.05,12.05,0,0,1,5.07,3.29,7.83,7.83,0,0,1,2,4.93h-8a2.9,2.9,0,0,0-1-1.76A5.39,5.39,0,0,0,572.56,41a12.28,12.28,0,0,0-3.38-.4,10.44,10.44,0,0,0-4.22.7,2.24,2.24,0,0,0-1.56,2.07,1.84,1.84,0,0,0,.94,1.6,8,8,0,0,0,3.36.84l5.66.57a25.14,25.14,0,0,1,6.5,1.31,6.46,6.46,0,0,1,4.64,6.63,8.08,8.08,0,0,1-1.79,5.22,11.5,11.5,0,0,1-5,3.46,21.06,21.06,0,0,1-7.52,1.23A22.55,22.55,0,0,1,562.4,63a12.18,12.18,0,0,1-5.27-3.5A8.43,8.43,0,0,1,555.12,54.25Z"/><path class="cls-4" d="M63.92,38.57a16.19,16.19,0,0,0-13.33-2.91,16.4,16.4,0,0,0-11.7,9.05,16.16,16.16,0,0,0-1.54,10.11,16.91,16.91,0,0,0,2.23,6.07,2.31,2.31,0,0,1,.23,2.1c-.19.55-.37,1.11-.54,1.67l-1.05,3.27.85-.27c1.19-.37,2.31-.71,3.41-1.13a3.72,3.72,0,0,1,1.34-.27,4.06,4.06,0,0,1,2,.6,16.15,16.15,0,0,0,11.6,1.78,16.89,16.89,0,0,0,13-19.93A16.32,16.32,0,0,0,63.92,38.57ZM47.67,53.83a2.33,2.33,0,0,1-1.66.69h0a2.38,2.38,0,0,1-2.35-2.37,2.42,2.42,0,0,1,.71-1.68A2.36,2.36,0,0,1,46,49.79h0a2.37,2.37,0,0,1,2.34,2.36A2.34,2.34,0,0,1,47.67,53.83Zm6.34.69h0a2.37,2.37,0,0,1-1.66-.69,2.34,2.34,0,0,1-.71-1.68A2.37,2.37,0,0,1,54,49.79h0a2.33,2.33,0,0,1,1.66.69,2.31,2.31,0,0,1,.7,1.67A2.38,2.38,0,0,1,54,54.52Zm8,0h0a2.39,2.39,0,0,1-2.36-2.38A2.37,2.37,0,1,1,62,54.52Z"/><path class="cls-4" d="M54,12.5a40,40,0,1,0,40,40A40,40,0,0,0,54,12.5ZM74.68,54.24a19.91,19.91,0,0,1-3.33,9.34,20.4,20.4,0,0,1-16.71,9.34c-.3,0-.6,0-.89,0A20.07,20.07,0,0,1,44,70.38a.46.46,0,0,0-.44,0L39.34,71.7l-3.4,1.1a2,2,0,0,1-2.12-.41,2.66,2.66,0,0,1-.43-.64c0-.09-.09-.18-.14-.26l-.06-.09v-.89l.1-.11.65-2q.91-2.88,1.85-5.76a.5.5,0,0,0,0-.48,20,20,0,0,1-2.26-6.56c-.08-.49-.14-1-.21-1.47l-.08-.62V51l0-.2a.9.9,0,0,0,0-.16,19.85,19.85,0,0,1,2.37-8.21,20.59,20.59,0,0,1,14.73-10.7c.54-.1,1.09-.16,1.64-.23l.74-.09h2.44l.2,0a.58.58,0,0,0,.14,0,20.52,20.52,0,0,1,5.23,1.06A20.8,20.8,0,0,1,74.68,54.24Z"/></g></g></svg>