<svg width="333" height="49" viewBox="0 0 333 49" fill="none" xmlns="http://www.w3.org/2000/svg">
<path d="M312.483 0.470306H21.0174C9.82404 0.470306 0.75 11.2155 0.75 24.4703C0.75 37.7251 9.82404 48.4703 21.0174 48.4703H312.483C323.676 48.4703 332.75 37.7251 332.75 24.4703C332.75 11.2155 323.676 0.470306 312.483 0.470306Z" fill="#04C386"/>
<path d="M25.4262 18.1023C24.7018 17.4505 23.8661 16.9937 22.9773 16.7639C22.0884 16.5342 21.168 16.5369 20.2802 16.7721C19.3062 16.9945 18.3901 17.4848 17.6055 18.2034C16.821 18.922 16.19 19.8488 15.7634 20.9092C15.148 22.3329 14.9393 23.9547 15.1689 25.5309C15.3024 26.5128 15.5947 27.455 16.0298 28.3058C16.108 28.4459 16.1568 28.6061 16.1723 28.773C16.1877 28.94 16.1693 29.1089 16.1186 29.2658C16.0452 29.5172 15.9757 29.7732 15.9101 30.0292L15.5048 31.5241L15.8329 31.4006C16.2923 31.2315 16.7247 31.076 17.1493 30.884C17.3138 30.8054 17.4892 30.7636 17.6666 30.7606C17.9398 30.7708 18.2059 30.8653 18.4387 31.0349C19.7924 31.9615 21.3908 32.2519 22.9168 31.8486C24.5993 31.4214 26.071 30.224 27.011 28.5174C27.9511 26.8108 28.2834 24.7333 27.9355 22.7378C27.6287 20.8703 26.7311 19.2121 25.4262 18.1023ZM19.1529 25.0783C19.069 25.1785 18.9692 25.258 18.8592 25.3122C18.7492 25.3663 18.6312 25.3941 18.5121 25.3938C18.2711 25.3902 18.0409 25.2746 17.8712 25.0719C17.7015 24.8693 17.6058 24.5957 17.6048 24.3103C17.6081 24.0218 17.7065 23.7462 17.8789 23.5423C18.0468 23.3462 18.2724 23.2347 18.5082 23.2315C18.7482 23.2351 18.9773 23.3502 19.1463 23.552C19.3153 23.7538 19.4106 24.0261 19.4115 24.3103C19.4136 24.4523 19.3918 24.5933 19.3474 24.7251C19.303 24.857 19.2369 24.977 19.1529 25.0783ZM21.6004 25.3938C21.3601 25.3924 21.1299 25.2791 20.9596 25.0783C20.8728 24.9786 20.8038 24.8592 20.7568 24.7273C20.7097 24.5953 20.6854 24.4536 20.6855 24.3103C20.6865 24.0246 20.7828 23.7509 20.9535 23.5488C21.1241 23.3467 21.3553 23.2327 21.5966 23.2315C21.7157 23.2312 21.8337 23.2589 21.9437 23.3131C22.0537 23.3672 22.1536 23.4467 22.2374 23.5469C22.3236 23.646 22.3919 23.7648 22.4383 23.896C22.4848 24.0271 22.5083 24.1681 22.5076 24.3103C22.5066 24.5965 22.4104 24.8707 22.2399 25.0735C22.0694 25.2763 21.8382 25.3914 21.5966 25.3938H21.6004ZM24.6888 25.3938C24.4468 25.3902 24.2156 25.2741 24.0452 25.0706C23.8748 24.8671 23.7787 24.5924 23.7777 24.3058C23.7785 24.0913 23.833 23.8819 23.9344 23.7042C24.0357 23.5264 24.1793 23.3883 24.347 23.3072C24.5147 23.2262 24.6989 23.2059 24.8764 23.249C25.0538 23.2921 25.2164 23.3965 25.3437 23.5491C25.471 23.7018 25.5571 23.8957 25.5912 24.1063C25.6253 24.3169 25.6059 24.5348 25.5353 24.7324C25.4648 24.9299 25.3463 25.0982 25.1949 25.2159C25.0435 25.3337 24.8661 25.3956 24.6849 25.3938H24.6888Z" fill="#F2FAF7"/>
<path d="M21.5962 6.1846C18.5421 6.1846 15.5565 7.25704 13.0171 9.2663C10.4777 11.2756 8.4985 14.1314 7.32975 17.4727C6.16099 20.814 5.85519 24.4906 6.45101 28.0377C7.04684 31.5848 8.51754 34.843 10.6771 37.4003C12.8367 39.9576 15.5882 41.6991 18.5836 42.4047C21.579 43.1102 24.6839 42.7481 27.5055 41.3641C30.3271 39.9801 32.7388 37.6364 34.4356 34.6293C36.1324 31.6222 37.038 28.0869 37.038 24.4703C37.038 19.6206 35.4111 14.9696 32.5152 11.5404C29.6193 8.11113 25.6916 6.1846 21.5962 6.1846ZM29.5796 25.2657C29.462 26.7946 29.0198 28.2634 28.2941 29.5355C27.5958 30.8177 26.6425 31.8775 25.5179 32.622C24.3932 33.3664 23.1314 33.7727 21.8432 33.8052C21.7274 33.8052 21.6116 33.8052 21.4997 33.8052C20.182 33.8034 18.8866 33.4038 17.7357 32.644C17.7096 32.6272 17.6804 32.6184 17.6508 32.6184C17.6211 32.6184 17.5919 32.6272 17.5658 32.644L15.9367 33.2475L14.6242 33.7503C14.4869 33.8151 14.3368 33.8318 14.1918 33.7986C14.0467 33.7654 13.9127 33.6836 13.8057 33.5629C13.7387 33.4754 13.6828 33.3769 13.6397 33.2703C13.6397 33.2292 13.605 33.188 13.5857 33.1515L13.5625 33.1103V32.7035L13.6011 32.6532L13.8521 31.7389C14.0863 30.8612 14.3243 29.9835 14.5663 29.1057C14.5818 29.0721 14.5899 29.0344 14.5899 28.996C14.5899 28.9577 14.5818 28.92 14.5663 28.8863C14.1301 27.9545 13.8348 26.9396 13.6938 25.8875C13.6629 25.6635 13.6397 25.4303 13.6127 25.2155L13.5818 24.932V23.7846V23.6932C13.5837 23.6688 13.5837 23.6444 13.5818 23.62C13.6531 22.3052 13.9653 21.0244 14.4968 19.8669C15.0645 18.5899 15.8726 17.4846 16.8586 16.6365C17.8447 15.7883 18.9822 15.22 20.1832 14.9755C20.3917 14.9297 20.604 14.9023 20.8164 14.8703L21.102 14.8292H22.044H22.1212C22.1391 14.8318 22.1573 14.8318 22.1752 14.8292C22.8632 14.8859 23.5419 15.0488 24.1943 15.3137C25.9086 16.0096 27.3737 17.3716 28.3514 19.1785C29.3292 20.9853 29.762 23.1307 29.5796 25.2657Z" fill="white"/>
</svg>
