<svg width="107" height="32" viewBox="0 0 107 32" fill="none" xmlns="http://www.w3.org/2000/svg">
<path d="M25.98 27.1045C25.98 19.4167 33.953 11.3931 33.953 6.02061C33.953 3.83804 32.5853 2.60425 30.7751 2.60425C26.3742 2.61205 20.505 9.21052 15.8065 14.4463C18.0592 9.92112 19.966 5.93471 19.966 3.36951C19.966 1.47196 18.8396 0 16.8846 0C10.4281 0 0.5 6.88348 0.5 11.2018C0.5 12.01 0.841932 12.58 1.70682 12.58C2.57171 12.58 2.99409 11.8187 2.99409 10.5849C2.99409 8.02357 10.8706 2.18257 16.0036 2.18257C16.8846 2.18257 17.5202 2.57301 17.5202 3.60768C17.5202 5.22411 16.0519 9.11291 13.8997 13.7201C12.1901 17.2809 10.1546 21.4743 8.81498 23.5944C8.32421 24.3987 8.07882 24.9687 8.07882 25.3982C8.08542 25.5443 8.12214 25.6876 8.1868 25.8196C8.25146 25.9517 8.34275 26.0698 8.45527 26.167C8.56779 26.2642 8.69925 26.3385 8.84188 26.3855C8.98451 26.4325 9.13541 26.4513 9.28564 26.4407C10.0218 26.4407 10.2149 25.7301 10.8022 24.6837C11.293 23.6881 13.1515 19.8891 15.7421 16.7578C21.0924 10.4443 26.861 4.6853 30.2682 4.6853C30.6217 4.68979 30.9601 4.82464 31.2149 5.06248C31.4696 5.30032 31.6216 5.62333 31.64 5.96595C31.64 11.3306 23.9123 18.4991 23.9123 26.8038C23.9123 29.8922 25.2317 31.0987 26.4547 31.0987C26.617 31.1138 26.7808 31.0939 26.9343 31.0403C27.0878 30.9868 27.2272 30.901 27.3425 30.7891C27.4578 30.6772 27.5462 30.5419 27.6014 30.3929C27.6565 30.2439 27.677 30.0849 27.6615 29.9273C27.6937 29.0059 25.98 28.8146 25.98 27.1045Z" fill="#04C386"/>
<path d="M63.4477 14.2902C61.6374 14.2902 58.729 15.9027 57.848 17.8822C57.6992 18.0384 57.5463 18.218 57.3814 18.4171C55.6235 20.6973 52.1518 24.4963 47.8435 24.4963C47.649 24.5029 47.4553 24.4705 47.2743 24.4011C47.0933 24.3318 46.929 24.227 46.7916 24.0933C46.6542 23.9595 46.5467 23.7998 46.4757 23.6239C46.4048 23.4481 46.3719 23.2599 46.3792 23.0712C46.3792 22.5949 46.4275 22.2903 47.3085 22.1224C50.3376 21.4587 54.5936 18.7022 54.5936 16.2658C54.5936 15.3639 53.5196 14.6064 52.5823 14.6064C50.4824 14.6064 47.8354 15.8871 45.8522 18.9794C44.0179 21.1815 41.3347 23.8638 40.2566 23.8638C39.8544 23.8638 39.621 23.4733 39.621 22.7706C39.6917 21.7654 39.9056 20.7747 40.2566 19.8266C40.6161 18.7718 41.1441 17.7783 41.8215 16.8827C42.0937 16.5636 42.2938 16.1924 42.4088 15.7934C42.4088 15.3639 42.2117 14.8914 41.379 14.8914C41.0853 14.8914 40.5986 15.2819 40.1721 15.8402C39.4883 16.6953 38.5631 18.4991 37.8269 19.6861C36.3506 21.8842 33.1243 24.2074 32.2433 24.2074C31.7526 24.2074 31.656 23.9224 31.656 23.5397C31.656 22.1693 34.6932 18.7998 34.6932 16.0081C34.6932 15.2038 34.5926 14.54 33.6634 14.54C32.7341 14.54 32.4565 15.3444 32.4565 16.4376C32.4364 19.1316 29.4636 21.6929 29.4636 24.0668C29.4492 24.3302 29.4927 24.5936 29.5913 24.8394C29.6898 25.0853 29.8412 25.3079 30.0352 25.4926C30.2293 25.6772 30.4617 25.8197 30.7168 25.9105C30.972 26.0012 31.2442 26.0382 31.5152 26.019C33.5708 26.019 36.2138 23.6451 37.9516 21.935C37.9516 22.2669 37.8551 22.6964 37.8551 23.2157C37.8551 24.3557 38.197 25.6871 39.9107 25.6871C41.0813 25.6871 42.5979 24.5861 44.1144 23.1532C44.1144 24.672 45.5344 26.1908 47.051 26.1908C51.8783 26.1908 55.6114 22.8252 58.025 20.178C58.9663 21.2127 61.0381 21.486 61.0381 22.9111C61.05 23.137 61.0146 23.3629 60.934 23.5752C60.8534 23.7874 60.7292 23.9816 60.5689 24.1459C60.4087 24.3101 60.2158 24.4411 60.0018 24.5309C59.7879 24.6207 59.5574 24.6673 59.3244 24.6681C58.3991 24.6681 57.9566 24.1957 57.9566 23.3874C57.9476 23.2844 57.9175 23.1841 57.8682 23.0924C57.8188 23.0007 57.7512 22.9195 57.6692 22.8534C57.5873 22.7872 57.4926 22.7376 57.3907 22.7073C57.2888 22.677 57.1817 22.6666 57.0757 22.6768C56.774 22.696 56.4922 22.8296 56.2912 23.0487C56.0902 23.2679 55.9862 23.5551 56.0016 23.8482C56.0016 24.9844 57.321 26.1908 59.0347 26.1908C61.8708 26.1908 63.2868 24.4846 63.2868 22.915C63.2868 19.8774 59.7669 20.0687 59.7669 18.7412C59.7669 17.4137 62.0638 16.0823 62.7517 16.0823C62.9296 16.0832 63.1012 16.146 63.2355 16.2591C63.3698 16.3723 63.4579 16.5284 63.4839 16.6992C63.4839 16.8866 62.7517 17.0311 62.7517 17.8354C62.7517 18.3586 63.2385 18.6436 63.7775 18.6436C64.7551 18.6436 65.3866 16.9842 65.3866 15.9847C65.3866 14.9851 64.2763 14.2902 63.4477 14.2902ZM51.9909 16.4727C52.3932 16.4727 52.5783 16.5664 52.5783 16.9491C52.5783 17.9447 48.7124 20.6036 47.0027 20.6505C47.7469 19.5221 50.4864 16.4727 51.9909 16.4727Z" fill="#04C386"/>
<path d="M72.0081 12.6737C73.3758 12.2013 74.6952 11.8187 75.7733 11.8187C76.5055 11.8187 77.1411 11.9163 77.1411 12.295C77.1411 12.5332 77.0445 12.7206 77.0445 13.0056C77.0445 13.2906 77.1411 13.4351 77.5836 13.4351C78.2191 13.4351 79.0961 12.4395 79.0961 11.5844C79.0961 10.6317 78.2192 10.0656 76.5055 10.0656C75.4423 10.0955 74.3888 10.2703 73.3758 10.5849C75.0372 7.87911 75.2826 7.21536 76.1153 6.55161C77.0445 5.84101 77.1411 5.45838 77.1411 4.88833C77.1411 4.31829 76.7388 4.03326 76.1153 4.03326C75.4917 4.03326 74.9406 4.5096 74.1039 5.64969C72.9333 7.21146 72.004 8.9255 70.584 11.3931C70.0852 11.4999 69.5778 11.5639 69.0674 11.5844C68.4801 11.5844 68.3353 11.2525 67.5991 11.2525C67.4353 11.244 67.2714 11.268 67.1175 11.3231C66.9636 11.3781 66.8228 11.4631 66.7039 11.5727C66.5849 11.6823 66.4902 11.8143 66.4256 11.9607C66.3609 12.107 66.3277 12.2646 66.328 12.4239C66.328 13.0876 66.9153 13.4195 68.3836 13.4195C68.7262 13.4273 69.069 13.4116 69.4094 13.3726C67.0641 17.8822 64.7148 23.0556 64.7148 25.8082C64.7148 26.9795 65.2056 27.7057 65.9217 27.7057C66.1861 27.708 66.4411 27.6102 66.6326 27.4331C66.8241 27.256 66.937 27.0135 66.9475 26.757C66.9475 26.3314 66.6538 26.0932 66.6538 25.4763C66.6739 23.0361 69.3651 17.2809 72.0081 12.6737Z" fill="#04C386"/>
<path d="M82.1294 15.9027C82.1383 15.6779 82.0985 15.4538 82.0125 15.2449C81.9265 15.0361 81.7962 14.8471 81.63 14.6902C81.4639 14.5334 81.2656 14.4122 81.0481 14.3345C80.8306 14.2569 80.5987 14.2245 80.3674 14.2394C79.1606 14.2394 77.7285 15.2858 75.9183 17.1365C75.6729 17.3747 75.516 17.5269 75.331 17.5269C75.2344 17.5269 75.2344 17.4801 75.2344 17.3864C75.2344 16.9608 75.9183 15.7231 75.9183 15.157C75.8836 14.9469 75.7687 14.7572 75.5966 14.6256C75.4244 14.4939 75.2075 14.4299 74.989 14.4464C74.3052 14.4464 73.9632 15.0164 73.6213 16.1565C73.1254 17.7008 72.5371 19.2157 71.8593 20.6934C71.1272 22.4504 70.3428 24.4924 70.3428 25.0117C70.3864 25.2865 70.5192 25.5406 70.7217 25.7371C70.9243 25.9337 71.1861 26.0625 71.4691 26.1049C71.9076 26.1049 72.7886 23.3523 73.915 21.6422C75.4798 19.2683 78.706 16.2307 79.3899 16.2307C79.6836 16.2307 79.8324 16.3751 79.8324 16.5625C79.8324 16.75 79.4905 17.3708 79.4905 17.8432C79.4995 18.0792 79.6004 18.3032 79.7729 18.4698C79.9453 18.6365 80.1765 18.7335 80.4197 18.7412C81.6426 18.7412 82.1294 17.3747 82.1294 15.9027Z" fill="#04C386"/>
<path d="M104.689 14.2902C102.866 14.2902 99.9337 15.9222 99.0568 17.9213C98.928 18.0696 98.7953 18.2336 98.6545 18.4171C96.8443 20.6973 93.9077 23.7349 92.1497 23.7349C91.7072 23.7349 91.5101 23.2118 91.5101 22.5949C91.5787 21.6379 91.8806 20.7105 92.3911 19.8891C93.4209 17.9915 94.6921 16.3751 94.6921 15.7621C94.6921 15.1491 94.2295 14.7626 93.4249 14.7626C92.6204 14.7626 92.3468 15.7621 91.9566 15.7621C91.7595 15.7621 90.8785 14.6689 89.9453 14.6689C85.9225 14.7157 80.6045 19.4167 80.6045 24.2581C80.6045 25.3982 81.582 26.1088 82.0728 26.1088C83.1992 26.1088 84.7157 25.1601 87.0127 23.2118C88.0868 22.263 88.8712 21.3611 89.1649 21.3611C89.2614 21.3611 89.2614 21.5055 89.2614 21.7905C89.2614 22.2161 89.1649 22.8799 89.1649 23.4031C89.1474 23.7003 89.1948 23.9977 89.304 24.2759C89.4133 24.5541 89.5818 24.8067 89.7987 25.0173C90.0156 25.2278 90.2759 25.3914 90.5625 25.4974C90.8491 25.6035 91.1556 25.6495 91.4618 25.6325C93.6422 25.6325 96.9086 22.7315 99.2539 20.1663C100.195 21.2049 102.271 21.4743 102.271 22.8994C102.283 23.125 102.248 23.3506 102.167 23.5626C102.087 23.7745 101.963 23.9685 101.803 24.1327C101.643 24.297 101.451 24.428 101.237 24.518C101.024 24.608 100.794 24.6551 100.561 24.6564C99.632 24.6564 99.1895 24.1839 99.1895 23.3757C99.1804 23.2727 99.1504 23.1724 99.101 23.0807C99.0517 22.989 98.9841 22.9078 98.9021 22.8416C98.8201 22.7755 98.7255 22.7259 98.6236 22.6956C98.5217 22.6653 98.4146 22.6549 98.3085 22.6651C98.0072 22.6852 97.726 22.8191 97.5252 23.0381C97.3245 23.257 97.2201 23.5437 97.2345 23.8365C97.2345 24.9726 98.5539 26.1791 100.268 26.1791C103.104 26.1791 104.524 24.4729 104.524 22.9033C104.524 19.8657 101 20.057 101 18.7295C101 17.402 103.301 16.0706 103.985 16.0706C104.162 16.0715 104.334 16.1343 104.468 16.2474C104.603 16.3606 104.691 16.5167 104.717 16.6875C104.717 16.8749 103.985 17.0193 103.985 17.8237C103.985 18.3468 104.471 18.6319 105.01 18.6319C105.988 18.6319 106.619 16.9725 106.619 15.973C106.619 14.9734 105.493 14.2902 104.689 14.2902ZM83.4486 23.8169C83.3707 23.8197 83.293 23.8068 83.2205 23.7791C83.148 23.7514 83.0821 23.7095 83.027 23.656C82.9719 23.6026 82.9287 23.5386 82.9002 23.4682C82.8717 23.3978 82.8584 23.3225 82.8612 23.2469C82.8612 20.9042 87.1656 16.4571 89.2695 16.4571C89.3463 16.4552 89.4226 16.4696 89.493 16.4993C89.5635 16.529 89.6264 16.5733 89.6774 16.6291C89.7284 16.6849 89.7662 16.7508 89.7881 16.8223C89.8101 16.8937 89.8156 16.969 89.8045 17.0428C89.8045 17.566 90.6372 17.4332 90.6372 17.6597C90.6412 18.4679 84.2813 23.8169 83.4486 23.8169Z" fill="#04C386"/>
</svg>
