<svg width="333" height="49" viewBox="0 0 333 49" fill="none" xmlns="http://www.w3.org/2000/svg">
<path d="M312.202 0.470306H20.298C9.08771 0.470306 0 11.2155 0 24.4703C0 37.7251 9.08771 48.4703 20.298 48.4703H312.202C323.412 48.4703 332.5 37.7251 332.5 24.4703C332.5 11.2155 323.412 0.470306 312.202 0.470306Z" fill="#04C386"/>
<path d="M24.6945 15.3593C24.6945 14.4679 24.6945 13.5993 24.6945 12.7353C24.6945 12.3559 24.621 12.2782 24.3079 12.4108L17.3988 15.0988L16.8691 15.309V15.341L24.6945 15.3593Z" fill="white"/>
<path d="M26.7001 16.7628H15.051C14.7185 16.7628 14.6914 16.7902 14.6914 17.1834V32.9548C14.6914 33.3114 14.7262 33.3525 15.0316 33.3525H26.7039C27.0248 33.3525 27.0519 33.3205 27.0519 32.9411V17.1696C27.0635 16.7948 27.0248 16.7628 26.7001 16.7628ZM17.2045 19.8851H19.9689C20.053 19.8688 20.1391 19.8743 20.2212 19.9013C20.3033 19.9282 20.3794 19.976 20.4444 20.0412C20.5093 20.1064 20.5615 20.1876 20.5973 20.279C20.633 20.3705 20.6516 20.47 20.6516 20.5708C20.6516 20.6715 20.633 20.7711 20.5973 20.8625C20.5615 20.954 20.5093 21.0351 20.4444 21.1004C20.3794 21.1656 20.3033 21.2133 20.2212 21.2403C20.1391 21.2673 20.053 21.2728 19.9689 21.2565C19.5127 21.2565 19.0564 21.2565 18.5963 21.2565C18.1363 21.2565 17.6684 21.2565 17.2045 21.2565C17.1204 21.2728 17.0343 21.2673 16.9522 21.2403C16.8701 21.2133 16.7939 21.1656 16.729 21.1004C16.6641 21.0351 16.6119 20.954 16.5761 20.8625C16.5403 20.7711 16.5218 20.6715 16.5218 20.5708C16.5218 20.47 16.5403 20.3705 16.5761 20.279C16.6119 20.1876 16.6641 20.1064 16.729 20.0412C16.7939 19.976 16.8701 19.9282 16.9522 19.9013C17.0343 19.8743 17.1204 19.8688 17.2045 19.8851ZM24.8172 30.8565C24.7466 30.8681 24.6751 30.8681 24.6045 30.8565H17.1388C17.0573 30.8643 16.9754 30.8521 16.8981 30.8206C16.8209 30.7891 16.75 30.739 16.6899 30.6735C16.6299 30.608 16.5819 30.5285 16.5492 30.44C16.5164 30.3515 16.4994 30.256 16.4994 30.1594C16.4994 30.0627 16.5164 29.9672 16.5492 29.8787C16.5819 29.7902 16.6299 29.7107 16.6899 29.6452C16.75 29.5797 16.8209 29.5296 16.8981 29.4981C16.9754 29.4666 17.0573 29.4544 17.1388 29.4622H24.6548C24.7935 29.459 24.9284 29.515 25.035 29.62C25.1415 29.7249 25.2124 29.8718 25.2347 30.0336C25.2701 30.2087 25.2463 30.3932 25.1683 30.5477C25.0903 30.7023 24.9643 30.8147 24.8172 30.8611V30.8565ZM16.582 27.3959C16.5813 27.3009 16.5972 27.2068 16.6287 27.1193C16.6602 27.0319 16.7066 26.9531 16.765 26.8879C16.8235 26.8227 16.8926 26.7724 16.9683 26.7403C17.0439 26.7081 17.1243 26.6948 17.2045 26.7011H19.9689C20.0547 26.6807 20.1433 26.6831 20.2283 26.7081C20.3133 26.7331 20.3925 26.7801 20.4603 26.8457C20.528 26.9113 20.5826 26.9938 20.6201 27.0874C20.6575 27.181 20.677 27.2832 20.677 27.3868C20.677 27.4903 20.6575 27.5926 20.6201 27.6861C20.5826 27.7797 20.528 27.8623 20.4603 27.9279C20.3925 27.9935 20.3133 28.0405 20.2283 28.0655C20.1433 28.0905 20.0547 28.0929 19.9689 28.0725H17.2006C17.1224 28.0781 17.044 28.0649 16.9701 28.0339C16.8962 28.0028 16.8284 27.9545 16.7707 27.8918C16.7129 27.8291 16.6665 27.7532 16.6341 27.6688C16.6017 27.5844 16.584 27.4932 16.582 27.4005V27.3959ZM24.8172 24.0314C24.7477 24.0521 24.6762 24.0613 24.6045 24.0588H17.1388C17.0529 24.0792 16.9643 24.0768 16.8793 24.0518C16.7943 24.0268 16.7151 23.9798 16.6474 23.9142C16.5796 23.8486 16.5251 23.766 16.4876 23.6724C16.4501 23.5789 16.4307 23.4766 16.4307 23.3731C16.4307 23.2695 16.4501 23.1673 16.4876 23.0737C16.5251 22.9801 16.5796 22.8976 16.6474 22.832C16.7151 22.7664 16.7943 22.7194 16.8793 22.6944C16.9643 22.6693 17.0529 22.667 17.1388 22.6874H24.6548C24.8019 22.6778 24.9467 22.7339 25.0604 22.8445C25.1742 22.9552 25.2487 23.1123 25.2691 23.2848C25.2895 23.4573 25.2544 23.6326 25.1707 23.7759C25.087 23.9193 24.9609 24.0202 24.8172 24.0588V24.0314Z" fill="white"/>
<path d="M20.8782 5.56284C17.8195 5.56284 14.8295 6.63527 12.2863 8.64453C9.74303 10.6538 7.76082 13.5096 6.5903 16.8509C5.41979 20.1922 5.11353 23.8688 5.71025 27.4159C6.30698 30.963 7.77989 34.2212 9.94272 36.7785C12.1056 39.3358 14.8612 41.0774 17.8611 41.7829C20.8611 42.4885 23.9706 42.1263 26.7965 40.7423C29.6223 39.3583 32.0377 37.0146 33.737 34.0075C35.4363 31.0005 36.3433 27.4651 36.3433 23.8485C36.3433 21.4472 35.9433 19.0694 35.1661 16.8509C34.3889 14.6324 33.2498 12.6166 31.8137 10.9186C30.3776 9.22061 28.6728 7.8737 26.7965 6.95475C24.9201 6.03581 22.9091 5.56284 20.8782 5.56284ZM27.1223 34.756H14.6226L14.3713 34.6417C14.1049 34.515 13.8781 34.2942 13.7217 34.0095C13.5654 33.7248 13.4871 33.3901 13.4975 33.0508C13.4975 32.3697 13.4975 31.6794 13.4975 31.0074V16.5525C13.458 16.1387 13.5502 15.7223 13.756 15.3844C13.9618 15.0464 14.2665 14.811 14.611 14.724L23.9867 11.0668C24.1675 10.9791 24.3621 10.9381 24.5575 10.9465C24.7528 10.9549 24.9443 11.0126 25.1193 11.1156C25.2943 11.2186 25.4486 11.3646 25.572 11.5438C25.6954 11.723 25.785 11.9314 25.8348 12.1548C25.8793 12.3408 25.9027 12.533 25.9044 12.7263C25.9044 13.5171 25.9044 14.308 25.9044 15.0988V15.3685H26.8245C27.0113 15.3599 27.1976 15.3961 27.3721 15.4751C27.5467 15.5541 27.7058 15.6742 27.8399 15.8281C27.9741 15.9819 28.0803 16.1664 28.1524 16.3703C28.2244 16.5742 28.2606 16.7933 28.2589 17.0143C28.2589 17.1011 28.2589 17.188 28.2589 17.2703C28.2589 22.4131 28.2589 27.556 28.2589 32.6943C28.2628 33.7137 27.9844 34.436 27.1223 34.756Z" fill="white"/>
</svg>
