<svg width="223" height="18" viewBox="0 0 223 18" fill="none" xmlns="http://www.w3.org/2000/svg">
<path d="M126.956 17.0738V15.5985C127.233 15.6656 127.516 15.7013 127.801 15.7051C128.62 15.7051 129.067 15.0125 129.337 14.1847L126.219 6.2345H128.161L130.21 12.2258H130.313L132.362 6.2345H134.276L131.3 13.7954C130.382 16.1313 129.718 17.2296 127.956 17.2296C127.618 17.2227 127.281 17.1703 126.956 17.0738Z" fill="#278067"/>
<path d="M135.301 9.9842C135.301 7.54586 136.911 6.00909 139.366 6.00909C141.821 6.00909 143.399 7.54586 143.399 9.9842C143.399 12.4225 141.821 13.9757 139.366 13.9757C136.911 13.9757 135.301 12.4102 135.301 9.9842ZM141.653 9.9842C141.653 8.46383 140.718 7.54586 139.333 7.54586C137.948 7.54586 137.063 8.46383 137.063 9.9842C137.063 11.5046 138.026 12.443 139.366 12.443C140.706 12.443 141.653 11.521 141.653 9.9842Z" fill="#278067"/>
<path d="M144.824 11.6563C144.824 10.0457 146.197 9.15645 147.836 9.15645C148.654 9.15435 149.458 9.36175 150.172 9.75886C150.172 8.19341 149.418 7.50084 148.017 7.50084C147.164 7.51339 146.324 7.71347 145.558 8.08686V6.58287C146.413 6.19927 147.341 6.00363 148.279 6.00915C151.287 6.00915 151.815 7.9967 151.815 10.349V11.3243C151.815 12.3488 151.844 12.6357 152.328 12.6357C152.439 12.6276 152.55 12.6126 152.66 12.5906V13.82C152.369 13.9245 152.063 13.9812 151.754 13.988C150.852 13.988 150.504 13.4758 150.43 12.5865H150.34C150.032 13.027 149.622 13.3859 149.144 13.6322C148.666 13.8785 148.136 14.0049 147.599 14.0003C145.869 13.988 144.824 13.1766 144.824 11.6563ZM150.172 10.9022C149.62 10.5568 148.983 10.3697 148.332 10.3613C147.295 10.3613 146.586 10.7998 146.586 11.5661C146.586 12.3324 147.082 12.648 147.955 12.648C149.045 12.648 150.07 11.7464 150.176 10.9022H150.172Z" fill="#278067"/>
<path d="M154.512 6.23454H155.622C155.74 6.66112 155.835 7.09332 155.909 7.52952H155.987C156.218 7.06398 156.578 6.67386 157.022 6.40466C157.467 6.13547 157.979 5.99829 158.499 6.00914C159.025 5.97913 159.547 6.10814 159.998 6.37935C160.449 6.65055 160.808 7.05136 161.028 7.52952H161.105C161.352 7.07286 161.717 6.69083 162.162 6.42338C162.606 6.15593 163.115 6.01286 163.634 6.00914C165.654 6.00914 166.826 7.25905 166.826 9.69739V13.734H165.126V9.86541C165.126 8.55403 164.716 7.55821 163.425 7.55821C162.327 7.55821 161.528 8.46388 161.528 9.8777V13.7504H159.827V9.86541C159.827 8.55403 159.372 7.55821 158.188 7.55821C157.003 7.55821 156.229 8.48027 156.229 9.89409V13.7504H154.528L154.512 6.23454Z" fill="#278067"/>
<path d="M168.798 9.9842C168.798 7.54586 170.408 6.00909 172.863 6.00909C175.318 6.00909 176.9 7.54586 176.9 9.9842C176.9 12.4225 175.318 13.9757 172.863 13.9757C170.408 13.9757 168.798 12.4102 168.798 9.9842ZM175.154 9.9842C175.154 8.46383 174.22 7.54586 172.834 7.54586C171.449 7.54586 170.56 8.46792 170.56 9.9842C170.56 11.5005 171.523 12.443 172.863 12.443C174.203 12.443 175.15 11.521 175.15 9.9842H175.154Z" fill="#278067"/>
<path d="M177.92 6.22223H179.76L181.956 12.1562H182.079L184.276 6.22633H186.067L183.071 13.7544H180.932L177.92 6.22223Z" fill="#278067"/>
<path d="M187.333 3.79614C187.327 3.62746 187.357 3.45945 187.421 3.30323C187.485 3.14701 187.581 3.00614 187.703 2.88993C187.826 2.77372 187.972 2.68482 188.131 2.6291C188.29 2.57338 188.46 2.55212 188.628 2.56673C188.794 2.55299 188.962 2.5751 189.119 2.63156C189.276 2.68803 189.419 2.77754 189.539 2.89406C189.658 3.01057 189.752 3.15139 189.812 3.307C189.873 3.46262 189.899 3.62941 189.89 3.79614C189.901 3.96504 189.877 4.13443 189.817 4.29297C189.758 4.45152 189.665 4.59556 189.546 4.71545C189.426 4.83535 189.283 4.92833 189.124 4.98817C188.966 5.04801 188.797 5.07333 188.628 5.06244C188.458 5.0716 188.288 5.04535 188.128 4.98534C187.969 4.92532 187.824 4.83286 187.702 4.71381C187.58 4.59477 187.485 4.45172 187.421 4.29376C187.357 4.13579 187.327 3.96634 187.333 3.79614ZM187.796 6.22219H189.492V13.7503H187.788L187.796 6.22219Z" fill="#278067"/>
<path d="M191.247 6.22223H193.083L195.284 12.1562H195.402L197.599 6.22633H199.394L196.394 13.7544H194.259L191.247 6.22223Z" fill="#278067"/>
<path d="M200.431 9.95555C200.431 7.55819 201.996 5.99274 204.193 5.99274C206.467 5.99274 207.717 7.42296 207.717 9.48837C207.714 9.84667 207.684 10.2042 207.627 10.558H202.197C202.197 11.5661 202.935 12.5455 204.787 12.5455C205.626 12.5464 206.459 12.398 207.246 12.107V13.4635C206.437 13.8247 205.558 14.0038 204.672 13.988C201.906 13.988 200.431 12.3939 200.431 9.95555ZM205.971 9.38182C205.979 9.28636 205.979 9.19042 205.971 9.09496C205.971 8.1606 205.398 7.45574 204.148 7.45574C203.893 7.45412 203.641 7.50266 203.405 7.59857C203.169 7.69449 202.954 7.83592 202.773 8.01477C202.592 8.19363 202.448 8.40641 202.349 8.64097C202.25 8.87553 202.199 9.12727 202.197 9.38182H205.971Z" fill="#278067"/>
<path d="M209.795 6.23454H210.91C211.028 6.64434 211.119 7.24266 211.196 7.65246H211.27C211.524 7.16267 211.907 6.75129 212.377 6.46248C212.847 6.17368 213.386 6.01838 213.938 6.01324V8.05817C212.762 8.05817 211.512 8.72205 211.512 10.3326V13.7667H209.811L209.795 6.23454Z" fill="#278067"/>
<path d="M215.048 9.95555C215.048 7.55819 216.613 5.99274 218.814 5.99274C221.088 5.99274 222.338 7.42296 222.338 9.48837C222.333 9.84657 222.303 10.204 222.248 10.558H216.81C216.81 11.5661 217.548 12.5455 219.4 12.5455C220.239 12.546 221.072 12.3975 221.859 12.107V13.4635C221.048 13.8248 220.168 14.0039 219.281 13.988C216.54 13.988 215.048 12.3939 215.048 9.95555ZM220.588 9.38182C220.596 9.28636 220.596 9.19042 220.588 9.09496C220.588 8.1606 220.015 7.45574 218.769 7.45574C218.51 7.44917 218.252 7.49458 218.011 7.5893C217.77 7.68403 217.55 7.82613 217.365 8.00722C217.18 8.18831 217.032 8.40471 216.932 8.64363C216.832 8.88254 216.781 9.13913 216.781 9.39821L220.588 9.38182Z" fill="#278067"/>
<path d="M0.163086 9.69736C0.163086 6.70169 2.17113 4.68135 5.31433 4.68135C6.09242 4.66227 6.86626 4.80169 7.58875 5.09116V6.61563C6.88096 6.24557 6.08756 6.0702 5.28974 6.10747C3.17515 6.10747 1.72854 7.47212 1.72854 9.69326C1.72854 11.9144 3.24072 13.2954 5.31433 13.2954C6.11342 13.3323 6.90803 13.1569 7.61743 12.7873V14.2995C6.88981 14.6058 6.10297 14.7458 5.31433 14.7093C2.26538 14.7298 0.163086 12.6848 0.163086 9.69736Z" fill="#278067"/>
<path d="M10.2275 4.86987H11.7397L11.7643 13.152H15.6984V14.5044H10.2275V4.86987Z" fill="#278067"/>
<path d="M23.7146 12.107H19.5674L18.6699 14.5167H17.1045L20.7927 4.88214H22.432L26.1202 14.5167H24.6121L23.7146 12.107ZM23.2065 10.7546L21.6943 6.70167H21.5755L20.0633 10.7546H23.2065Z" fill="#278067"/>
<path d="M26.6611 4.88214H28.3331L31.3698 13.0782H31.4517L34.4884 4.88214H36.0416L32.2959 14.5167H30.4067L26.6611 4.88214Z" fill="#278067"/>
<path d="M38.3154 4.88214H44.1265V6.2345H39.8153V9.01707H43.6962V10.3817H39.8153V13.1643H44.1265V14.5167H38.3154V4.88214Z" fill="#278067"/>
<path d="M49.749 4.88214H51.3882L53.5315 12.7094H53.6094L55.7527 4.88214H57.437L59.5843 12.7094H59.654L61.8096 4.88214H63.4488L60.531 14.5167H58.6705L56.6501 7.29179H56.5682L54.5478 14.5167H52.675L49.749 4.88214Z" fill="#278067"/>
<path d="M65.7525 4.88214H67.2524V14.5044H65.7402L65.7525 4.88214Z" fill="#278067"/>
<path d="M70.5836 4.88214H76.3864V6.24679H72.0835V9.02937H75.9766V10.3817H72.0835V14.5167H70.5713L70.5836 4.88214Z" fill="#278067"/>
<path d="M78.8824 4.88214H80.3823V14.5044H78.8701L78.8824 4.88214Z" fill="#278067"/>
<path d="M104.463 15.6395C104.311 15.639 104.16 15.6685 104.019 15.7262C103.878 15.784 103.75 15.869 103.642 15.9763C103.534 16.0836 103.448 16.2112 103.389 16.3517C103.33 16.4922 103.3 16.6429 103.299 16.7952C103.294 17.1086 103.413 17.4114 103.63 17.6373C103.847 17.8631 104.145 17.9936 104.459 18C104.766 18.0009 105.06 17.88 105.278 17.664C105.502 17.439 105.629 17.1366 105.635 16.8198C105.636 16.6636 105.606 16.5087 105.546 16.3644C105.486 16.2201 105.398 16.0893 105.287 15.9797C105.179 15.8713 105.05 15.7854 104.909 15.727C104.767 15.6686 104.616 15.6389 104.463 15.6395Z" fill="#278067"/>
<path d="M109.286 12.6644C109.286 12.6193 109.245 12.5783 109.225 12.5332C109.201 12.4824 109.173 12.4331 109.143 12.3857C109.127 12.3543 109.11 12.3241 109.089 12.2955L109.012 12.2177C108.806 11.9873 108.586 11.771 108.352 11.5702C108.262 11.4923 108.172 11.4145 108.077 11.3407C107.825 11.14 107.558 10.9591 107.278 10.7997L107.159 10.7424C106.856 10.5771 106.537 10.4399 106.209 10.3326H106.176C105.822 10.2295 105.46 10.1596 105.094 10.1236L105.073 10.1072H104.934C104.782 10.1072 104.635 10.1072 104.483 10.1072C104.332 10.1072 104.184 10.1072 104.037 10.1072H103.893H103.844C103.478 10.1428 103.115 10.2128 102.762 10.3162H102.725C102.397 10.4242 102.079 10.5614 101.774 10.726L101.656 10.7834C101.369 10.9418 101.095 11.1227 100.836 11.3243L100.561 11.5538C100.333 11.7561 100.116 11.9723 99.914 12.2013L99.8361 12.2791C99.816 12.3077 99.7981 12.3379 99.7828 12.3693C99.7524 12.4167 99.725 12.466 99.7009 12.5168C99.6783 12.559 99.6591 12.6028 99.6435 12.648C99.623 12.693 99.6066 12.7381 99.582 12.7832V12.9225C99.6013 13.0653 99.6442 13.2038 99.7091 13.3323C99.7091 13.3323 99.7091 13.3528 99.7091 13.3651C99.7602 13.4577 99.8252 13.542 99.9017 13.6151L99.9263 13.652C100.006 13.7198 100.096 13.7751 100.193 13.8159C100.273 13.8448 100.357 13.8614 100.443 13.8651C100.484 13.8651 100.525 13.8897 100.561 13.8897H100.586C100.83 13.8813 101.062 13.7801 101.234 13.6069C101.32 13.5249 101.402 13.4389 101.484 13.3528C101.565 13.2668 101.725 13.1151 101.848 13.0045C101.906 12.9553 101.963 12.902 102.024 12.857C102.184 12.7333 102.353 12.621 102.529 12.5209L102.643 12.4554C102.819 12.364 103.001 12.2859 103.188 12.2218C103.237 12.2218 103.283 12.1849 103.332 12.1726C103.492 12.1256 103.655 12.0886 103.819 12.0619C103.901 12.0619 103.979 12.0333 104.061 12.0251C104.143 12.0169 104.311 12.0251 104.434 12.0251C104.557 12.0251 104.684 12.0251 104.807 12.0251C104.93 12.0251 104.967 12.0497 105.049 12.0619C105.215 12.089 105.379 12.126 105.541 12.1726L105.68 12.2218C105.867 12.2859 106.049 12.364 106.225 12.4554L106.34 12.5209C106.516 12.6219 106.686 12.7341 106.848 12.857L107.024 13.0045C107.143 13.1151 107.262 13.2258 107.385 13.3528C107.508 13.4799 107.549 13.5249 107.635 13.6069C107.807 13.7801 108.038 13.8813 108.282 13.8897H108.352C108.389 13.8897 108.43 13.8897 108.471 13.8651C108.557 13.861 108.643 13.8444 108.725 13.8159C108.821 13.7751 108.911 13.7198 108.991 13.652C109.001 13.6407 109.009 13.6283 109.016 13.6151C109.093 13.5429 109.158 13.4584 109.208 13.3651C109.208 13.3651 109.208 13.3446 109.208 13.3323C109.273 13.2038 109.316 13.0653 109.335 12.9225L109.315 12.7832C109.323 12.7545 109.303 12.7094 109.286 12.6644Z" fill="#278067"/>
<path d="M116.138 6.28369C116.138 6.28369 116.138 6.2509 116.138 6.23451C116.152 6.14904 116.152 6.0618 116.138 5.97633C116.133 5.91525 116.122 5.85481 116.105 5.79602C116.067 5.7102 116.019 5.62908 115.962 5.55423C115.937 5.52145 115.929 5.48047 115.9 5.44768L115.695 5.22639C115.609 5.13623 115.515 5.05837 115.429 4.97231C115.195 4.73462 114.958 4.50923 114.716 4.29203L114.286 3.96009C114.044 3.75519 113.794 3.55029 113.544 3.37407C112.773 2.79369 111.95 2.28609 111.085 1.85779H111.065C109.85 1.2413 108.555 0.798487 107.217 0.542322C107.032 0.505439 106.84 0.476753 106.647 0.448067C106.319 0.39889 105.987 0.362008 105.655 0.337419L105.036 0.296439C104.905 0.296439 104.778 0.296439 104.627 0.271851H104.266C104.131 0.271851 104.004 0.292341 103.856 0.296439L103.237 0.337419C102.905 0.362008 102.573 0.39889 102.246 0.448067C102.053 0.476753 101.86 0.505439 101.676 0.542322C100.337 0.786403 99.0384 1.21822 97.8197 1.82501H97.7952C96.9309 2.25426 96.1079 2.76181 95.3363 3.34129C95.0863 3.5298 94.8405 3.72241 94.5946 3.92731L94.2217 4.25925C93.9758 4.47645 93.7381 4.70184 93.5045 4.93953C93.4184 5.02559 93.3283 5.10345 93.2381 5.19361L93.0332 5.4149C93.0084 5.44853 92.9865 5.48417 92.9677 5.52145C92.9108 5.59629 92.8626 5.67742 92.8242 5.76323C92.807 5.82203 92.796 5.88246 92.7914 5.94355C92.7792 6.02917 92.7792 6.1161 92.7914 6.20172C92.7914 6.20172 92.7914 6.23451 92.7914 6.2509C92.7914 6.26729 92.8201 6.32876 92.8283 6.36565C92.8365 6.40253 92.8529 6.4599 92.8734 6.50498C92.9239 6.61093 92.9933 6.70676 93.0783 6.78775C93.1621 6.86593 93.2592 6.9284 93.3652 6.97216L93.443 7.00084C93.4614 7.01076 93.4806 7.01899 93.5004 7.02543C93.5835 7.04638 93.6688 7.05739 93.7545 7.05822C93.7873 7.05822 93.82 7.05822 93.8569 7.03773C94.0906 7.00368 94.3074 6.89601 94.4757 6.73037L94.8855 6.32057C95.2881 5.91043 95.7122 5.52194 96.1559 5.15672C97.6158 3.98371 99.3027 3.12561 101.11 2.63642C101.299 2.58725 101.483 2.54627 101.672 2.50938L101.951 2.45611C102.36 2.37825 102.77 2.32087 103.18 2.27989H103.459C103.774 2.25531 104.086 2.25121 104.397 2.24711C104.709 2.24301 105.02 2.24711 105.336 2.27989H105.614C106.024 2.32087 106.434 2.37825 106.844 2.45611L107.122 2.50938C107.311 2.54627 107.499 2.58725 107.684 2.63642C109.523 3.12484 111.239 3.9947 112.72 5.18951C113.164 5.55472 113.588 5.94322 113.991 6.35335L114.4 6.76316C114.569 6.9288 114.786 7.03646 115.019 7.07051C115.056 7.07051 115.089 7.091 115.122 7.091C115.207 7.09017 115.293 7.07917 115.376 7.05822C115.396 7.05177 115.415 7.04354 115.433 7.03363L115.511 7.00494C115.617 6.96118 115.714 6.89872 115.798 6.82053C115.883 6.73955 115.952 6.64372 116.003 6.53776C116.02 6.49215 116.035 6.44564 116.048 6.39843C116.093 6.36155 116.113 6.32467 116.138 6.28369Z" fill="#278067"/>
<path d="M112.511 8.93102C112.492 8.91211 112.472 8.89432 112.45 8.87775C112.331 8.73432 112.196 8.59908 112.065 8.46794C111.774 8.17698 111.475 7.90651 111.167 7.64833H111.147L111.057 7.58277C110.783 7.35054 110.488 7.13335 110.172 6.93118C110.02 6.83282 109.864 6.73857 109.708 6.64431C109.553 6.55006 109.323 6.42712 109.127 6.32876C108.93 6.23041 108.741 6.12796 108.54 6.046C108.442 6.00092 108.34 5.96813 108.237 5.93125C107.743 5.72082 107.234 5.54954 106.713 5.419L106.418 5.35343C106.282 5.32884 106.155 5.28376 106.008 5.26327C105.635 5.2059 105.262 5.18131 104.959 5.16082L104.647 5.13623H104.619H104.451H104.283H104.254L103.938 5.16082C103.635 5.18131 103.262 5.2059 102.889 5.26327C102.75 5.28376 102.623 5.32884 102.479 5.35343L102.184 5.419C101.661 5.5356 101.147 5.69317 100.648 5.89027C100.549 5.92715 100.443 5.95994 100.344 6.00502C100.144 6.08698 99.9346 6.18943 99.7625 6.28778C99.5903 6.38614 99.3527 6.48859 99.1764 6.60333C99.0002 6.71808 98.865 6.79184 98.7134 6.89019C98.4101 7.09237 98.1151 7.30956 97.8282 7.54178L97.738 7.60735C97.4307 7.86553 97.1315 8.136 96.8406 8.42696C96.7094 8.5622 96.5783 8.69743 96.4553 8.83677C96.4388 8.86042 96.4238 8.88505 96.4103 8.91053C96.2831 9.0516 96.2051 9.23016 96.1881 9.41936C96.1711 9.60855 96.216 9.79815 96.316 9.95963C96.3624 10.0533 96.4232 10.139 96.4963 10.2137C96.5317 10.238 96.5687 10.2599 96.607 10.2793C96.6709 10.3315 96.7411 10.3755 96.816 10.4104C96.8365 10.4104 96.861 10.4104 96.8856 10.4104C96.9723 10.4427 97.0637 10.4607 97.1561 10.4637H97.193C97.2732 10.4534 97.3517 10.4327 97.4266 10.4022C97.4645 10.397 97.5016 10.3874 97.5372 10.3735C97.5979 10.342 97.6555 10.305 97.7093 10.2629C97.7594 10.2335 97.8073 10.2006 97.8528 10.1645C97.8897 10.1318 97.9183 10.0949 97.9511 10.0621C98.0618 9.94324 98.1724 9.83259 98.2831 9.72195C98.3937 9.6113 98.5371 9.47606 98.6683 9.35722C98.7994 9.23838 98.8199 9.22198 98.8978 9.15642C98.9756 9.09085 99.156 8.94332 99.283 8.84496L99.5617 8.64006C99.66 8.5663 99.7625 8.50073 99.8649 8.43516C99.9674 8.36959 100.148 8.25485 100.275 8.17288C100.299 8.17288 100.324 8.1483 100.344 8.1319C101.028 7.75603 101.758 7.47347 102.516 7.2918L102.754 7.23853C103.091 7.16875 103.432 7.11948 103.774 7.091H103.844C104.053 7.091 104.254 7.091 104.459 7.091C104.664 7.091 104.869 7.091 105.074 7.091H105.119C105.461 7.11948 105.802 7.16875 106.139 7.23853L106.377 7.2918C107.135 7.47347 107.866 7.75603 108.549 8.1319L108.618 8.17288C108.762 8.25485 108.905 8.345 109.028 8.43516C109.151 8.52532 109.229 8.5663 109.327 8.64006L109.606 8.84496C109.737 8.94332 109.864 9.04987 109.995 9.15642L110.221 9.35722C110.352 9.47606 110.479 9.59491 110.606 9.72195C110.733 9.84899 110.827 9.94324 110.938 10.0621L111.036 10.1645C111.081 10.2055 111.13 10.226 111.18 10.2629C111.233 10.305 111.291 10.342 111.352 10.3735C111.388 10.3869 111.425 10.3965 111.462 10.4022C111.537 10.4327 111.616 10.4534 111.696 10.4637H111.733C111.827 10.4603 111.919 10.4423 112.007 10.4104C112.007 10.4104 112.053 10.4104 112.077 10.4104C112.15 10.3745 112.219 10.3305 112.282 10.2793C112.32 10.2599 112.357 10.238 112.393 10.2137C112.466 10.139 112.527 10.0533 112.573 9.95963C112.673 9.79815 112.718 9.60855 112.701 9.41936C112.684 9.23016 112.606 9.0516 112.479 8.91053L112.511 8.93102Z" fill="#278067"/>
</svg>
