<svg width="333" height="49" viewBox="0 0 333 49" fill="none" xmlns="http://www.w3.org/2000/svg">
<path d="M312.202 0.470337H20.298C9.08771 0.470337 0 11.2155 0 24.4703C0 37.7252 9.08771 48.4703 20.298 48.4703H312.202C323.412 48.4703 332.5 37.7252 332.5 24.4703C332.5 11.2155 323.412 0.470337 312.202 0.470337Z" fill="#04C386"/>
<path d="M13.8877 25.1561C13.997 26.7488 14.4929 28.2704 15.316 29.5379C16.139 30.8054 17.2541 31.765 18.5272 32.3012C17.6148 30.6784 17.0117 28.1366 16.9459 25.1561H13.8877Z" fill="white"/>
<path d="M18.0713 25.1561C18.1989 29.6864 19.6178 32.7858 20.8743 32.7858C22.1309 32.7858 23.5537 29.6636 23.6813 25.1561H18.0713Z" fill="white"/>
<path d="M23.6813 23.8076C23.5537 19.2773 22.1347 16.1779 20.8743 16.1779C19.6139 16.1779 18.1989 19.2773 18.0713 23.8076H23.6813Z" fill="white"/>
<path d="M18.5194 16.6622C17.2463 17.1985 16.1312 18.158 15.3082 19.4255C14.4851 20.693 13.9892 22.2146 13.8799 23.8074H16.9381C17.0116 20.8039 17.6147 18.2622 18.5194 16.6622Z" fill="white"/>
<path d="M23.2324 32.2784C24.5008 31.7413 25.6118 30.7844 26.433 29.5216C27.2543 28.2588 27.7511 26.7434 27.8642 25.1561H24.8021C24.7441 28.1366 24.1371 30.6784 23.2324 32.2784Z" fill="white"/>
<path d="M20.8782 6.18469C17.8195 6.18469 14.8295 7.25713 12.2863 9.26639C9.74303 11.2757 7.76082 14.1315 6.5903 17.4728C5.41979 20.814 5.11353 24.4907 5.71025 28.0378C6.30698 31.5849 7.77989 34.8431 9.94272 37.4004C12.1056 39.9577 14.8612 41.6992 17.8611 42.4048C20.8611 43.1103 23.9706 42.7482 26.7965 41.3642C29.6223 39.9802 32.0377 37.6365 33.737 34.6294C35.4363 31.6223 36.3433 28.087 36.3433 24.4704C36.3433 19.6207 34.714 14.9697 31.8137 11.5405C28.9134 8.11122 24.9798 6.18469 20.8782 6.18469ZM20.8782 34.0933C19.2732 34.0933 17.7042 33.5308 16.3694 32.4769C15.0347 31.4231 13.994 29.9251 13.3789 28.1723C12.7638 26.4194 12.6019 24.4904 12.9136 22.6288C13.2254 20.7672 13.9967 19.0566 15.1303 17.7131C16.2638 16.3696 17.7087 15.4535 19.2824 15.0805C20.8561 14.7075 22.488 14.8944 23.9719 15.6175C25.4558 16.3406 26.7252 17.5675 27.6197 19.1432C28.5141 20.7189 28.9936 22.5727 28.9974 24.4704C28.9954 27.0179 28.1399 29.4606 26.6183 31.2641C25.0966 33.0675 23.0327 34.0848 20.8782 34.0933Z" fill="white"/>
<path d="M23.2324 16.6624C24.1371 18.2624 24.7287 20.8041 24.8021 23.8075H27.8642C27.7546 22.2161 27.2595 20.6959 26.438 19.4286C25.6165 18.1614 24.5036 17.201 23.2324 16.6624Z" fill="white"/>
</svg>
