<svg width="333" height="49" viewBox="0 0 333 49" fill="none" xmlns="http://www.w3.org/2000/svg">
<path d="M312.202 0.470306H20.298C9.08771 0.470306 0 11.2155 0 24.4703C0 37.7251 9.08771 48.4703 20.298 48.4703H312.202C323.412 48.4703 332.5 37.7251 332.5 24.4703C332.5 11.2155 323.412 0.470306 312.202 0.470306Z" fill="#04C386"/>
<path d="M18.6271 17.8142C18.3973 17.4181 18.2436 16.9673 18.1768 16.4935C18.11 16.0196 18.1317 15.5342 18.2405 15.0714L17.7843 15.2085C17.0458 15.4417 16.2803 15.6657 15.5341 15.9308C15.5048 15.9538 15.4803 15.9841 15.4622 16.0197C15.4442 16.0553 15.433 16.0952 15.4297 16.1365C15.4297 16.3971 15.4297 16.6714 15.4297 16.932V17.3891C15.4297 17.5491 15.4684 17.5994 15.5921 17.6085L17.8848 17.7548L18.6271 17.8142Z" fill="white"/>
<path d="M21.38 19.172H21.2369C21.1132 19.172 20.9934 19.1948 20.8774 19.1948C20.7614 19.1948 20.6454 19.1948 20.5139 19.172H20.3631L20.3168 19.7023C20.2704 20.228 20.224 20.7491 20.1814 21.2703C20.1761 21.2997 20.1765 21.3302 20.1826 21.3595C20.1886 21.3888 20.2001 21.4161 20.2162 21.4394C20.2641 21.4899 20.3261 21.5176 20.3902 21.5171C20.7072 21.5171 21.0359 21.5171 21.3606 21.5171C21.4232 21.5195 21.4841 21.4933 21.5308 21.444C21.5487 21.4154 21.5617 21.3829 21.569 21.3484C21.5763 21.3139 21.5778 21.278 21.5733 21.2428C21.5733 21.0371 21.5385 20.7857 21.5114 20.4977C21.4844 20.2097 21.4496 19.8623 21.4148 19.5468L21.38 19.172Z" fill="white"/>
<path d="M13.3843 16.6074C13.1369 16.6074 12.9011 16.6074 12.7541 16.6074C12.7176 16.6221 12.684 16.6455 12.6554 16.6762C12.6268 16.7069 12.6038 16.7441 12.5879 16.7857C12.5978 16.8349 12.6168 16.881 12.6435 16.9205C12.6703 16.96 12.7041 16.992 12.7425 17.0143C12.9938 17.0417 14.0145 17.0371 14.3741 17.0143H14.6254V16.5846H13.3843V16.6074Z" fill="white"/>
<path d="M21.8443 33.796H19.9111V35.1172C19.9111 35.1812 19.9111 35.2406 19.9111 35.3C19.9357 35.5842 20.0478 35.8479 20.226 36.0409C20.4042 36.2339 20.6361 36.3428 20.8777 36.3469C21.117 36.3493 21.3483 36.2453 21.5258 36.0557C21.7034 35.8661 21.8143 35.6046 21.8365 35.3229C21.8521 34.9604 21.8521 34.5973 21.8365 34.2349C21.8481 34.0886 21.8443 33.9423 21.8443 33.796Z" fill="white"/>
<path d="M20.8772 18.299C21.3871 18.2884 21.8737 18.0442 22.2343 17.6178C22.5949 17.1914 22.8014 16.6162 22.8104 16.0133C22.8064 15.4064 22.6021 14.8253 22.2409 14.394C21.8798 13.9628 21.3904 13.7154 20.8772 13.7047C20.3597 13.7071 19.8638 13.9509 19.4975 14.3832C19.1312 14.8155 18.924 15.4013 18.9209 16.0133C18.9317 16.6154 19.1389 17.1894 19.4991 17.6153C19.8593 18.0412 20.3447 18.2861 20.854 18.299H20.8772Z" fill="white"/>
<path d="M25.0805 20.6715C25.0805 19.976 24.8501 19.3081 24.4387 18.8109C24.3659 18.7355 24.2726 18.6933 24.1758 18.6921C23.7892 18.6921 23.4025 18.7332 23.0159 18.7561L22.2774 18.8018C22.2582 18.7986 22.2387 18.8002 22.2201 18.8065C22.2014 18.8128 22.1841 18.8237 22.1692 18.8384C22.1499 18.8658 22.146 18.9115 22.1692 18.9984C22.2426 19.6841 22.3122 20.3972 22.3818 21.1744C22.3946 21.3304 22.3802 21.488 22.3396 21.6373C22.2991 21.7866 22.2332 21.9245 22.1459 22.0427C22.0587 22.1608 21.952 22.2566 21.8323 22.3242C21.7127 22.3919 21.5826 22.4299 21.4501 22.4361C21.0737 22.4361 20.6987 22.4361 20.325 22.4361C20.1924 22.4299 20.0624 22.3919 19.9427 22.3242C19.8231 22.2566 19.7163 22.1608 19.6291 22.0427C19.5419 21.9245 19.476 21.7866 19.4354 21.6373C19.3948 21.488 19.3805 21.3304 19.3932 21.1744C19.4551 20.4795 19.5247 19.7344 19.6058 18.9984C19.6223 18.9484 19.6223 18.8929 19.6058 18.8429C19.6058 18.8155 19.5479 18.8018 19.4744 18.7972H19.0878C18.7127 18.7925 18.3383 18.7605 17.9665 18.7012C17.4949 18.6144 17.1933 18.8292 16.9304 19.4326C16.8577 19.5864 16.8068 19.7532 16.7796 19.9264C16.6945 20.6349 16.6288 21.3526 16.5824 21.8921C16.536 22.4315 16.5012 22.8566 16.4626 23.3366C16.4007 24.1229 16.335 24.9366 16.2538 25.7321C16.1308 26.6771 16.2092 27.6434 16.4819 28.5435C16.6596 29.1035 16.9216 29.6207 17.2551 30.0704C17.3023 28.9689 17.7029 27.9301 18.3753 27.1656C19.0477 26.4012 19.9413 25.9686 20.874 25.9561H20.8972C21.8263 25.9723 22.7153 26.407 23.3827 27.1716C24.0501 27.9361 24.4457 28.9728 24.489 30.0704C25.0485 29.3086 25.4061 28.369 25.5174 27.3686C25.5761 26.6909 25.5592 26.0069 25.4671 25.3344C25.4401 25.0829 25.413 24.8224 25.3975 24.5709C25.3473 23.8624 25.2854 23.1446 25.2274 22.4452C25.1733 21.8646 25.1308 21.2658 25.0805 20.6715Z" fill="white"/>
<path d="M29.0244 16.6257C28.7692 16.6029 27.7408 16.6257 27.3735 16.6257H27.1299V17.0554H27.3812C27.7446 17.0554 28.7653 17.0554 29.0128 17.0554C29.0491 17.0387 29.0816 17.0123 29.1077 16.9782C29.1339 16.9441 29.153 16.9032 29.1635 16.8589C29.1674 16.7674 29.0669 16.6257 29.0244 16.6257Z" fill="white"/>
<path d="M20.8782 6.18466C16.7766 6.18466 12.843 8.11119 9.94271 11.5404C7.04244 14.9697 5.41309 19.6207 5.41309 24.4704C5.41309 29.3201 7.04244 33.9711 9.94271 37.4003C12.843 40.8296 16.7766 42.7561 20.8782 42.7561C24.9798 42.7561 28.9134 40.8296 31.8137 37.4003C34.714 33.9711 36.3433 29.3201 36.3433 24.4704C36.3433 19.6207 34.714 14.9697 31.8137 11.5404C28.9134 8.11119 24.9798 6.18466 20.8782 6.18466ZM28.9278 17.9927H27.4818C27.3564 17.964 27.2268 17.9757 27.1064 18.0263C26.9861 18.077 26.8794 18.1648 26.7975 18.2807C26.6091 18.4597 26.3742 18.5566 26.1325 18.5549C25.9382 18.573 25.743 18.573 25.5487 18.5549H25.3824C25.4249 18.6921 25.4675 18.8247 25.5139 18.9572C25.6318 19.2717 25.7225 19.5995 25.7845 19.9355C25.8615 20.4699 25.9157 21.0085 25.9469 21.5492C25.9469 21.7458 25.974 21.9424 25.9933 22.1389C26.032 22.6372 26.0745 23.1355 26.1131 23.6338C26.1711 24.3881 26.233 25.1607 26.3026 25.9195C26.4132 26.8989 26.3156 27.8954 26.0186 28.8189C25.7216 29.7424 25.2345 30.5637 24.6014 31.2087C24.5192 31.2929 24.453 31.3967 24.407 31.5133C24.361 31.6299 24.3364 31.7566 24.3347 31.8852C24.3335 32.2997 24.2159 32.702 24.0004 33.0288C23.7848 33.3557 23.4835 33.5886 23.1438 33.6909C23.0169 33.7273 22.8876 33.7502 22.7572 33.7595H22.6103V35.1309C22.6175 35.6507 22.4596 36.1547 22.1676 36.5433C21.8757 36.9319 21.4711 37.1769 21.0337 37.2298C20.5964 37.2826 20.1582 37.1395 19.8058 36.8288C19.4534 36.518 19.2125 36.0622 19.1306 35.5515C19.1062 35.364 19.0972 35.1742 19.1036 34.9847V34.7927C19.1036 34.5504 19.1036 34.3035 19.1036 34.0567V33.7961H18.9644C18.8342 33.7879 18.7049 33.7665 18.5778 33.7321C18.2421 33.6329 17.9433 33.406 17.7275 33.0863C17.5116 32.7667 17.3906 32.3719 17.3831 31.9629C17.3808 31.8198 17.3528 31.6789 17.3008 31.5496C17.2488 31.4203 17.174 31.3056 17.0815 31.2132C16.4632 30.5575 15.9919 29.7307 15.7099 28.8069C15.4279 27.8831 15.3439 26.8911 15.4654 25.9195C15.5466 25.0052 15.6239 24.0407 15.6974 23.1264C15.736 22.6052 15.7786 22.0841 15.8211 21.5629L15.8559 21.1058C15.8753 20.6975 15.9179 20.2913 15.9835 19.8898C16.0493 19.5668 16.1398 19.2516 16.2541 18.9481C16.2928 18.8338 16.3353 18.7149 16.374 18.5961H16.2116C16.0415 18.5961 15.8559 18.5961 15.6742 18.5687C15.4999 18.581 15.3257 18.5415 15.1676 18.4536C15.0096 18.3658 14.8727 18.2324 14.7695 18.0658C14.723 18.0196 14.6639 17.9952 14.6032 17.9972H12.8054C12.6732 18.0028 12.5415 17.9767 12.418 17.9205C12.2946 17.8644 12.182 17.7793 12.087 17.6705C11.992 17.5616 11.9167 17.4312 11.8654 17.287C11.8141 17.1428 11.788 16.9879 11.7886 16.8315C11.7869 16.6772 11.8118 16.524 11.8616 16.3813C11.9114 16.2386 11.9851 16.1093 12.0783 16.0012C12.1715 15.8931 12.2823 15.8085 12.404 15.7524C12.5256 15.6964 12.6556 15.67 12.7861 15.6749C13.0606 15.6749 14.2591 15.6749 14.5259 15.6749C14.6264 15.6749 14.6806 15.6247 14.7617 15.5241C14.9228 15.3202 15.1142 15.1528 15.3262 15.0304C15.4731 14.9481 16.6214 14.5732 17.646 14.2669L18.7672 13.9104C18.8036 13.8866 18.8353 13.8539 18.86 13.8144L18.8871 13.7778C19.1418 13.4537 19.4497 13.1945 19.7921 13.0161C20.1345 12.8376 20.5041 12.7437 20.8782 12.7401C21.2535 12.7408 21.6247 12.8329 21.9686 13.0107C22.3125 13.1884 22.6217 13.448 22.8771 13.7732C22.9121 13.829 22.9587 13.8731 23.0124 13.9012C23.7199 14.1389 26.1518 14.9298 26.3606 14.9892C26.5007 15.0191 26.6334 15.0855 26.7491 15.1835C26.8648 15.2816 26.9605 15.4088 27.0295 15.5561C27.0505 15.5857 27.0765 15.6099 27.1057 15.6272C27.135 15.6445 27.1669 15.6545 27.1996 15.6567C27.3581 15.6567 28.1893 15.6567 28.4561 15.6567H28.9355C29.196 15.6567 29.4458 15.779 29.6299 15.9968C29.8141 16.2145 29.9176 16.5099 29.9176 16.8178C29.9176 17.1258 29.8141 17.4211 29.6299 17.6389C29.4458 17.8566 29.196 17.9789 28.9355 17.9789L28.9278 17.9927Z" fill="white"/>
<path d="M26.0973 15.8715L24.4502 15.3458L23.6383 15.0989C23.5985 15.0934 23.5583 15.0934 23.5185 15.0989C23.6256 15.562 23.6466 16.047 23.5798 16.5205C23.5131 16.9941 23.3602 17.4449 23.1318 17.8418L23.7311 17.8006L26.2017 17.6406C26.3099 17.6406 26.3486 17.5858 26.3447 17.4304V17.1424C26.3447 16.8589 26.3447 16.5664 26.3447 16.2784C26.3447 15.9904 26.2906 15.9309 26.0973 15.8715Z" fill="white"/>
<path d="M20.9673 26.8613H20.8474C20.1479 26.855 19.4729 27.1655 18.961 27.7291C18.4491 28.2928 18.139 29.0667 18.0946 29.8922C18.0804 30.4484 18.1063 31.0051 18.1719 31.5562C18.1719 31.7024 18.2029 31.8487 18.2145 32.0133C18.2182 32.1325 18.2425 32.2496 18.286 32.3573C18.3295 32.465 18.3912 32.561 18.4673 32.6394C18.5434 32.7178 18.6322 32.7769 18.7284 32.8131C18.8245 32.8493 18.926 32.8618 19.0264 32.8499C19.4826 32.8499 19.9427 32.8499 20.3989 32.8499H21.4196C21.8565 32.8499 22.2934 32.8499 22.7341 32.8499C22.9246 32.8591 23.1108 32.7819 23.2545 32.634C23.3983 32.4861 23.4888 32.2787 23.5074 32.0544C23.5693 31.5196 23.6234 30.9939 23.6582 30.459C23.6927 30.0103 23.6489 29.558 23.5294 29.1301C23.4098 28.7023 23.2172 28.3081 22.9634 27.972C22.7096 27.6359 22.4 27.365 22.054 27.1763C21.7079 26.9876 21.3328 26.8851 20.9518 26.875L20.9673 26.8613Z" fill="white"/>
</svg>
