<svg xmlns="http://www.w3.org/2000/svg" xmlns:xlink="http://www.w3.org/1999/xlink" viewBox="0 0 860 105"><defs><style>.cls-1{fill:none;}.cls-2{fill:#f6f6f3;}.cls-3{fill:#04c386;}.cls-4{fill:url(#Nueva_muestra_de_motivo_4);}</style><pattern id="Nueva_muestra_de_motivo_4" data-name="Nueva muestra de motivo 4" width="195.57" height="195.57" patternTransform="translate(1942.23 102.09) scale(0.26)" patternUnits="userSpaceOnUse" viewBox="0 0 195.57 195.57"><rect class="cls-1" width="49" height="333"/><rect class="cls-2" width="195.57" height="195.57"/></pattern></defs><g id="Capa_2" data-name="Capa 2"><g id="DISEÑO"><rect class="cls-3" width="860" height="105" rx="52.5"/><path class="cls-4" d="M63.92,38.57a16.19,16.19,0,0,0-13.33-2.91,16.4,16.4,0,0,0-11.7,9.05,16.16,16.16,0,0,0-1.54,10.11,16.91,16.91,0,0,0,2.23,6.07,2.31,2.31,0,0,1,.23,2.1c-.19.55-.37,1.11-.54,1.67l-1.05,3.27.85-.27c1.19-.37,2.31-.71,3.41-1.13a3.72,3.72,0,0,1,1.34-.27,4.06,4.06,0,0,1,2,.6,16.15,16.15,0,0,0,11.6,1.78,16.89,16.89,0,0,0,13-19.93A16.32,16.32,0,0,0,63.92,38.57ZM47.67,53.83a2.33,2.33,0,0,1-1.66.69h0a2.38,2.38,0,0,1-2.35-2.37,2.42,2.42,0,0,1,.71-1.68A2.36,2.36,0,0,1,46,49.79h0a2.37,2.37,0,0,1,2.34,2.36A2.34,2.34,0,0,1,47.67,53.83Zm6.34.69h0a2.37,2.37,0,0,1-1.66-.69,2.34,2.34,0,0,1-.71-1.68A2.37,2.37,0,0,1,54,49.79h0a2.33,2.33,0,0,1,1.66.69,2.31,2.31,0,0,1,.7,1.67A2.38,2.38,0,0,1,54,54.52Zm8,0h0a2.39,2.39,0,0,1-2.36-2.38A2.37,2.37,0,1,1,62,54.52Z"/><path class="cls-4" d="M54,12.5a40,40,0,1,0,40,40A40,40,0,0,0,54,12.5ZM74.68,54.24a19.91,19.91,0,0,1-3.33,9.34,20.4,20.4,0,0,1-16.71,9.34c-.3,0-.6,0-.89,0A20.07,20.07,0,0,1,44,70.38a.46.46,0,0,0-.44,0L39.34,71.7l-3.4,1.1a2,2,0,0,1-2.12-.41,2.66,2.66,0,0,1-.43-.64c0-.09-.09-.18-.14-.26l-.06-.09v-.89l.1-.11.65-2q.91-2.88,1.85-5.76a.5.5,0,0,0,0-.48,20,20,0,0,1-2.26-6.56c-.08-.49-.14-1-.21-1.47l-.08-.62V51l0-.2a.9.9,0,0,0,0-.16,19.85,19.85,0,0,1,2.37-8.21,20.59,20.59,0,0,1,14.73-10.7c.54-.1,1.09-.16,1.64-.23l.74-.09h2.44l.2,0a.58.58,0,0,0,.14,0,20.52,20.52,0,0,1,5.23,1.06A20.8,20.8,0,0,1,74.68,54.24Z"/></g></g></svg>