<svg width="333" height="49" viewBox="0 0 333 49" fill="none" xmlns="http://www.w3.org/2000/svg">
<path d="M312.202 0.470337H20.298C9.08771 0.470337 0 11.2155 0 24.4703C0 37.7252 9.08771 48.4703 20.298 48.4703H312.202C323.412 48.4703 332.5 37.7252 332.5 24.4703C332.5 11.2155 323.412 0.470337 312.202 0.470337Z" fill="#04C386"/>
<path d="M15.7476 21.4303H12.2139C12.2869 21.9217 12.5041 22.3669 12.8272 22.6877C13.1504 23.0085 13.5588 23.1844 13.9808 23.1844C14.4027 23.1844 14.8112 23.0085 15.1343 22.6877C15.4575 22.3669 15.6746 21.9217 15.7476 21.4303Z" fill="white"/>
<path d="M18.4496 26.4773H17.224C17.1193 26.4616 17.013 26.4745 16.9132 26.515C16.8133 26.5554 16.7226 26.6223 16.648 26.7105C16.5734 26.7987 16.5168 26.906 16.4826 27.024C16.4485 27.142 16.4375 27.2678 16.4508 27.3915V33.2887H19.1572C19.1572 33.243 19.1572 33.2155 19.1572 33.1835C19.1572 31.2315 19.1572 29.2795 19.1572 27.323C19.1615 27.2113 19.1462 27.0998 19.1123 26.9955C19.0784 26.8912 19.0265 26.7963 18.9601 26.7169C18.8936 26.6374 18.8139 26.5751 18.7261 26.5339C18.6382 26.4926 18.5441 26.4734 18.4496 26.4773Z" fill="white"/>
<path d="M18.6614 23.1766C19.5082 23.1126 20.2853 22.308 20.3355 21.4303H16.8018C16.8808 21.938 17.1127 22.3947 17.4546 22.7158C17.7965 23.0369 18.2253 23.2006 18.6614 23.1766Z" fill="white"/>
<path d="M23.1673 23.1766C23.5885 23.1778 23.9966 23.0034 24.3198 22.684C24.643 22.3646 24.8605 21.9206 24.9342 21.4303H21.4043C21.4786 21.9195 21.6958 22.3623 22.018 22.6814C22.3402 23.0006 22.747 23.1758 23.1673 23.1766Z" fill="white"/>
<path d="M29.0585 20.1276C28.3677 18.6861 27.6769 17.2445 26.9862 15.803C26.9619 15.7486 26.924 15.7044 26.8776 15.6766C26.8312 15.6487 26.7786 15.6386 26.7271 15.6476H15.0084C14.9509 15.6415 14.8933 15.6572 14.8439 15.6926C14.7945 15.728 14.756 15.7811 14.7339 15.8442C14.0586 17.2613 13.3807 18.6754 12.7003 20.0865C12.6693 20.1505 12.6461 20.2145 12.6113 20.2967H29.1281C29.101 20.2053 29.0817 20.1505 29.0585 20.1276Z" fill="white"/>
<path d="M22.6444 26.4772C22.3893 26.4772 22.2578 26.6463 22.2578 26.9755C22.2578 27.7206 22.2578 28.4612 22.2578 29.2063C22.2578 29.5355 22.3777 29.6909 22.6444 29.6955H24.8869C25.1614 29.6955 25.2735 29.54 25.2735 29.1789C25.2735 28.452 25.2735 27.7252 25.2735 26.9937C25.2735 26.6463 25.1537 26.4817 24.8869 26.4772H22.6444Z" fill="white"/>
<path d="M27.8373 23.1766C28.2432 23.1591 28.6314 22.9754 28.9354 22.6569C29.2394 22.3383 29.4403 21.9047 29.5037 21.4303H25.9854C26.0595 21.9391 26.2891 22.3979 26.6305 22.7198C26.9719 23.0417 27.4013 23.2043 27.8373 23.1766Z" fill="white"/>
<path d="M20.8782 6.18469C17.8195 6.18469 14.8295 7.25713 12.2863 9.26639C9.74303 11.2757 7.76082 14.1315 6.5903 17.4728C5.41979 20.814 5.11353 24.4907 5.71025 28.0378C6.30698 31.5849 7.77989 34.8431 9.94272 37.4004C12.1056 39.9577 14.8612 41.6992 17.8611 42.4048C20.8611 43.1103 23.9706 42.7482 26.7965 41.3642C29.6223 39.9802 32.0377 37.6365 33.737 34.6294C35.4363 31.6223 36.3433 28.087 36.3433 24.4704C36.3433 19.6207 34.714 14.9697 31.8137 11.5405C28.9134 8.11122 24.9798 6.18469 20.8782 6.18469ZM30.5439 21.3893C30.5295 21.4304 30.5192 21.4734 30.513 21.5173C30.4499 22.0397 30.2785 22.5355 30.014 22.9606C29.7496 23.3857 29.4003 23.7269 28.9974 23.9538C28.8737 24.0315 28.8737 24.1275 28.8737 24.2601C28.8737 27.4098 28.8737 30.5641 28.8737 33.7184C28.8831 33.8192 28.873 33.9211 28.8444 34.0167C28.8157 34.1122 28.7691 34.1988 28.7082 34.27C28.6472 34.3413 28.5733 34.3953 28.4922 34.428C28.411 34.4607 28.3247 34.4713 28.2396 34.459C23.3217 34.459 18.4038 34.459 13.4859 34.459C13.0374 34.459 12.8634 34.2533 12.8634 33.7184C12.8634 30.5641 12.8634 27.4114 12.8634 24.2601C12.8708 24.1924 12.8589 24.1236 12.8295 24.0648C12.8001 24.006 12.7548 23.9605 12.701 23.9355C12.3239 23.7092 11.9963 23.3825 11.7441 22.9812C11.4918 22.5798 11.3218 22.1147 11.2473 21.6224C11.1655 21.224 11.2196 20.8036 11.3981 20.4521C12.2976 18.6235 13.183 16.7843 14.0542 14.9344C14.1104 14.7892 14.2027 14.6678 14.3187 14.5861C14.4347 14.5044 14.569 14.4665 14.7038 14.4773C18.8149 14.4773 22.9222 14.4773 27.0256 14.4773C27.1586 14.468 27.2908 14.5068 27.4047 14.5885C27.5186 14.6701 27.6089 14.7907 27.6635 14.9344C28.3208 16.3058 28.9858 17.6773 29.6547 19.0761C29.9408 19.675 30.2346 20.2693 30.5246 20.8635L30.5439 21.3893Z" fill="white"/>
<path d="M25.4598 22.8702C25.2049 23.3105 24.8631 23.6707 24.4639 23.9196C24.0647 24.1685 23.6203 24.2986 23.169 24.2986C22.7177 24.2986 22.2733 24.1685 21.8741 23.9196C21.4749 23.6707 21.1331 23.3105 20.8782 22.8702C20.6223 23.3124 20.279 23.6742 19.8782 23.9241C19.4773 24.1741 19.031 24.3047 18.5778 24.3047C18.1246 24.3047 17.6783 24.1741 17.2774 23.9241C16.8766 23.6742 16.5333 23.3124 16.2774 22.8702C16.0045 23.3361 15.6362 23.7126 15.2068 23.9645C14.7775 24.2163 14.3011 24.3353 13.8223 24.3102V33.3022H15.4848V27.4417C15.4848 26.4268 15.941 25.6131 16.7297 25.4531C17.444 25.3343 18.1689 25.3343 18.8832 25.4531C19.2444 25.5356 19.5677 25.771 19.7926 26.1152C20.0175 26.4594 20.1286 26.8888 20.105 27.3228C20.105 29.2245 20.105 31.1262 20.105 33.0325V33.3022H27.911V24.3148C27.4326 24.3373 26.9572 24.2167 26.5287 23.9641C26.1002 23.7116 25.7326 23.3354 25.4598 22.8702ZM26.1364 26.8337C26.1596 27.716 26.1364 28.6028 26.1364 29.4851C26.1269 29.809 26.0208 30.1184 25.8368 30.3586C25.6528 30.5987 25.4028 30.7541 25.1311 30.7971C24.229 30.8184 23.3269 30.8184 22.4247 30.7971C22.1531 30.7541 21.9031 30.5987 21.7191 30.3586C21.5351 30.1184 21.429 29.809 21.4195 29.4851C21.4195 28.5708 21.3963 27.6565 21.4195 26.7422C21.4271 26.3937 21.5435 26.0609 21.7462 25.8077C21.9489 25.5545 22.2236 25.3989 22.5175 25.3708C22.939 25.3708 23.3604 25.3708 23.7818 25.3708C24.1684 25.3708 24.5551 25.3708 24.9417 25.3708C25.1022 25.3719 25.261 25.4111 25.4085 25.4859C25.5561 25.5607 25.6895 25.6698 25.8008 25.8065C25.9122 25.9433 25.9993 26.1051 26.0569 26.2822C26.1145 26.4594 26.1415 26.6485 26.1364 26.8382V26.8337Z" fill="white"/>
</svg>
