<svg width="71" height="71" viewBox="0 0 71 71" fill="none" xmlns="http://www.w3.org/2000/svg">
<path d="M9.4249 53.3062H6.50589L5.73044 53.7603C5.70314 53.7794 5.67201 53.7923 5.63921 53.7982C5.6064 53.8041 5.57271 53.8028 5.54046 53.7944C5.5082 53.786 5.47817 53.7707 5.45242 53.7495C5.42668 53.7283 5.40585 53.7018 5.39137 53.6718L5.36188 53.6217C5.34276 53.5944 5.3298 53.5632 5.3239 53.5304C5.31801 53.4976 5.31931 53.4639 5.32772 53.4317C5.33614 53.3994 5.35146 53.3694 5.37263 53.3437C5.3938 53.3179 5.42032 53.2971 5.45034 53.2826L6.22579 52.8256L7.64401 50.2869C7.6609 50.2509 7.68695 50.22 7.71955 50.1972C7.75215 50.1745 7.79015 50.1607 7.82976 50.1572C7.86667 50.1595 7.90228 50.1716 7.93288 50.1924C7.96348 50.2131 7.98795 50.2417 8.00373 50.2751L8.0568 50.3636C8.08668 50.4108 8.10254 50.4655 8.10254 50.5213C8.10254 50.5772 8.08668 50.6319 8.0568 50.6791L6.8774 52.7666H9.28337C9.33919 52.764 9.39459 52.7773 9.44314 52.805C9.49169 52.8326 9.53138 52.8735 9.55758 52.9229L9.60475 53.0054C9.62713 53.0368 9.64083 53.0734 9.64446 53.1118C9.64808 53.1501 9.6415 53.1887 9.62539 53.2236C9.59956 53.2659 9.55835 53.2966 9.5104 53.3091C9.48193 53.3129 9.45304 53.3119 9.4249 53.3062ZM11.4888 58.5987C11.2263 58.8305 10.9179 59.0043 10.5837 59.1088C10.3725 59.1714 10.1512 59.1924 9.93204 59.1707C9.4603 59.1077 9.03074 58.866 8.732 58.4955C8.40988 58.1386 8.24051 57.6697 8.26024 57.1894C8.29371 56.9064 8.38474 56.6333 8.52774 56.3868C8.67074 56.1404 8.86267 55.9259 9.09172 55.7564C9.2975 55.5625 9.54062 55.4126 9.80625 55.3158C10.0719 55.219 10.3545 55.1773 10.6367 55.1932C11.1108 55.2653 11.5426 55.5072 11.8518 55.8738C12.1609 56.2405 12.3264 56.7069 12.3174 57.1864C12.2832 57.4646 12.1932 57.7331 12.0529 57.9758C11.9126 58.2185 11.7247 58.4303 11.5006 58.5987H11.4888ZM11.4417 56.2016C11.3322 56.0603 11.1937 55.944 11.0355 55.8606C10.8774 55.7772 10.7032 55.7286 10.5247 55.7181C10.1223 55.7279 9.73782 55.8865 9.44554 56.1633C9.1207 56.4059 8.89451 56.7577 8.80866 57.154C8.7865 57.3321 8.8038 57.5129 8.85934 57.6836C8.91489 57.8543 9.0073 58.0107 9.13005 58.1417C9.67257 58.7815 10.4038 58.7933 11.138 58.1741C11.4601 57.933 11.6817 57.5811 11.7601 57.1864C11.7838 57.0098 11.7686 56.8302 11.7156 56.6601C11.6626 56.49 11.5732 56.3335 11.4535 56.2016H11.4417ZM16.6398 61.4234C16.6704 61.126 16.6212 60.8259 16.4973 60.5539C16.3735 60.2818 16.1795 60.0477 15.9352 59.8754C15.7447 59.7095 15.5209 59.5862 15.2788 59.514C15.0367 59.4418 14.7819 59.4223 14.5317 59.4567C14.0062 59.5503 13.5355 59.8388 13.2137 60.2646C12.4265 61.2229 12.4795 62.302 13.3493 63.0156L13.3906 63.0509C13.5739 63.2068 13.7865 63.3246 14.0158 63.3975C14.2451 63.4704 14.4866 63.4969 14.7263 63.4755C14.8129 63.4638 14.8986 63.4461 14.9828 63.4224C15.3888 63.2917 15.7455 63.0408 16.0059 62.703L16.0619 62.6352C16.081 62.6148 16.0955 62.5906 16.1047 62.5642C16.1138 62.5377 16.1173 62.5097 16.115 62.4819C16.11 62.4472 16.098 62.4139 16.0797 62.384C16.0615 62.3541 16.0374 62.3282 16.0089 62.3079L14.9268 61.4234C14.8767 61.381 14.8125 61.3589 14.7469 61.3615C14.7137 61.3641 14.6815 61.3739 14.6525 61.3902C14.6235 61.4065 14.5984 61.4289 14.5788 61.4558C14.5557 61.4799 14.538 61.5087 14.5269 61.5403C14.5159 61.5718 14.5118 61.6054 14.5148 61.6387C14.5179 61.6719 14.5281 61.7042 14.5448 61.7332C14.5614 61.7622 14.5841 61.7872 14.6113 61.8067L15.4428 62.4878C14.9091 63.0775 14.2869 63.1099 13.6914 62.6205C13.5488 62.5123 13.4318 62.3741 13.3488 62.2156C13.2657 62.0571 13.2186 61.8823 13.2108 61.7035C13.2382 61.3044 13.3901 60.9239 13.645 60.6155C13.8999 60.3072 14.2451 60.0865 14.6319 59.9845C14.8095 59.9567 14.9911 59.9687 15.1634 60.0197C15.3358 60.0707 15.4947 60.1594 15.6285 60.2794C15.7888 60.39 15.9186 60.5394 16.0057 60.7136C16.0928 60.8879 16.1345 61.0813 16.1268 61.2759C16.1165 61.3358 16.1266 61.3974 16.1554 61.4509C16.1843 61.5044 16.2303 61.5466 16.286 61.5708L16.3391 61.5973C16.3726 61.6154 16.4101 61.6249 16.4482 61.6249C16.4863 61.6249 16.5238 61.6154 16.5573 61.5973C16.5861 61.5784 16.6099 61.5526 16.6263 61.5222C16.6428 61.4919 16.6515 61.4579 16.6516 61.4234H16.6398ZM21.8498 63.8824C21.8277 63.819 21.7824 63.7663 21.723 63.735L21.67 63.7055C21.6125 63.6707 21.5436 63.6601 21.4783 63.676C21.4471 63.6866 21.4182 63.7033 21.3934 63.725C21.3686 63.7468 21.3484 63.7732 21.3338 63.8028L20.4316 65.4245C20.2769 65.772 20.0101 66.0575 19.6738 66.2353C19.5307 66.2851 19.3779 66.3004 19.2277 66.2799C19.0776 66.2594 18.9344 66.2037 18.8099 66.1174C18.6712 66.0563 18.5486 65.9637 18.4519 65.847C18.3552 65.7304 18.287 65.5927 18.2527 65.4451C18.2301 65.0647 18.3337 64.6874 18.5475 64.3719L19.4497 62.7531C19.4691 62.7266 19.4826 62.6963 19.4891 62.6641C19.4956 62.6319 19.495 62.5987 19.4875 62.5667C19.4799 62.5348 19.4655 62.5048 19.4452 62.479C19.425 62.4531 19.3994 62.432 19.3701 62.417L19.3171 62.3875C19.2896 62.3686 19.2584 62.356 19.2255 62.3505C19.1926 62.345 19.159 62.3469 19.1269 62.3559C19.0948 62.3649 19.0651 62.3808 19.0399 62.4026C19.0146 62.4244 18.9945 62.4515 18.9809 62.4819L18.0699 64.0977C17.7843 64.5328 17.6631 65.0555 17.7278 65.5719C17.7844 65.7913 17.8888 65.9955 18.0336 66.1699C18.1783 66.3442 18.3599 66.4844 18.5652 66.5803C18.7438 66.695 18.9437 66.7724 19.153 66.8079C19.3622 66.8433 19.5765 66.8361 19.7829 66.7867L19.8625 66.7601C20.3328 66.5449 20.7104 66.1683 20.9269 65.6987L21.8321 64.077C21.8498 64.0482 21.8615 64.0161 21.8665 63.9827C21.8716 63.9493 21.8699 63.9152 21.8616 63.8824H21.8498ZM26.2283 65.8402C26.3429 66.0007 26.4126 66.1889 26.4302 66.3853C26.4479 66.5818 26.4128 66.7793 26.3286 66.9577C26.2591 67.2372 26.0846 67.4792 25.8414 67.6335C25.5982 67.7878 25.3049 67.8425 25.0224 67.7862L25.4322 69.1396C25.4617 69.2487 25.4529 69.3283 25.4027 69.3754C25.3867 69.3917 25.3662 69.403 25.3438 69.4079C25.2845 69.4216 25.2223 69.4153 25.1669 69.3902L25.0696 69.3577C25.0179 69.3405 24.9716 69.3103 24.9349 69.2701C24.8983 69.2298 24.8725 69.1808 24.8602 69.1278L24.4297 67.6535L24.188 67.5739L23.6425 67.3793L23.2651 68.4467C23.2552 68.4782 23.2391 68.5074 23.2179 68.5327C23.1966 68.558 23.1706 68.5789 23.1413 68.5941C23.1112 68.6081 23.0785 68.6153 23.0454 68.6153C23.0123 68.6153 22.9796 68.6081 22.9496 68.5941L22.8906 68.5735C22.8583 68.5645 22.8282 68.5489 22.8022 68.5276C22.7763 68.5062 22.7552 68.4797 22.7403 68.4496C22.7149 68.3883 22.7149 68.3193 22.7403 68.258L23.9079 64.9822C23.9168 64.95 23.9327 64.9202 23.9542 64.8947C23.9757 64.8691 24.0025 64.8485 24.0327 64.8343C24.0629 64.82 24.0958 64.8124 24.1292 64.812C24.1626 64.8116 24.1957 64.8183 24.2263 64.8318L25.0725 65.1267C25.5213 65.2494 25.9262 65.4968 26.2401 65.8402H26.2283ZM24.8809 65.6191L24.3324 65.4245L23.8076 66.9135L24.3531 67.1081C25.1197 67.3793 25.5767 67.4029 25.7949 66.7837C26.0072 66.2235 25.7743 65.9287 24.8927 65.6191H24.8809ZM31.0491 66.6835L28.8053 66.2559C28.7728 66.2462 28.7386 66.2438 28.705 66.2488C28.6715 66.2539 28.6395 66.2663 28.6113 66.2852C28.5831 66.3041 28.5595 66.3289 28.542 66.358C28.5246 66.3871 28.5138 66.4197 28.5104 66.4535V66.483C28.5013 66.5155 28.4992 66.5495 28.5045 66.5829C28.5098 66.6162 28.5223 66.648 28.5411 66.6761C28.5598 66.7041 28.5845 66.7277 28.6133 66.7453C28.6422 66.7629 28.6745 66.774 28.708 66.7778L29.5719 66.94L28.9822 70.086C28.9739 70.1178 28.9722 70.151 28.9773 70.1835C28.9823 70.2159 28.9941 70.247 29.0117 70.2747C29.0313 70.3021 29.0563 70.3251 29.0853 70.3424C29.1142 70.3596 29.1463 70.3707 29.1797 70.375H29.2387C29.2813 70.3855 29.3258 70.3855 29.3685 70.375C29.3905 70.3697 29.4114 70.3608 29.4304 70.3484C29.4832 70.3083 29.5181 70.249 29.5277 70.1833L30.1174 67.0373L30.9783 67.1995C31.0108 67.2098 31.0452 67.2126 31.079 67.2078C31.1127 67.203 31.145 67.1906 31.1733 67.1717C31.2016 67.1527 31.2253 67.1276 31.2426 67.0982C31.2599 67.0688 31.2703 67.0359 31.2732 67.0019V66.9724C31.2815 66.9392 31.2823 66.9046 31.2757 66.871C31.2691 66.8374 31.2552 66.8057 31.2349 66.7781C31.2146 66.7505 31.1885 66.7277 31.1584 66.7114C31.1284 66.695 31.0951 66.6855 31.0609 66.6835H31.0491ZM35.69 67.0284L33.5848 66.9547C33.5515 66.9518 33.5179 66.9555 33.486 66.9657C33.4541 66.9758 33.4246 66.9921 33.399 67.0137C33.3754 67.0371 33.3568 67.0652 33.3446 67.0962C33.3325 67.1271 33.3269 67.1603 33.3283 67.1936L33.228 70.6669C33.2225 70.7341 33.2437 70.8009 33.287 70.8526C33.3104 70.8763 33.3385 70.8948 33.3694 70.907C33.4004 70.9192 33.4336 70.9248 33.4668 70.9234L35.5721 71.0001C35.6033 71.0047 35.6351 71.0047 35.6664 71.0001C35.7149 70.9857 35.7571 70.9555 35.7865 70.9144C35.8159 70.8733 35.8307 70.8235 35.8286 70.773V70.7435C35.832 70.7103 35.8282 70.6767 35.8175 70.645C35.8068 70.6133 35.7893 70.5843 35.7664 70.56C35.7434 70.5356 35.7155 70.5165 35.6845 70.5039C35.6536 70.4913 35.6202 70.4856 35.5868 70.487L33.7912 70.4222L33.8354 69.1838L35.5367 69.2428C35.5697 69.2477 35.6035 69.2451 35.6354 69.2353C35.6673 69.2255 35.6967 69.2087 35.7212 69.186C35.7458 69.1634 35.7651 69.1356 35.7775 69.1046C35.79 69.0736 35.7953 69.0402 35.7932 69.0069V68.9892C35.7971 68.9561 35.7937 68.9225 35.7833 68.8908C35.773 68.8592 35.7558 68.8301 35.7331 68.8057C35.7104 68.7813 35.6826 68.7621 35.6518 68.7495C35.6209 68.7369 35.5877 68.7312 35.5544 68.7327L33.8531 68.6737L33.8944 67.4943L35.69 67.5592C35.7573 67.5647 35.824 67.5435 35.8758 67.5002C35.9214 67.4514 35.9467 67.3871 35.9465 67.3203V67.2909C35.9497 67.2577 35.9458 67.2243 35.9351 67.1928C35.9244 67.1613 35.9072 67.1324 35.8846 67.1081C35.8617 67.0824 35.8335 67.062 35.8019 67.0483C35.7704 67.0345 35.7362 67.0278 35.7018 67.0284H35.69ZM40.5874 66.9076C40.7619 66.9999 40.9085 67.1371 41.0122 67.3051C41.1158 67.473 41.1728 67.6656 41.1771 67.8629C41.2405 68.144 41.1932 68.4387 41.0449 68.6858C40.8967 68.9329 40.6589 69.1133 40.381 69.1897L41.354 70.2158C41.4278 70.3013 41.4543 70.375 41.4307 70.4398C41.4194 70.467 41.4012 70.4908 41.3779 70.5089C41.3547 70.527 41.3272 70.5387 41.298 70.543H41.2273L41.1241 70.5578C41.0695 70.5655 41.0138 70.5592 40.9623 70.5396C40.9107 70.52 40.8649 70.4877 40.8292 70.4457L39.7884 69.3253L39.5407 69.3636L38.951 69.4344L39.125 70.5843C39.1309 70.6169 39.1298 70.6503 39.1219 70.6825C39.114 70.7146 39.0995 70.7447 39.0792 70.7709C39.0589 70.797 39.0333 70.8186 39.0041 70.8342C38.9749 70.8498 38.9428 70.8591 38.9098 70.8615H38.8449C38.779 70.8719 38.7117 70.8572 38.6562 70.8202C38.6058 70.7758 38.575 70.7133 38.5707 70.6462L38.1402 67.1965C38.1338 67.1639 38.1345 67.1303 38.1422 67.0979C38.1499 67.0656 38.1645 67.0353 38.1848 67.009C38.2052 66.9828 38.231 66.9612 38.2604 66.9457C38.2899 66.9303 38.3223 66.9213 38.3554 66.9194L39.24 66.8073C39.6935 66.7121 40.1646 66.7469 40.5992 66.9076H40.5874ZM39.2813 67.3115L38.6916 67.3823L38.8862 68.9509L39.4759 68.8801C40.2837 68.7798 40.7024 68.6 40.6199 67.9454C40.558 67.3557 40.2218 67.1965 39.2931 67.3115H39.2813ZM43.4622 66.0142L43.4032 66.0289C43.3713 66.0349 43.341 66.0476 43.3144 66.0662C43.2877 66.0847 43.2653 66.1087 43.2486 66.1366C43.2319 66.1645 43.2212 66.1955 43.2174 66.2278C43.2136 66.2601 43.2166 66.2928 43.2263 66.3238L44.1109 69.685C44.1172 69.7167 44.1302 69.7467 44.1489 69.773C44.1676 69.7993 44.1917 69.8214 44.2195 69.8378C44.2473 69.8542 44.2783 69.8646 44.3104 69.8682C44.3424 69.8719 44.3749 69.8687 44.4057 69.859H44.4647C44.4958 69.852 44.5251 69.8386 44.5506 69.8195C44.5762 69.8004 44.5975 69.7762 44.613 69.7484C44.6286 69.7206 44.6382 69.6898 44.6411 69.6581C44.6439 69.6263 44.6401 69.5943 44.6298 69.5641L43.7453 66.2029C43.7403 66.1724 43.7293 66.1433 43.7129 66.1172C43.6964 66.0912 43.6749 66.0687 43.6496 66.0511C43.6243 66.0335 43.5957 66.0211 43.5656 66.0148C43.5354 66.0084 43.5043 66.0082 43.474 66.0142H43.4622ZM43.5477 64.5399L43.4976 64.5547C43.4443 64.5699 43.3965 64.5998 43.3594 64.641C43.3224 64.6822 43.2977 64.733 43.2883 64.7876L43.1644 65.3773C43.1519 65.4167 43.1499 65.4586 43.1587 65.499C43.1675 65.5393 43.1868 65.5767 43.2145 65.6073C43.2357 65.6265 43.2617 65.6396 43.2897 65.6453C43.3177 65.651 43.3468 65.6491 43.3738 65.6397C43.4314 65.6258 43.4841 65.5961 43.5257 65.5539C43.5674 65.5117 43.5965 65.4587 43.6096 65.4009L43.7571 64.8112C43.7717 64.7719 43.7758 64.7295 43.7691 64.6882C43.7624 64.6468 43.745 64.6079 43.7187 64.5753C43.6963 64.5541 43.6687 64.5391 43.6387 64.5319C43.6087 64.5247 43.5774 64.5254 43.5477 64.534V64.5399ZM50.4472 67.456C50.4754 67.4811 50.497 67.5128 50.5098 67.5484C50.5227 67.5839 50.5265 67.6221 50.5209 67.6594C50.512 67.6949 50.4941 67.7275 50.4687 67.7539C50.4434 67.7803 50.4115 67.7995 50.3764 67.8098L50.3027 67.8393C50.2496 67.8634 50.1902 67.8701 50.133 67.8584C50.0758 67.8468 50.0238 67.8174 49.9843 67.7744L49.4683 67.2584L47.5754 68.0191V68.7474C47.5768 68.806 47.5595 68.8636 47.5262 68.9118C47.4928 68.96 47.445 68.9964 47.3896 69.0157L47.3218 69.0452H47.2894C47.2592 69.0549 47.2272 69.0581 47.1957 69.0545C47.1642 69.051 47.1338 69.0408 47.1065 69.0246C47.0773 69.0011 47.0542 68.9709 47.0393 68.9364C47.0243 68.902 47.0181 68.8644 47.021 68.827L47.1301 65.0205C47.1312 64.9625 47.1495 64.9061 47.1825 64.8583C47.2155 64.8106 47.2619 64.7737 47.3159 64.7522L47.4191 64.7109C47.4724 64.6852 47.5327 64.6776 47.5907 64.6893C47.6487 64.701 47.7013 64.7314 47.7405 64.7758L50.4472 67.456ZM47.6225 65.392L47.5871 67.4737L49.0909 66.8663L47.6225 65.392ZM54.1269 61.2642C54.1102 61.2352 54.0874 61.2102 54.06 61.1911C54.0325 61.1719 54.0012 61.1591 53.9683 61.1535C53.9353 61.1478 53.9015 61.1495 53.8693 61.1585C53.8371 61.1674 53.8073 61.1834 53.7819 61.2052L53.7318 61.2376C53.6755 61.2752 53.6362 61.3335 53.6227 61.3998C53.6159 61.4658 53.6337 61.5319 53.6728 61.5855L55.6896 64.419C55.7154 64.4617 55.7543 64.4949 55.8006 64.5135C55.8469 64.5321 55.8979 64.5352 55.9461 64.5222C55.9778 64.5123 56.0076 64.4974 56.0346 64.478L56.0847 64.4426C56.1133 64.4256 56.1378 64.4026 56.1567 64.3752C56.1755 64.3477 56.1882 64.3165 56.1938 64.2837C56.1994 64.2509 56.1978 64.2173 56.1891 64.1852C56.1805 64.1531 56.165 64.1232 56.1437 64.0977L54.1269 61.2642ZM57.2729 59.0351L57.9157 58.4454C57.9678 58.4016 58.0006 58.3392 58.0071 58.2714C58.0072 58.2385 58.0007 58.2059 57.988 58.1756C57.9754 58.1452 57.9568 58.1176 57.9334 58.0945L57.9127 58.0739C57.8919 58.0479 57.8659 58.0265 57.8366 58.0108C57.8072 57.9951 57.7749 57.9854 57.7417 57.9825C57.7084 57.9823 57.6753 57.9888 57.6445 58.0014C57.6136 58.0141 57.5855 58.0327 57.5619 58.0562L55.8577 59.616C55.8321 59.637 55.8111 59.663 55.7959 59.6924C55.7807 59.7218 55.7716 59.754 55.7692 59.787C55.769 59.8203 55.7755 59.8534 55.7881 59.8842C55.8008 59.9151 55.8194 59.9432 55.8429 59.9668L55.8635 59.9875C55.8851 60.0129 55.912 60.0334 55.9423 60.0474C55.9726 60.0615 56.0056 60.0687 56.039 60.0687C56.0724 60.0687 56.1054 60.0615 56.1357 60.0474C56.166 60.0334 56.1928 60.0129 56.2144 59.9875L56.8631 59.3978L59.0214 61.7566C59.0494 61.7913 59.0868 61.8173 59.1291 61.8314C59.1714 61.8455 59.2169 61.8472 59.2602 61.8362C59.3019 61.8231 59.3402 61.801 59.3722 61.7713L59.4165 61.73C59.4419 61.7084 59.4624 61.6816 59.4764 61.6513C59.4905 61.621 59.4977 61.588 59.4977 61.5546C59.4977 61.5212 59.4905 61.4882 59.4764 61.4579C59.4624 61.4276 59.4419 61.4007 59.4165 61.3791L57.2729 59.0351ZM63.963 56.6262C63.971 56.6614 63.9703 56.698 63.9611 56.7329C63.9519 56.7679 63.9343 56.8 63.91 56.8267L63.8569 56.8886C63.8202 56.9339 63.771 56.9673 63.7154 56.9846C63.6597 57.0019 63.6002 57.0024 63.5444 56.9859L62.8456 56.7795L61.5541 58.3569L61.8932 58.9997C61.9209 59.0513 61.9326 59.11 61.9269 59.1683C61.9211 59.2266 61.8981 59.2818 61.8608 59.327L61.8136 59.383C61.7816 59.4257 61.7374 59.4575 61.6868 59.4744C61.6653 59.4773 61.6435 59.4773 61.6219 59.4744C61.5847 59.468 61.5497 59.4526 61.5199 59.4295C61.49 59.4063 61.4664 59.3762 61.4509 59.3417L59.7172 55.9539C59.6901 55.9027 59.6788 55.8446 59.6845 55.7869C59.6903 55.7292 59.713 55.6745 59.7497 55.6296L59.8204 55.5411C59.8577 55.4958 59.9076 55.4626 59.9638 55.4458C60.02 55.429 60.0799 55.4294 60.1359 55.4468L63.7979 56.4788C63.8397 56.4874 63.8783 56.5074 63.9095 56.5365C63.9407 56.5657 63.9633 56.6028 63.9748 56.6439L63.963 56.6262ZM60.3364 56.0365L61.3065 57.8793L62.3325 56.6232L60.3364 56.0365ZM66.3955 52.3833C66.3388 52.3468 66.2699 52.3341 66.2039 52.3479C66.1412 52.371 66.0882 52.4147 66.0535 52.4718L65.2722 53.7986L62.5153 52.174C62.488 52.1549 62.4569 52.1419 62.4241 52.136C62.3913 52.1301 62.3576 52.1314 62.3253 52.1398C62.2931 52.1482 62.2631 52.1636 62.2373 52.1847C62.2116 52.2059 62.1907 52.2324 62.1763 52.2624L62.1438 52.3126C62.1073 52.3693 62.0946 52.4382 62.1084 52.5042C62.1292 52.5682 62.1734 52.622 62.2323 52.6546L65.2279 54.4237C65.2565 54.442 65.2885 54.4543 65.3219 54.4598C65.3554 54.4654 65.3896 54.4641 65.4225 54.4561C65.4843 54.4356 65.5359 54.3924 65.567 54.3352L66.5076 52.7401C66.5256 52.7125 66.538 52.6816 66.5441 52.6493C66.5501 52.6169 66.5498 52.5836 66.543 52.5514C66.5333 52.5194 66.5173 52.4896 66.4961 52.4638C66.4748 52.438 66.4487 52.4167 66.4191 52.401L66.3955 52.3833ZM64.5734 48.1847C64.5443 48.1687 64.5122 48.1592 64.4791 48.1566C64.4461 48.1541 64.4129 48.1586 64.3817 48.1699C64.3203 48.1969 64.2717 48.2465 64.2461 48.3085L64.2225 48.3645C64.2065 48.3939 64.1972 48.4263 64.195 48.4597C64.1929 48.493 64.198 48.5264 64.2101 48.5576C64.2221 48.5887 64.2408 48.6168 64.2649 48.64C64.2889 48.6632 64.3177 48.6809 64.3493 48.6918L67.5337 50.0923C67.5881 50.1211 67.6515 50.1274 67.7106 50.11C67.7446 50.0983 67.7757 50.0793 67.8017 50.0544C67.8277 50.0294 67.8479 49.9991 67.8609 49.9656L67.8845 49.9125C67.8975 49.8817 67.9042 49.8486 67.9042 49.8152C67.9042 49.7818 67.8975 49.7487 67.8845 49.7179C67.8716 49.6876 67.8526 49.6602 67.8288 49.6374C67.805 49.6146 67.7768 49.5968 67.7459 49.5852L64.5734 48.1847ZM69.8806 43.7914C69.9026 43.8205 69.9169 43.8547 69.922 43.8908C69.9272 43.9269 69.9231 43.9637 69.9101 43.9978L69.8895 44.0745C69.8735 44.1307 69.8411 44.181 69.7965 44.2188C69.7519 44.2566 69.697 44.2802 69.6389 44.2868L68.9135 44.3723L68.3445 46.3301L68.9076 46.79C68.9553 46.8247 68.9905 46.8739 69.0081 46.9302C69.0256 46.9865 69.0245 47.0469 69.0049 47.1026L68.9843 47.1733C68.977 47.21 68.9605 47.2441 68.9362 47.2725C68.9119 47.3009 68.8808 47.3226 68.8457 47.3355C68.8098 47.3436 68.7725 47.3427 68.737 47.3329C68.7015 47.3232 68.669 47.3048 68.6423 47.2795L65.7174 44.8411C65.6701 44.8061 65.6352 44.7569 65.6177 44.7007C65.6002 44.6445 65.601 44.5842 65.6201 44.5286L65.6496 44.4224C65.6656 44.3662 65.698 44.3159 65.7426 44.2781C65.7872 44.2403 65.8421 44.2167 65.9002 44.2101L69.6949 43.7531C69.7317 43.745 69.77 43.7464 69.8061 43.7572C69.8423 43.7681 69.875 43.788 69.9013 43.815L69.8806 43.7914ZM66.3159 44.676L67.9288 45.991L68.3828 44.4313L66.3159 44.676ZM70.5853 38.0035L67.1356 37.6232C67.1028 37.6167 67.069 37.6175 67.0365 37.6256C67.0041 37.6336 66.9738 37.6488 66.9479 37.6699C66.922 37.691 66.9011 37.7176 66.8866 37.7478C66.8722 37.7779 66.8646 37.8109 66.8643 37.8443V37.9033C66.8584 37.9362 66.8596 37.97 66.8679 38.0023C66.8761 38.0347 66.8913 38.0649 66.9123 38.0909C66.9332 38.117 66.9596 38.1381 66.9894 38.1531C67.0193 38.168 67.0521 38.1763 67.0855 38.1775L69.8836 38.4724L66.7405 40.2149C66.6897 40.2377 66.6464 40.2745 66.6156 40.321C66.5848 40.3674 66.5678 40.4216 66.5666 40.4773V40.6012C66.5616 40.6342 66.5632 40.6678 66.5713 40.7002C66.5794 40.7326 66.5938 40.7631 66.6137 40.7899C66.6351 40.8146 66.6613 40.8347 66.6907 40.8489C66.7201 40.8631 66.7521 40.8711 66.7847 40.8724L70.2404 41.2557C70.2782 41.2648 70.3176 41.2648 70.3554 41.2557C70.3821 41.2477 70.4071 41.2347 70.4291 41.2174C70.479 41.1739 70.5098 41.1125 70.5146 41.0464V40.9845C70.5254 40.9182 70.5095 40.8503 70.4703 40.7958C70.4256 40.7459 70.3632 40.7152 70.2964 40.7103L67.4776 40.4007L70.6296 38.6463C70.68 38.6237 70.723 38.5874 70.7537 38.5415C70.7845 38.4956 70.8017 38.4421 70.8035 38.3869V38.2778C70.8094 38.2451 70.8083 38.2116 70.8002 38.1794C70.7921 38.1472 70.7773 38.1171 70.7566 38.0912C70.7359 38.0652 70.71 38.044 70.6804 38.0289C70.6509 38.0137 70.6185 38.0051 70.5853 38.0035ZM70.6826 31.9385V32.0181C70.6917 32.0783 70.6807 32.1397 70.6514 32.193C70.6221 32.2463 70.5761 32.2884 70.5205 32.313L69.8689 32.6403L69.9986 34.6747L70.6856 34.9165C70.7423 34.9328 70.7923 34.9667 70.8283 35.0134C70.8644 35.06 70.8846 35.117 70.8861 35.176V35.2497C70.8915 35.2866 70.8875 35.3242 70.8747 35.3593C70.8618 35.3943 70.8404 35.4255 70.8124 35.4502C70.7954 35.4646 70.7751 35.4747 70.7534 35.4796C70.7038 35.4969 70.6497 35.4969 70.6001 35.4796L67.0206 34.1853C66.9645 34.1684 66.9151 34.1343 66.8796 34.0877C66.8442 34.041 66.8243 33.9844 66.8231 33.9258V33.8138C66.8137 33.7532 66.8249 33.6913 66.8548 33.6379C66.8847 33.5844 66.9317 33.5425 66.9882 33.5189L70.3789 31.7616C70.4119 31.7435 70.4489 31.7341 70.4866 31.7341C70.5242 31.7341 70.5612 31.7435 70.5942 31.7616C70.6207 31.7825 70.6419 31.8095 70.6557 31.8403C70.6696 31.8711 70.6758 31.9048 70.6738 31.9385H70.6826ZM67.5366 33.802L69.5032 34.489L69.3971 32.8702L67.5366 33.802ZM0.953896 36.0517H0.977484L4.19133 34.9666C4.29048 34.9403 4.378 34.8816 4.43997 34.7999C4.50194 34.7182 4.53481 34.6181 4.53336 34.5155L4.5481 34.2383C4.55792 34.1367 4.53448 34.0346 4.48131 33.9474C4.42814 33.8602 4.34812 33.7926 4.25325 33.7548L1.15144 32.3631C1.09704 32.3339 1.03627 32.3187 0.974535 32.3187C0.912805 32.3187 0.852033 32.3339 0.797626 32.3631C0.747287 32.3991 0.706665 32.4471 0.679394 32.5026C0.652123 32.5582 0.639054 32.6197 0.641356 32.6815V32.8555C0.630517 32.9578 0.655434 33.0607 0.711873 33.1467C0.768311 33.2327 0.852789 33.2965 0.950947 33.3272L3.30974 34.312L0.862493 35.0669C0.762436 35.0874 0.672217 35.141 0.60641 35.2191C0.540604 35.2972 0.503054 35.3952 0.499829 35.4973V35.6713C0.492392 35.7329 0.500046 35.7955 0.522131 35.8535C0.544217 35.9116 0.580073 35.9634 0.626614 36.0045C0.67382 36.0371 0.727935 36.0583 0.784717 36.0665C0.841499 36.0747 0.899404 36.0696 0.953896 36.0517ZM2.19226 26.6312L5.21741 27.5069C5.3009 27.5332 5.39043 27.5332 5.47392 27.5069C5.4987 27.5002 5.52248 27.4903 5.54469 27.4775C5.59262 27.4488 5.63429 27.4108 5.66721 27.3657C5.70014 27.3207 5.72365 27.2694 5.73634 27.215L5.77172 27.0883C5.79082 27.0352 5.79885 26.9788 5.7953 26.9225C5.79175 26.8662 5.7767 26.8112 5.75108 26.761C5.72328 26.7124 5.68554 26.6702 5.64032 26.6371C5.5951 26.6041 5.54343 26.581 5.48867 26.5693L2.47531 25.6848C2.42244 25.6652 2.36613 25.6567 2.30984 25.6597C2.25355 25.6628 2.19849 25.6773 2.14803 25.7025C2.0517 25.7622 1.98283 25.8576 1.95638 25.9678L1.921 26.0946C1.9019 26.1477 1.89387 26.2041 1.89742 26.2604C1.90097 26.3167 1.91602 26.3716 1.94164 26.4219C1.96712 26.4719 2.00246 26.5162 2.04553 26.5522C2.08861 26.5882 2.13852 26.6151 2.19226 26.6312ZM4.66014 20.2949L8.01552 20.7844C8.09129 20.8009 8.16973 20.8009 8.2455 20.7844C8.36634 20.7458 8.46703 20.661 8.52561 20.5485L8.66124 20.3067C8.71739 20.2205 8.74324 20.1181 8.7347 20.0156C8.72615 19.9131 8.68371 19.8163 8.61406 19.7406L6.48231 17.1047C6.44971 17.0505 6.404 17.0053 6.34939 16.9734C6.29478 16.9414 6.23301 16.9237 6.16977 16.9219C6.10625 16.9293 6.04574 16.9531 5.99408 16.9908C5.94243 17.0285 5.90138 17.0789 5.87492 17.1371L5.78941 17.2875C5.73315 17.3734 5.70829 17.476 5.71904 17.5781C5.72978 17.6802 5.77548 17.7754 5.84838 17.8477L7.51428 19.7937L4.99627 19.3691C4.89709 19.3444 4.79244 19.3543 4.69966 19.3972C4.60688 19.4401 4.53156 19.5134 4.48618 19.605L4.40068 19.7554C4.36202 19.8044 4.3379 19.8632 4.33106 19.9252C4.32421 19.9872 4.33492 20.0499 4.36196 20.1062C4.389 20.1624 4.43128 20.2099 4.484 20.2433C4.53672 20.2767 4.59775 20.2946 4.66014 20.2949ZM14.1248 13.2864C14.1676 13.2501 14.2021 13.205 14.2257 13.1541C14.2493 13.1031 14.2615 13.0477 14.2615 12.9915C14.2615 12.9354 14.2493 12.88 14.2257 12.829C14.2021 12.7781 14.1676 12.733 14.1248 12.6967L14.0982 12.6702C14.0623 12.6269 14.0172 12.592 13.9663 12.5681C13.9153 12.5442 13.8597 12.5318 13.8034 12.5318C13.7471 12.5318 13.6915 12.5442 13.6405 12.5681C13.5896 12.592 13.5445 12.6269 13.5085 12.6702L12.5886 13.596L12.0726 13.0888L12.9071 12.2367C12.9491 12.1995 12.9833 12.1542 13.0076 12.1036C13.0319 12.053 13.0458 11.998 13.0486 11.9419C13.0465 11.8902 13.034 11.8395 13.0117 11.7929C12.9894 11.7462 12.9578 11.7046 12.9189 11.6706C12.8843 11.633 12.8424 11.6029 12.7957 11.5821C12.7491 11.5613 12.6987 11.5503 12.6476 11.5497C12.5912 11.5537 12.5361 11.5688 12.4855 11.5941C12.4349 11.6194 12.3898 11.6544 12.3527 11.6972L11.5183 12.5493L11.0171 12.0569L11.9193 11.1369C11.9626 11.101 11.9975 11.0559 12.0214 11.005C12.0453 10.954 12.0577 10.8984 12.0577 10.8421C12.0577 10.7858 12.0453 10.7302 12.0214 10.6792C11.9975 10.6283 11.9626 10.5832 11.9193 10.5472L11.8898 10.5178C11.8542 10.474 11.8092 10.4387 11.7582 10.4145C11.7072 10.3903 11.6514 10.3777 11.595 10.3777C11.5385 10.3777 11.4828 10.3903 11.4318 10.4145C11.3808 10.4387 11.3358 10.474 11.3001 10.5178L10.0146 11.8298C9.97324 11.8673 9.9399 11.9127 9.91658 11.9634C9.89327 12.0141 9.88047 12.0689 9.87896 12.1247C9.88069 12.181 9.89418 12.2363 9.91855 12.2871C9.94292 12.3379 9.97765 12.383 10.0205 12.4195L12.2613 14.6162C12.3077 14.6709 12.3685 14.7115 12.4367 14.7334C12.505 14.7552 12.5781 14.7575 12.6476 14.74C12.7252 14.7145 12.7952 14.6699 12.851 14.6103L14.1248 13.2864ZM20.5879 8.52754C20.5057 8.58072 20.41 8.60901 20.3122 8.60901C20.2143 8.60901 20.1186 8.58072 20.0365 8.52754L19.09 7.99976L18.9662 8.07347L18.6389 8.26807L19.0547 8.96096C19.0859 9.0077 19.1074 9.06021 19.1181 9.1154C19.1287 9.17059 19.1282 9.22736 19.1166 9.28235C19.1014 9.33613 19.0752 9.38617 19.0397 9.42931C19.0041 9.47245 18.96 9.50774 18.9102 9.53297L18.7893 9.60373C18.7501 9.62936 18.7074 9.64921 18.6625 9.6627C18.5996 9.6788 18.5337 9.6788 18.4709 9.6627C18.362 9.62922 18.2708 9.55394 18.2173 9.45336L16.6104 6.75844C16.5771 6.71296 16.5543 6.6607 16.5436 6.60541C16.5329 6.55011 16.5345 6.49313 16.5483 6.43851C16.5621 6.3839 16.5877 6.333 16.6234 6.28943C16.6591 6.24586 16.704 6.2107 16.7548 6.18644L17.5716 5.69994C18.6242 5.07191 19.2817 5.15447 19.7682 5.9712C19.9113 6.17445 19.9882 6.41697 19.9882 6.66557C19.9882 6.91416 19.9113 7.15668 19.7682 7.35994L20.7058 7.84938C20.8739 7.93784 20.9564 8.03219 20.9594 8.14423C20.9623 8.25627 20.8827 8.35358 20.7176 8.45382L20.5879 8.52754ZM18.9603 6.51667C18.9262 6.43934 18.8733 6.37181 18.8063 6.32029C18.7393 6.26877 18.6605 6.23491 18.577 6.22182C18.3648 6.23062 18.1598 6.30134 17.9873 6.42526L17.663 6.61986L18.2527 7.60761L18.577 7.41301C19.0753 7.11521 19.1755 6.87933 18.9603 6.51667ZM26.9212 1.79909L25.1521 2.28559C25.0965 2.29599 25.0437 2.31823 24.9975 2.35078C24.9512 2.38334 24.9124 2.42546 24.8838 2.47429C24.8583 2.524 24.843 2.57833 24.839 2.63406C24.8349 2.68978 24.8422 2.74576 24.8602 2.79863L25.6858 5.82672C25.6972 5.88197 25.7199 5.93428 25.7524 5.98043C25.7848 6.02658 25.8264 6.06558 25.8745 6.09503C25.9749 6.14629 26.0915 6.15582 26.1988 6.12157L27.9679 5.63507C28.074 5.60985 28.166 5.54427 28.2244 5.45226C28.2499 5.40201 28.2651 5.34718 28.2691 5.29099C28.2732 5.23481 28.266 5.17837 28.248 5.12498V5.0896C28.2381 5.03408 28.2162 4.98141 28.1837 4.93527C28.1513 4.88914 28.1091 4.85068 28.0602 4.82257C28.0114 4.79447 27.9569 4.77742 27.9007 4.77261C27.8445 4.76781 27.788 4.77536 27.735 4.79475L26.4996 5.12793L26.302 4.41735L27.4549 4.10186C27.5628 4.07559 27.6567 4.00916 27.7173 3.9161C27.7406 3.87097 27.7546 3.82166 27.7587 3.77105C27.7627 3.72043 27.7567 3.66951 27.7409 3.62126C27.7294 3.56815 27.7065 3.51821 27.6736 3.47494C27.6408 3.43167 27.5988 3.39614 27.5508 3.37083C27.5027 3.34553 27.4497 3.33108 27.3954 3.3285C27.3411 3.32592 27.287 3.33527 27.2367 3.35589L26.0956 3.65369L25.9128 2.97554L27.1541 2.63351C27.2071 2.62111 27.257 2.59831 27.3011 2.56641C27.3451 2.53452 27.3824 2.49419 27.4107 2.44776C27.4362 2.39806 27.4514 2.34372 27.4555 2.28799C27.4595 2.23227 27.4523 2.1763 27.4342 2.12342V2.08215C27.4252 2.02648 27.4039 1.97352 27.3719 1.92709C27.3399 1.88067 27.298 1.84195 27.2491 1.81373C27.2003 1.7855 27.1458 1.76849 27.0896 1.76392C27.0334 1.75935 26.9769 1.76734 26.9242 1.7873L26.9212 1.79909ZM43.1379 2.5539C43.1207 2.72999 43.0511 2.89689 42.9381 3.03302C42.8251 3.16915 42.6739 3.26827 42.504 3.31756C42.6766 3.41 42.8137 3.55714 42.8938 3.7359C42.9738 3.91466 42.9923 4.11493 42.9462 4.3053C42.9234 4.49604 42.8433 4.67538 42.7164 4.81962C42.5896 4.96386 42.4219 5.06622 42.2356 5.11319C41.8337 5.20302 41.4169 5.20302 41.015 5.11319L40.0125 4.93333C39.9558 4.92989 39.9007 4.91371 39.8511 4.886C39.8016 4.8583 39.759 4.81977 39.7264 4.7733C39.6938 4.72683 39.6721 4.6736 39.6629 4.61759C39.6538 4.56158 39.6573 4.50422 39.6734 4.44978L40.2189 1.35977C40.2237 1.30199 40.2406 1.24587 40.2686 1.19507C40.2965 1.14427 40.3348 1.09992 40.381 1.06492C40.4296 1.03045 40.485 1.00682 40.5435 0.995625C40.602 0.984434 40.6623 0.985943 40.7201 1.00005L41.6607 1.17696C42.8077 1.37746 43.2824 1.81383 43.1556 2.54211L43.1379 2.5539ZM41.8995 3.68612C41.7247 3.56592 41.5213 3.49373 41.3098 3.47678L40.8204 3.39127L40.67 4.22864L41.1536 4.31415C41.814 4.43209 41.9378 4.24633 41.9762 4.0193C41.9983 3.96182 42.0045 3.89942 41.9942 3.8387C41.9838 3.77798 41.9572 3.72119 41.9172 3.67433L41.8995 3.68612ZM41.9349 2.77209C41.9922 2.74614 42.0412 2.70488 42.0766 2.65286C42.112 2.60084 42.1323 2.54007 42.1354 2.47724C42.1531 2.42666 42.1567 2.37221 42.1458 2.31974C42.1349 2.26727 42.1099 2.21877 42.0735 2.17945C41.9072 2.07163 41.7167 2.00679 41.5192 1.99074L41.1093 1.91703L40.9707 2.70428L41.3894 2.78094C41.5746 2.82962 41.7696 2.82553 41.9526 2.76914L41.9349 2.77209ZM49.601 7.92604C49.6919 7.97269 49.7965 7.98524 49.8958 7.96143H49.9194C49.9712 7.93975 50.0183 7.908 50.0577 7.86802C50.0972 7.82803 50.1284 7.78061 50.1494 7.7285L50.1641 7.69311C50.1931 7.64451 50.2108 7.59006 50.216 7.53374C50.2212 7.47741 50.2138 7.42063 50.1943 7.36753C50.1749 7.31443 50.1438 7.26634 50.1033 7.22677C50.0629 7.1872 50.0142 7.15715 49.9607 7.1388L48.7813 6.59923L49.0761 5.92992L50.1582 6.42821C50.2054 6.45414 50.2574 6.47007 50.311 6.47501C50.3646 6.47996 50.4187 6.47382 50.4698 6.45697C50.5209 6.44011 50.5681 6.41291 50.6082 6.37706C50.6484 6.34121 50.6807 6.29747 50.7032 6.24858C50.7258 6.19968 50.738 6.14667 50.7391 6.09285C50.7403 6.03902 50.7303 5.98554 50.7099 5.93573C50.6895 5.88592 50.659 5.84085 50.6204 5.80333C50.5818 5.76581 50.5359 5.73663 50.4855 5.71763L49.4034 5.21933L49.6983 4.57951L50.8777 5.11909C50.9261 5.14858 50.9806 5.16676 51.0371 5.17228C51.0936 5.17779 51.1506 5.17051 51.2038 5.15096C51.2571 5.13141 51.3053 5.1001 51.3448 5.05935C51.3843 5.01861 51.4141 4.96949 51.432 4.91564L51.4497 4.87731C51.4786 4.82893 51.4963 4.77469 51.5015 4.71856C51.5068 4.66243 51.4993 4.60585 51.4798 4.55296C51.4603 4.50008 51.4292 4.45224 51.3888 4.41295C51.3484 4.37367 51.2996 4.34394 51.2462 4.32594L49.5774 3.55639C49.5282 3.52957 49.474 3.51312 49.4183 3.50805C49.3625 3.50298 49.3063 3.50939 49.253 3.5269C49.2012 3.54858 49.1542 3.58033 49.1147 3.62031C49.0752 3.6603 49.0441 3.70772 49.0231 3.75983L47.7582 6.60217C47.7292 6.65078 47.7115 6.70523 47.7063 6.76155C47.701 6.81788 47.7085 6.87466 47.7279 6.92776C47.7474 6.98086 47.7785 7.02895 47.8189 7.06852C47.8594 7.10808 47.9081 7.13814 47.9616 7.15649L49.601 7.92604ZM54.749 11.1458C54.7885 11.1866 54.8366 11.2181 54.8898 11.2379C54.943 11.2577 55 11.2653 55.0566 11.2602C55.1131 11.2551 55.1678 11.2375 55.2166 11.2085C55.2655 11.1795 55.3072 11.1399 55.3387 11.0927L56.5977 9.5772L56.3029 12.1011C56.287 12.196 56.297 12.2935 56.3318 12.3832C56.3665 12.4729 56.4248 12.5517 56.5004 12.6112L56.6419 12.7262C56.6899 12.7727 56.7488 12.8066 56.8131 12.8246C56.8775 12.8426 56.9453 12.8443 57.0105 12.8294C57.0966 12.7991 57.1723 12.7449 57.2287 12.6731L59.2366 10.2612C59.3115 10.1817 59.3518 10.0756 59.3487 9.9664C59.343 9.90852 59.3253 9.85245 59.2969 9.80171C59.2685 9.75096 59.2299 9.70665 59.1835 9.67155L59.0833 9.58899C59.0436 9.54867 58.9954 9.51765 58.9422 9.49816C58.8891 9.47867 58.8323 9.47119 58.7759 9.47626C58.7195 9.48134 58.665 9.49884 58.6162 9.5275C58.5673 9.55617 58.5255 9.59529 58.4936 9.64206L57.2405 11.1517L57.5353 8.63958C57.5521 8.5439 57.5422 8.44547 57.5069 8.35501C57.4715 8.26455 57.412 8.18552 57.3348 8.12654L57.1904 8.00565C57.11 7.93209 57.0045 7.89201 56.8955 7.89361C56.8376 7.89931 56.7816 7.91692 56.7308 7.94534C56.6801 7.97375 56.6358 8.01236 56.6007 8.05873L54.5928 10.4735C54.5521 10.5132 54.5208 10.5615 54.5012 10.6148C54.4817 10.6682 54.4743 10.7252 54.4797 10.7818C54.4851 10.8384 54.503 10.893 54.5323 10.9417C54.5616 10.9904 54.6014 11.0319 54.6488 11.0632L54.749 11.1458ZM60.6489 16.9012C60.6416 16.9566 60.6457 17.0129 60.6609 17.0666C60.6761 17.1204 60.7021 17.1705 60.7374 17.2138L61.793 18.7175C61.8331 18.7909 61.8969 18.8486 61.974 18.8813C62.051 18.9139 62.1369 18.9196 62.2175 18.8974C62.2734 18.8803 62.3261 18.8544 62.3738 18.8207L62.4062 18.7971C62.4569 18.7696 62.5006 18.731 62.5341 18.6841C62.5676 18.6373 62.59 18.5834 62.5997 18.5266C62.6093 18.4698 62.606 18.4116 62.5898 18.3563C62.5737 18.301 62.5452 18.2501 62.5065 18.2074L61.7664 17.1519L62.3709 16.7273L63.0579 17.7032C63.085 17.7504 63.1217 17.7915 63.1655 17.8237C63.2094 17.856 63.2595 17.8787 63.3126 17.8906C63.3658 17.9024 63.4208 17.903 63.4742 17.8924C63.5276 17.8818 63.5782 17.8602 63.6228 17.829C63.6674 17.7977 63.705 17.7576 63.7332 17.711C63.7614 17.6644 63.7796 17.6125 63.7867 17.5585C63.7937 17.5045 63.7895 17.4497 63.7741 17.3974C63.7588 17.3452 63.7328 17.2967 63.6977 17.2551L63.0077 16.288L63.5974 15.884L64.3375 16.9396C64.3675 16.9869 64.4067 17.0278 64.4528 17.0597C64.4989 17.0916 64.5509 17.1139 64.6058 17.1253C64.6615 17.1338 64.7183 17.1306 64.7726 17.1159C64.8269 17.1012 64.8776 17.0753 64.9213 17.0398L64.9537 17.0162C65.0039 16.9883 65.0472 16.9495 65.0804 16.9026C65.1135 16.8558 65.1358 16.802 65.1454 16.7454C65.155 16.6888 65.1518 16.6308 65.136 16.5756C65.1202 16.5204 65.0921 16.4694 65.054 16.4265L63.9984 14.9228C63.9693 14.875 63.9307 14.8336 63.8851 14.8012C63.8395 14.7687 63.7878 14.7459 63.7331 14.7341C63.6772 14.7267 63.6205 14.7307 63.5662 14.7459C63.512 14.7611 63.4614 14.7872 63.4176 14.8226L60.8465 16.627C60.7965 16.6568 60.7532 16.6965 60.7193 16.7436C60.6853 16.7908 60.6613 16.8444 60.6489 16.9012ZM22.6636 41.1437V41.1172C22.1708 39.379 22.0087 37.5637 22.1859 35.7656C22.1923 35.6856 22.2149 35.6077 22.2524 35.5367C22.29 35.4658 22.3416 35.4032 22.4041 35.3529C22.5299 35.2504 22.6909 35.2017 22.8523 35.2172C23.012 35.2329 23.1591 35.3112 23.2613 35.4349C23.3635 35.5587 23.4126 35.7179 23.3978 35.8777C23.2328 37.5701 23.3929 39.2785 23.8695 40.9108C23.9344 41.1348 24.0111 41.3678 24.1084 41.6449C24.1133 41.6529 24.116 41.6621 24.116 41.6715C24.116 41.6809 24.1133 41.69 24.1084 41.698C24.1006 41.7074 24.0904 41.7145 24.0789 41.7186H24.0612C23.539 41.7126 23.0389 41.5069 22.6636 41.1437ZM51.028 33.0029C51.7581 35.5099 51.7988 38.1673 51.146 40.6955C51.1385 40.7532 51.1236 40.8097 51.1017 40.8636C50.6385 42.5772 49.8682 44.1926 48.8285 45.6313C48.8204 45.648 48.8105 45.6639 48.799 45.6785C47.8604 46.968 46.7193 48.0971 45.42 49.022L45.5881 50.2928C45.608 50.4367 45.5754 50.5829 45.4964 50.7047C45.4173 50.8265 45.2971 50.9158 45.1576 50.9562L36.7898 53.3887C36.6555 53.4292 36.5114 53.4219 36.3819 53.3682C36.2523 53.3144 36.1454 53.2175 36.0792 53.0939L35.3568 51.714C33.9614 51.5765 32.5924 51.242 31.2909 50.7204L31.2289 50.6879C28.0808 49.4041 25.4756 47.0677 23.8577 44.0774V44.0244C24.0501 43.6686 24.3449 43.3789 24.7039 43.1929C24.7108 43.1893 24.7184 43.1874 24.7261 43.1874C24.7338 43.1874 24.7414 43.1893 24.7482 43.1929C24.7552 43.1947 24.7617 43.198 24.7673 43.2026C24.7729 43.2072 24.7774 43.2129 24.7806 43.2194C25.7494 45.1119 27.1513 46.7488 28.8723 47.9969C30.5934 49.245 32.5848 50.069 34.6846 50.4019C34.1597 49.426 29.967 41.586 28.7876 39.4424L28.7139 39.3097C28.419 38.8055 27.5581 37.2694 27.3487 35.6359C27.2923 35.1822 27.2755 34.7244 27.2986 34.2678C26.7699 34.2814 26.2466 34.1575 25.7801 33.9081C25.1228 33.548 24.6241 32.9548 24.3823 32.2454C24.1405 31.5359 24.1732 30.7616 24.474 30.0751C24.1188 29.9864 23.7448 30.0101 23.4037 30.1429C23.3237 30.1727 23.2385 30.1857 23.1532 30.1811C23.068 30.1766 22.9847 30.1545 22.9083 30.1163C22.8366 30.0769 22.7735 30.0234 22.7228 29.9591C22.6722 29.8948 22.635 29.8209 22.6135 29.7419C22.5762 29.5884 22.5976 29.4266 22.6734 29.2881C22.7492 29.1496 22.874 29.0443 23.0233 28.993C23.7401 28.7296 24.5298 28.7464 25.2347 29.0402C25.4713 28.8274 25.7399 28.6532 26.0308 28.5242C25.835 27.8084 25.7613 27.0648 25.8126 26.3246V26.2922C25.8126 26.2538 25.8951 25.6523 25.9128 25.5639V25.5403C26.2372 23.9422 27.1954 22.4739 28.7581 21.1795C32.886 17.7651 31.4855 15.8545 31.4118 15.7749C31.3294 15.654 31.2929 15.5077 31.3089 15.3622C31.325 15.2168 31.3925 15.0819 31.4993 14.9819C31.606 14.8819 31.7451 14.8233 31.8912 14.8168C32.0374 14.8103 32.181 14.8563 32.2963 14.9464L35.2448 17.6443L40.7526 22.6567C40.8646 22.7589 40.9707 22.8572 41.071 22.9515C41.2267 23.1127 41.4188 23.234 41.6312 23.3053L41.7108 23.3289C46.2662 24.7501 49.6511 28.2676 51.028 33.0029ZM27.2102 28.2618C28.0518 28.2722 28.8564 28.6095 29.454 29.2023C29.5601 29.0814 29.8874 28.7188 30.0908 28.5212L30.1144 28.5006C30.1498 28.4652 33.7499 25.2219 33.8767 21.2797C33.9132 19.954 33.5517 18.6476 32.8388 17.5293C32.544 19.0035 31.4324 20.5397 29.5336 22.1112C28.1124 23.2906 27.2986 24.6027 27.0627 26.015C26.9447 26.7656 26.9951 27.533 27.2102 28.2618ZM27.4608 33.053C27.6879 32.0287 28.1082 31.057 28.6991 30.1901L28.6461 30.1252C28.6225 30.0987 28.6018 30.0721 28.5783 30.0485L28.5104 29.9778L28.4898 29.9571L28.4308 29.9041L28.3571 29.848L28.3306 29.8274L28.2834 29.7891C28.1818 29.7189 28.0731 29.6596 27.9591 29.6122C27.5454 29.4378 27.0818 29.4224 26.6574 29.5687C26.233 29.7151 25.8776 30.013 25.6593 30.4053C25.5451 30.6121 25.473 30.8393 25.4471 31.0741C25.4212 31.3088 25.442 31.5464 25.5083 31.7731C25.5746 31.9997 25.6852 32.211 25.8335 32.3948C25.9819 32.5785 26.1652 32.7311 26.3728 32.8437L26.5143 32.9115L26.5703 32.9351L26.65 32.9646C26.9103 33.0542 27.1873 33.0844 27.4608 33.053ZM36.9844 28.1055C36.551 29.3409 36.1234 30.2874 34.3042 32.0093L34.1421 32.1685C30.6039 35.8688 31.1375 39.0001 31.8452 40.4243C31.8648 40.4703 31.8984 40.5091 31.9413 40.535C31.9842 40.5609 32.0341 40.5727 32.084 40.5687C32.1252 40.5639 32.1643 40.5479 32.1971 40.5224C32.2298 40.497 32.255 40.463 32.2698 40.4243C33.6614 36.833 36.5569 34.1941 37.8542 32.9469C38.3112 32.5046 39.3697 31.5935 39.3963 31.5641C40.9413 30.019 41.2066 29.164 41.2892 29.0018C40.9137 27.4939 40.7158 25.9472 40.6995 24.3933C39.3051 22.899 37.8286 21.4835 36.2768 20.1534C36.2642 20.1374 36.2459 20.127 36.2257 20.1245C36.2055 20.122 36.1852 20.1276 36.1691 20.1401C36.1531 20.1527 36.1427 20.171 36.1402 20.1912C36.1377 20.2114 36.1434 20.2317 36.1559 20.2478C36.7596 21.4307 37.165 22.7046 37.3559 24.0189C37.3621 24.063 37.3593 24.1079 37.3477 24.1508C37.336 24.1938 37.3159 24.234 37.2883 24.269C37.2608 24.304 37.2264 24.333 37.1874 24.3544C37.1483 24.3757 37.1054 24.389 37.0611 24.3933C36.9732 24.4052 36.8841 24.3819 36.8134 24.3285C36.7782 24.3027 36.7486 24.2701 36.7263 24.2326C36.704 24.1951 36.6895 24.1535 36.6836 24.1103C36.4408 22.595 35.9157 21.1388 35.1357 19.8173C35.1269 19.801 35.1125 19.7884 35.0951 19.7819C35.0778 19.7754 35.0587 19.7754 35.0413 19.7819C35.0238 19.7884 35.0089 19.8007 34.9993 19.8168C34.9896 19.8329 34.9858 19.8518 34.9883 19.8704C35.065 20.3489 35.0947 20.8338 35.0767 21.3181C34.9322 25.6759 31.3292 29.0254 30.9164 29.391C26.5438 33.7282 29.6898 38.5461 29.7753 38.6699C29.7953 38.7052 29.8263 38.7329 29.8637 38.7486C29.9011 38.7643 29.9426 38.7672 29.9818 38.7567C30.0209 38.7462 30.0555 38.7231 30.08 38.6908C30.1046 38.6585 30.1177 38.619 30.1174 38.5785C30.1469 36.8094 30.9017 34.3179 33.8472 31.5316C35.5691 29.8982 35.9465 29.0578 36.3623 27.8696C36.376 27.828 36.398 27.7897 36.4269 27.7567C36.4557 27.7238 36.4909 27.697 36.5303 27.678L36.5834 27.6573C36.6639 27.636 36.7494 27.6433 36.8252 27.678C36.8988 27.7181 36.9554 27.7834 36.9846 27.862C37.0139 27.9405 37.0138 28.027 36.9844 28.1055ZM43.0258 41.2882C42.856 41.222 42.6897 41.1472 42.5275 41.0641C41.9923 40.8043 41.4828 40.4943 41.0061 40.1383C39.7359 39.1924 38.6824 37.9861 37.9161 36.6001C37.8761 36.5189 37.8552 36.4296 37.8552 36.3391C37.8552 36.2486 37.8761 36.1593 37.9161 36.0782C37.9395 35.9916 37.9818 35.9113 38.0399 35.843C38.098 35.7746 38.1705 35.72 38.2522 35.6831C39.7299 35.0795 41.3185 34.7951 42.9138 34.8487C43.2028 34.8605 43.4917 34.8841 43.7807 34.9194C42.943 33.5826 42.2707 32.1489 41.7786 30.65C41.2351 31.4356 40.5919 32.1472 39.8651 32.767C39.9093 32.714 32.8624 38.2188 32.8447 44.0037L36.9343 51.6698L44.1227 49.5793L43.0258 41.2882ZM49.6511 41.4385L49.4064 41.5122C47.7985 42.0091 46.0902 42.0862 44.4441 41.7363L45.2343 47.6539C47.2714 46.0479 48.8045 43.8906 49.6511 41.4385ZM49.3562 39.7756C47.7346 37.3991 45.5497 36.146 42.8696 36.0487C41.6695 36.0155 40.4726 36.189 39.3314 36.5617C39.9876 37.5727 40.8159 38.4608 41.7786 39.1859C43.9546 40.7869 46.4726 41.1643 49.2737 40.2827C47.655 39.6724 44.3232 38.4429 42.9315 37.9239L42.846 37.8915C42.4126 37.7323 42.4008 37.6969 42.4214 37.6379C42.442 37.579 42.4656 37.5642 42.7162 37.6379C44.9731 38.2074 47.191 38.9214 49.3562 39.7756ZM50.3646 37.8591C50.4872 35.7875 50.1246 33.7159 49.3056 31.8092C48.4866 29.9025 47.2339 28.2133 45.647 26.876C45.6388 26.8702 45.6326 26.8619 45.6294 26.8524C45.5527 26.7846 45.2549 26.5339 44.7949 26.2096L44.674 26.1241C43.9108 25.5906 43.0947 25.1371 42.2386 24.7707L42.1266 24.7265C42.0616 24.6971 41.9946 24.6725 41.9261 24.6528C41.9261 24.7177 41.9261 24.7914 41.9261 24.8651C41.9943 26.5664 42.2847 28.2515 42.79 29.8775C43.3806 31.8171 44.2904 33.6446 45.4819 35.285C46.6707 35.6773 47.7636 36.3152 48.6899 37.1573C49.1898 37.612 49.645 38.1136 50.0491 38.6552C49.3356 36.3465 47.6668 32.7346 46.7056 30.7296C46.5021 30.3051 46.5168 30.2756 46.5729 30.2461C46.6289 30.2166 46.6525 30.2019 46.8854 30.5911C48.8845 33.9317 49.8752 36.3494 50.3646 37.8561V37.8591ZM23.7752 42.5737C23.3678 42.6035 22.9606 42.5146 22.6027 42.3179C22.2448 42.1211 21.9516 41.8249 21.7584 41.4651C21.7531 41.4561 21.7451 41.449 21.7356 41.4448C21.7261 41.4406 21.7155 41.4394 21.7053 41.4415C21.6946 41.4443 21.6854 41.451 21.6794 41.4602C21.6734 41.4695 21.6711 41.4807 21.6729 41.4916C21.6984 41.916 21.5956 42.3382 21.3781 42.7034C21.1828 43.0441 20.8957 43.3231 20.5495 43.5084C20.5382 43.5119 20.5287 43.5198 20.5232 43.5303C20.5177 43.5408 20.5165 43.5531 20.52 43.5644C20.5236 43.5757 20.5314 43.5852 20.542 43.5907C20.5525 43.5963 20.5647 43.5974 20.5761 43.5939C20.9862 43.5616 21.3969 43.6489 21.7585 43.8451C22.12 44.0413 22.417 44.3381 22.6135 44.6996C22.6174 44.7097 22.6252 44.7179 22.6352 44.7223C22.6451 44.7267 22.6564 44.727 22.6665 44.7231C22.6766 44.7194 22.6852 44.7125 22.691 44.7034C22.6969 44.6944 22.6997 44.6838 22.699 44.673C22.6697 44.2675 22.7571 43.8621 22.951 43.5047C23.1448 43.1473 23.437 42.8529 23.7929 42.6563C23.8011 42.6516 23.8076 42.6445 23.8115 42.6359C23.8153 42.6273 23.8163 42.6177 23.8144 42.6085C23.8124 42.5993 23.8075 42.5909 23.8005 42.5847C23.7934 42.5784 23.7846 42.5746 23.7752 42.5737ZM42.2917 20.8611C42.6427 20.8366 42.9934 20.9137 43.3019 21.0831C43.6103 21.2524 43.8635 21.507 44.0313 21.8164C44.0352 21.825 44.0422 21.832 44.0509 21.8358C44.0596 21.8396 44.0694 21.84 44.0785 21.837C44.0873 21.8344 44.0949 21.8289 44.1003 21.8214C44.1056 21.8139 44.1083 21.8049 44.1079 21.7957C44.0804 21.4307 44.1637 21.0659 44.3468 20.749C44.5157 20.4553 44.764 20.2151 45.0632 20.0561C45.073 20.053 45.0812 20.0461 45.0859 20.037C45.0906 20.0279 45.0914 20.0172 45.0883 20.0075C45.0852 19.9977 45.0783 19.9896 45.0692 19.9849C45.0601 19.9802 45.0494 19.9793 45.0397 19.9824C44.6883 20.0062 44.3376 19.9285 44.0292 19.7587C43.7208 19.5888 43.4677 19.3338 43.3001 19.0241C43.2962 19.0162 43.2895 19.01 43.2814 19.0067C43.2732 19.0035 43.2641 19.0034 43.2558 19.0065C43.2511 19.0072 43.2467 19.0088 43.2426 19.0113C43.2386 19.0138 43.2351 19.017 43.2324 19.0209C43.2296 19.0247 43.2277 19.0291 43.2266 19.0337C43.2256 19.0383 43.2255 19.0431 43.2263 19.0477C43.2512 19.3988 43.1742 19.7497 43.0048 20.0582C42.8354 20.3667 42.5806 20.6199 42.271 20.7873C42.264 20.7918 42.2586 20.7984 42.2556 20.8062C42.2527 20.814 42.2523 20.8225 42.2547 20.8305C42.257 20.8385 42.2619 20.8455 42.2685 20.8505C42.2752 20.8555 42.2833 20.8581 42.2917 20.8581V20.8611Z" fill="url(#paint0_linear_46_652)"/>
<defs>
<linearGradient id="paint0_linear_46_652" x1="6.97196" y1="15.6082" x2="64.4782" y2="56.0675" gradientUnits="userSpaceOnUse">
<stop stop-color="#78582A"/>
<stop offset="0.21" stop-color="#E5D379"/>
<stop offset="0.36" stop-color="#9B8039"/>
<stop offset="0.49" stop-color="#9B8039"/>
<stop offset="0.65" stop-color="#E5D379"/>
<stop offset="0.83" stop-color="#9B8039"/>
<stop offset="1" stop-color="#E5D379"/>
</linearGradient>
</defs>
</svg>
