<svg width="142" height="51" viewBox="0 0 142 51" fill="none" xmlns="http://www.w3.org/2000/svg">
<path d="M24.5766 10.2447C22.9872 10.5374 21.8471 12.2718 22.0736 14.1416C22.2435 15.5614 23.3081 16.3847 24.5275 16.1651C25.3691 15.9828 26.1088 15.4995 26.5987 14.8116C27.0886 14.1238 27.2927 13.2821 27.1702 12.4548C27.0154 11.2509 26.2 9.95195 24.5766 10.2447Z" fill="#278067"/>
<path d="M35.5247 14.2294C34.0977 14.4307 33.2596 16.1212 33.3577 17.2116C33.4031 17.6287 33.5843 17.7678 33.7919 17.7824C34.8376 17.8885 35.5134 19.246 35.6795 21.1158C36.0231 24.5151 34.1354 28.5402 32.5687 28.7743C31.8552 28.8768 31.27 27.7717 31.0586 25.5982C30.9108 23.7351 31.0379 21.8611 31.4361 20.0327C31.6379 19.272 31.7243 18.4868 31.6929 17.7019C31.5645 16.3224 30.598 15.5686 29.4277 15.7333C27.4004 16.026 26.785 20.6877 27.0531 25.0823C25.392 28.9939 24.467 29.4037 23.8517 29.5208C23.3836 29.6013 22.889 29.2281 22.738 27.9767C22.5681 26.5642 22.6587 25.0128 23.3873 22.4551C23.7649 21.1963 24.0102 20.7243 23.9196 19.9742C23.7535 18.602 22.9116 17.6104 21.696 17.8336C20.4804 18.0568 19.8461 19.7071 19.3101 22.4441C18.8739 24.7052 18.7571 27.0133 18.9627 29.3049C19.2723 31.8663 20.4728 33.8349 22.4662 33.4653C23.9763 33.1909 25.7355 31.859 27.374 27.6437C27.9138 30.0843 29.1823 32.3493 31.27 32.0346C34.8716 31.5223 39.2396 23.4284 38.745 18.1959C38.5449 15.7333 37.4728 13.9513 35.5247 14.2294Z" fill="#278067"/>
<path d="M72.0541 22.1844C71.7785 22.1844 71.4878 22.8723 70.9479 23.5126C70.2797 24.3359 69.2717 25.2434 67.8409 25.2836C66.2326 25.3275 65.3568 24.0834 65.051 22.3564C69.1433 21.6245 71.7558 18.7704 71.7067 15.9163C71.669 14.0209 70.4118 12.4146 68.2599 12.4731C64.6357 12.5682 61.3512 17.3836 61.1436 22.2502C59.5051 25.1775 58.7425 25.3202 58.3235 25.3458C57.9044 25.3715 57.5194 25.0202 57.4892 24.2188C57.4212 22.1295 58.4292 19.7584 59.1465 18.1484C59.524 17.3214 59.7694 16.6847 59.7392 16.0407C59.6977 14.9942 58.8747 14.16 58.331 14.2112C58.0059 14.2776 57.7187 14.4605 57.5269 14.7235C57.0059 15.265 55.7563 15.7626 54.7672 15.8212L54.3595 15.8541C54.5023 15.1305 54.5744 14.3954 54.5747 13.6587C54.5067 12.0962 53.9178 11.1302 53.0646 11.1814C51.932 11.2583 51.1128 12.7402 51.177 14.4234C51.2182 15.5094 51.6419 16.5489 52.3775 17.369C51.2034 23.6187 48.4474 26.5168 46.0313 26.7583C44.4948 26.9119 43.7208 25.6605 43.3886 23.8968C47.4395 22.8503 49.9122 19.806 49.7197 16.9445C49.5913 15.0601 48.2549 13.5452 46.1068 13.7648C42.3316 14.1526 39.1566 19.6742 39.5001 24.7421C39.7719 28.7671 42.358 30.4942 44.676 30.26C49.5838 29.7551 52.1434 23.8749 53.5629 18.3716C54.2296 18.8033 54.9715 19.1144 55.7525 19.29C54.7332 20.9988 53.4459 23.7761 53.5327 25.7959C53.6233 27.9914 54.9484 29.3709 56.6548 29.2574C58.1385 29.1623 59.6222 28.1926 61.3512 24.797C62.0308 27.5596 64.0732 28.8696 66.0061 28.822C70.291 28.7049 72.5222 24.3981 72.5222 22.8028C72.5222 22.4259 72.2919 22.1771 72.0541 22.1844ZM45.8841 15.8029C46.2276 15.7736 46.6391 16.1103 46.6882 16.9921C46.8316 19.1876 45.1252 21.383 43.2263 22.2063C43.2301 19.2059 44.6571 15.931 45.8841 15.8029ZM67.9239 14.5149C68.2637 14.5149 68.6412 14.8808 68.679 15.7517C68.7167 17.9471 66.9084 20.0035 64.9755 20.6915C65.1076 17.702 66.6932 14.5442 67.9239 14.5149Z" fill="#278067"/>
<path d="M103.026 25.569C103.086 23.8965 102.709 22.2364 101.93 20.7428C101.151 19.2492 99.996 17.9704 98.5713 17.025C101.456 15.4369 103.385 12.7145 103.479 9.65188C103.596 5.95618 100.625 1.52135 92.7499 1.13348C82.5567 0.646821 75.58 6.98805 75.3611 13.9403C75.2365 17.841 77.4148 20.1608 80.2085 20.3145C83.4703 20.4572 85.2749 17.5629 85.3579 15.5028C85.3579 14.8734 85.2107 14.61 84.9804 14.5953C84.8445 14.5953 84.7728 14.6722 84.6331 14.7929C83.943 15.3453 83.0742 15.6446 82.1792 15.6382C80.7144 15.5723 79.8385 14.0099 79.914 12.0815C80.0386 7.20759 84.9804 3.03256 92.0816 3.37285C96.5553 3.59606 99.4132 6.044 99.2886 9.8641C99.2864 11.0129 98.9946 12.1439 98.4386 13.1585C97.8827 14.1731 97.0793 15.0407 96.0985 15.6857C95.5222 15.4714 94.9143 15.3479 94.2977 15.3198C92.8669 15.254 92.2327 15.9785 92.2024 16.8237C92.1722 17.669 92.7687 18.3203 94.0297 18.3788C94.6104 18.4065 95.1917 18.336 95.7474 18.1703C97.2575 19.0814 98.6317 20.9183 98.5411 23.6589C98.4278 27.1826 96.2759 29.7769 92.9915 29.6123C90.9755 29.5172 89.1294 28.5146 87.3286 27.2339C90.4092 21.7928 91.6173 13.7757 93.8258 8.96031C94.7394 6.98073 95.3359 6.55261 95.3359 6.12816C95.3359 5.79152 94.9584 5.61222 94.3959 5.57929C93.7975 5.56301 93.2085 5.72523 92.7083 6.044C87.6646 8.78833 86.0261 18.3825 83.7081 24.7054C82.0282 23.6589 80.2123 22.7698 78.1699 22.671C74.7721 22.5063 72.4353 24.5371 72.3371 27.5998C72.2427 30.582 74.2927 32.8323 78.2454 33.0189C81.4883 33.1763 83.8214 31.859 85.6637 29.7257C87.9289 31.7273 90.4885 33.7507 94.0712 33.9191C99.2357 34.1386 102.864 30.571 103.026 25.569ZM78.6795 30.4905C78.3302 30.4825 77.9862 30.4057 77.6684 30.2649C77.3506 30.1241 77.0656 29.9221 76.8308 29.6712C76.596 29.4204 76.4163 29.1259 76.3025 28.8057C76.1887 28.4854 76.1433 28.1461 76.169 27.8084C76.2143 26.3813 77.2034 25.2945 78.9815 25.3787C80.3104 25.4446 81.5147 26.1325 82.7153 27.1168C81.6582 29.2025 80.4199 30.5783 78.6795 30.4905Z" fill="#278067"/>
<path d="M141.542 24.5627C141.885 22.7332 140.938 20.9036 138.756 20.5377C135.301 19.9267 131.311 23.4065 129.854 27.6986C128.019 29.8428 127.264 29.8136 126.886 29.744C126.58 29.7001 126.354 29.2757 126.422 28.6463C126.637 26.7289 129.193 23.8895 129.567 20.5633C129.801 18.4337 128.774 17.4568 127.826 17.2921C124.806 16.7872 120.831 22.8174 118.694 27.1314C119.551 23.1503 121.103 21.3391 121.242 20.0474C121.382 18.8362 120.695 17.5775 119.679 17.4019C118.392 17.186 117.414 18.7631 116.346 22.5246C116.18 23.0918 116.025 23.648 115.889 24.1749C113.39 27.4973 111.215 27.7352 110.143 27.6035C108.614 27.4132 108.048 25.9861 107.984 24.2078C112.114 24.0834 114.994 21.6464 115.228 18.8106C115.379 16.9225 114.292 15.1515 112.151 14.8771C108.376 14.4051 104.454 19.1217 104.038 24.1822C103.71 28.2072 105.994 30.4649 108.308 30.7686C110.166 30.9955 112.797 30.4027 115.36 27.1388C115.277 27.9222 115.277 28.7118 115.36 29.4952C115.632 30.8162 116.21 31.7639 117.395 31.9615C118.528 32.1554 118.905 30.5198 119.925 28.1853C121.537 24.5262 124.006 21.2769 124.814 21.4159C125.021 21.4488 125.131 21.6794 125.097 21.9758C124.934 23.4723 122.832 26.2167 122.511 29.0964C122.273 31.2589 123.285 32.9641 124.874 33.2312C126.071 33.4324 127.453 32.9494 129.318 30.721C129.318 33.7215 131.186 35.5254 133.217 35.884C137.551 36.6524 140.685 32.9567 140.979 31.387C141.047 31.0211 140.885 30.7393 140.643 30.6954C140.402 30.6515 139.93 31.2443 139.262 31.7602C138.42 32.4115 137.219 33.0885 135.762 32.8287C134.135 32.5396 133.497 31.1601 133.534 29.4367C137.804 29.5611 141.017 27.34 141.542 24.5627ZM111.6 16.8311C111.944 16.875 112.284 17.2958 112.212 18.174C112.034 20.3511 110.037 22.1294 108.059 22.521C108.497 19.59 110.381 16.6884 111.6 16.8311ZM138.004 22.4002C138.352 22.4624 138.661 22.8979 138.503 23.7541C138.099 25.88 135.86 27.512 133.769 27.7791C134.524 24.925 136.755 22.1953 138.004 22.4149V22.4002Z" fill="#278067"/>
<path d="M22.3115 4.54012C24.3238 3.44239 25.5205 5.42929 24.7126 6.62581C27.9744 8.60905 30.9078 5.41831 29.7375 2.75448C28.4652 -0.150847 23.7424 -0.637508 21.077 0.730997C12.0882 5.34879 15.8634 16.5091 13.149 30.7613C12.2392 24.5701 10.8461 19.1107 8.61873 16.0992C6.91609 13.7867 4.46596 12.8865 2.20081 14.438C-0.577768 16.3554 -0.158715 19.8388 0.437773 20.6585C0.596334 20.8707 0.815298 21.0024 1.03804 20.8488C1.50994 20.5231 1.41556 19.1326 2.43865 18.4228C3.46175 17.7129 4.43953 18.2984 5.23234 19.3778C7.98071 23.1211 8.84525 30.1136 9.56632 34.2813C9.64743 34.7555 9.84559 35.2037 10.1439 35.5876C10.43 35.943 10.8095 36.2172 11.2426 36.3814C11.6757 36.5456 12.1465 36.5937 12.6054 36.5207H12.7224C13.0775 36.4906 13.4165 36.3638 13.7002 36.1548L13.8248 36.0816C14.8554 35.262 15.3047 33.3958 15.7124 31.2077C17.4717 20.7573 16.0899 8.47366 22.3115 4.54012Z" fill="#278067"/>
<path d="M33.1387 42.4448H32.8291C32.6799 42.4399 32.5326 42.4793 32.4071 42.5578C32.2816 42.6362 32.1838 42.75 32.1269 42.8839L30.6168 45.6685L29.1445 42.8839C29.0843 42.7501 28.9842 42.6368 28.8571 42.5585C28.7299 42.4803 28.5815 42.4407 28.431 42.4448H28.1214C27.6533 42.4448 27.4796 42.7375 27.7061 43.1474L29.8958 47.1175V48.2994C29.8877 48.3784 29.8981 48.4581 29.9263 48.5326C29.9544 48.6072 29.9996 48.6746 30.0584 48.7298C30.1172 48.785 30.1881 48.8267 30.2659 48.8516C30.3436 48.8766 30.4262 48.8842 30.5074 48.8739H30.7301C30.8133 48.8876 30.8987 48.8827 30.9796 48.8594C31.0605 48.8362 31.1349 48.7952 31.1969 48.7397C31.2589 48.6842 31.3069 48.6156 31.3373 48.5393C31.3676 48.4629 31.3795 48.3809 31.3719 48.2994V47.1358L33.588 43.1657C33.7994 42.7449 33.6106 42.4448 33.1387 42.4448Z" fill="#278067"/>
<path d="M35.993 43.7109C34.6263 43.7109 33.2861 44.5049 33.2861 46.3345C33.2861 48.164 34.6226 48.9654 35.993 48.9654C37.3634 48.9654 38.6998 48.1786 38.6998 46.3345C38.6998 44.4903 37.3634 43.7109 35.993 43.7109ZM35.993 47.8566C35.2115 47.8566 34.6679 47.3005 34.6679 46.3308C34.6679 45.3611 35.2115 44.8123 35.9854 44.8123C36.7594 44.8123 37.3105 45.3794 37.3105 46.3308C37.3105 47.2822 36.7745 47.8566 35.9968 47.8566H35.993Z" fill="#278067"/>
<path d="M44.1027 43.7949H43.9328C43.5553 43.7949 43.3552 43.9962 43.3514 44.3841V44.6109C43.1802 44.3205 42.9286 44.0823 42.6251 43.9233C42.3215 43.7642 41.9781 43.6906 41.6337 43.7108C40.3237 43.7108 39.3232 44.5743 39.3232 46.166C39.3232 47.7578 40.3388 48.6286 41.6488 48.6286C41.9846 48.6476 42.3192 48.5746 42.6143 48.418C42.9093 48.2614 43.153 48.0276 43.3175 47.7431V48.2225C43.3175 49.258 42.8418 49.6861 41.9886 49.6861C41.787 49.6915 41.5864 49.6566 41.3993 49.5836C41.2123 49.5105 41.0427 49.401 40.9013 49.2616C40.8211 49.1579 40.7104 49.08 40.5838 49.0383C40.4571 48.9965 40.3204 48.9927 40.1915 49.0275L40.0103 49.0714C39.9257 49.0775 39.8447 49.1074 39.7772 49.1573C39.7098 49.2072 39.6587 49.2751 39.6303 49.3526C39.6019 49.4302 39.5974 49.514 39.6173 49.594C39.6372 49.674 39.6806 49.7467 39.7423 49.8032C40.2029 50.396 40.9881 50.7143 42.0074 50.7143C43.8082 50.7143 44.7067 49.8874 44.7067 47.981V44.3914C44.7176 44.3115 44.7095 44.2303 44.6832 44.1539C44.6568 44.0776 44.6129 44.008 44.5547 43.9505C44.4965 43.893 44.4255 43.8492 44.3472 43.8222C44.2689 43.7952 44.1853 43.7859 44.1027 43.7949ZM42.0339 47.6443C41.2524 47.6443 40.7088 47.1064 40.7088 46.1807C40.7088 45.2549 41.2524 44.717 42.0263 44.717C42.8002 44.717 43.3514 45.2622 43.3514 46.1807C43.3514 47.0991 42.8116 47.6443 42.0339 47.6443Z" fill="#278067"/>
<path d="M50.0705 43.7987H49.9007C49.8182 43.7887 49.7345 43.797 49.6559 43.8231C49.5772 43.8491 49.5057 43.8921 49.4468 43.9489C49.3878 44.0056 49.343 44.0747 49.3157 44.1507C49.2884 44.2268 49.2793 44.3079 49.2891 44.3878V46.3894C49.2891 47.3298 48.972 47.8274 48.1565 47.8274C47.341 47.8274 47.0239 47.3993 47.0239 46.4662V44.3878C47.0337 44.3079 47.0246 44.2268 46.9973 44.1507C46.97 44.0747 46.9252 44.0056 46.8662 43.9489C46.8073 43.8921 46.7358 43.8491 46.6571 43.8231C46.5785 43.797 46.4948 43.7887 46.4123 43.7987H46.2424C46.1603 43.7893 46.077 43.7981 45.9988 43.8244C45.9207 43.8507 45.8497 43.8938 45.7912 43.9505C45.7327 44.0072 45.6882 44.076 45.6611 44.1517C45.634 44.2275 45.6249 44.3082 45.6346 44.3878V46.5833C45.6346 48.186 46.2576 48.9398 47.6657 48.9398C47.9974 48.96 48.328 48.8851 48.616 48.7244C48.904 48.5636 49.1368 48.3242 49.2853 48.036V48.2994C49.2778 48.3781 49.2887 48.4574 49.3171 48.5315C49.3456 48.6056 49.3908 48.6725 49.4496 48.7273C49.5083 48.7821 49.579 48.8234 49.6564 48.8482C49.7338 48.8729 49.816 48.8805 49.8969 48.8702H50.0668C50.1489 48.8796 50.2322 48.8709 50.3104 48.8446C50.3885 48.8183 50.4595 48.7752 50.518 48.7185C50.5765 48.6618 50.621 48.593 50.6481 48.5172C50.6752 48.4415 50.6843 48.3608 50.6746 48.2811V44.3878C50.6842 44.3086 50.6752 44.2282 50.6483 44.1527C50.6214 44.0773 50.5772 44.0087 50.5192 43.9521C50.4611 43.8954 50.3906 43.8522 50.3129 43.8257C50.2353 43.7991 50.1524 43.7899 50.0705 43.7987Z" fill="#278067"/>
<path d="M54.2988 43.7438C54.0335 43.7374 53.7731 43.8135 53.5557 43.961C53.3383 44.1085 53.1753 44.3196 53.0907 44.5634V44.3366C53.0907 43.9706 52.8718 43.795 52.4791 43.795H52.3092C52.2269 43.7857 52.1435 43.7945 52.0652 43.8208C51.9869 43.8471 51.9158 43.8901 51.857 43.9467C51.7982 44.0033 51.7534 44.0721 51.7258 44.1478C51.6982 44.2235 51.6886 44.3043 51.6976 44.3841V48.2994C51.6887 48.3793 51.6984 48.4602 51.7259 48.5361C51.7535 48.612 51.7983 48.6809 51.857 48.7377C51.9156 48.7946 51.9867 48.838 52.065 48.8647C52.1433 48.8914 52.2267 48.9008 52.3092 48.8921H52.4791C52.5616 48.9008 52.6451 48.8914 52.7234 48.8647C52.8016 48.838 52.8727 48.7946 52.9314 48.7377C52.9901 48.6809 53.0349 48.612 53.0624 48.5361C53.09 48.4602 53.0997 48.3793 53.0907 48.2994V46.4698C53.0907 45.5404 53.4456 45.0903 54.1402 44.9769C54.5178 44.9147 54.7367 44.8086 54.7782 44.4427V44.3439C54.8349 43.967 54.6725 43.7438 54.2988 43.7438Z" fill="#278067"/>
<path d="M58.0212 47.8931C57.368 47.8712 57.1151 47.5675 57.1151 46.7259V44.8158H57.9419C58.3647 44.8158 58.5535 44.6292 58.5535 44.2999C58.5535 43.9706 58.3647 43.795 57.9419 43.795H57.1151V43.2388C57.1151 42.8143 56.915 42.635 56.4469 42.7302L56.2845 42.7631C55.8844 42.8472 55.7183 43.0302 55.7183 43.3851V43.795H55.4502C55.152 43.795 54.9821 43.9706 54.9821 44.2999C54.9735 44.3678 54.9805 44.4366 55.0028 44.5015C55.025 44.5664 55.0618 44.6257 55.1106 44.6751C55.1594 44.7245 55.2189 44.7627 55.2848 44.7871C55.3507 44.8114 55.4214 44.8212 55.4917 44.8158H55.7183V46.8357C55.7183 48.3835 56.3714 48.9397 57.7909 48.9397C57.8789 48.9449 57.9671 48.9449 58.0551 48.9397C58.1316 48.9418 58.2077 48.9274 58.2778 48.8976C58.3479 48.8678 58.4103 48.8233 58.4605 48.7673C58.5107 48.7113 58.5475 48.6452 58.5681 48.5738C58.5887 48.5023 58.5928 48.4273 58.5799 48.3542C58.5535 48.0468 58.3496 47.9041 58.0212 47.8931Z" fill="#278067"/>
<path d="M61.4833 43.7108C61.1242 43.6938 60.7655 43.7502 60.4304 43.8763C60.0953 44.0025 59.7913 44.1955 59.5381 44.4429C59.285 44.6903 59.0884 44.9866 58.9611 45.3125C58.8337 45.6383 58.7786 45.9865 58.7991 46.3344C58.7991 47.9261 59.8751 48.9543 61.5286 48.9543C61.9415 48.9833 62.3554 48.9153 62.7353 48.756C63.1152 48.5968 63.4498 48.351 63.7107 48.0395C63.9712 47.7175 63.9032 47.4906 63.4842 47.3918L63.3596 47.3626C63.0425 47.2894 62.9028 47.4101 62.6725 47.5931C62.3736 47.8436 61.9876 47.9744 61.5928 47.959C61.4084 47.975 61.2227 47.9524 61.0481 47.8927C60.8736 47.833 60.7143 47.7376 60.5811 47.613C60.4479 47.4885 60.3439 47.3376 60.2761 47.1706C60.2084 47.0037 60.1785 46.8245 60.1884 46.6454H63.4615C63.8844 46.6454 64.0996 46.4478 64.0731 46.0526C63.9825 44.6182 63.0085 43.7108 61.4833 43.7108ZM60.2148 45.7599C60.2249 45.6045 60.2667 45.4527 60.3378 45.3131C60.4089 45.1735 60.5079 45.0491 60.6291 44.9469C60.7503 44.8448 60.8912 44.767 61.0437 44.7181C61.1962 44.6692 61.3572 44.6502 61.5173 44.6621C61.6761 44.6502 61.8357 44.6694 61.9866 44.7186C62.1376 44.7678 62.2767 44.8459 62.3958 44.9484C62.5149 45.0508 62.6115 45.1755 62.6798 45.3149C62.7481 45.4543 62.7867 45.6057 62.7933 45.7599H60.2148Z" fill="#278067"/>
<path d="M67.4902 43.7438C67.2249 43.7374 66.9645 43.8135 66.7471 43.961C66.5297 44.1085 66.3667 44.3196 66.2821 44.5634V44.3366C66.2821 43.9706 66.0632 43.795 65.6705 43.795H65.5006C65.4183 43.7857 65.3349 43.7945 65.2566 43.8208C65.1783 43.8471 65.1072 43.8901 65.0484 43.9467C64.9896 44.0033 64.9448 44.0721 64.9172 44.1478C64.8896 44.2235 64.88 44.3043 64.8891 44.3841V48.2994C64.8801 48.3793 64.8898 48.4602 64.9173 48.5361C64.9449 48.612 64.9897 48.6809 65.0484 48.7377C65.107 48.7946 65.1781 48.838 65.2564 48.8647C65.3347 48.8914 65.4181 48.9008 65.5006 48.8921H65.6705C65.753 48.9008 65.8365 48.8914 65.9148 48.8647C65.993 48.838 66.0641 48.7946 66.1228 48.7377C66.1815 48.6809 66.2263 48.612 66.2538 48.5361C66.2814 48.4602 66.2911 48.3793 66.2821 48.2994V46.4698C66.2821 45.5404 66.6408 45.0903 67.3316 44.9769C67.7092 44.9147 67.9281 44.8086 67.9697 44.4427V44.3439C68.0263 43.967 67.8639 43.7438 67.4902 43.7438Z" fill="#278067"/>
<path d="M69.3175 43.795H69.125C69.0433 43.7861 68.9605 43.7952 68.883 43.8218C68.8054 43.8484 68.7351 43.8916 68.6773 43.9484C68.6196 44.0051 68.5758 44.0738 68.5494 44.1492C68.5229 44.2247 68.5145 44.305 68.5247 44.3841V48.2994C68.5146 48.3786 68.5231 48.459 68.5495 48.5346C68.5759 48.6103 68.6196 48.6791 68.6773 48.7361C68.735 48.7931 68.8052 48.8367 68.8828 48.8637C68.9603 48.8907 69.0431 48.9004 69.125 48.8921H69.3024C69.3845 48.9003 69.4674 48.8906 69.5451 48.8636C69.6227 48.8366 69.6931 48.793 69.7511 48.7361C69.8091 48.6792 69.8531 48.6104 69.88 48.5349C69.9069 48.4593 69.9159 48.3788 69.9065 48.2994V44.3841C69.9157 44.3062 69.9069 44.2272 69.8809 44.1529C69.8548 44.0787 69.8121 44.0109 69.7557 43.9546C69.6994 43.8982 69.6309 43.8547 69.5551 43.8271C69.4793 43.7995 69.3982 43.7885 69.3175 43.795Z" fill="#278067"/>
<path d="M70.0263 41.6654H69.8791C69.7417 41.6466 69.6017 41.6723 69.4809 41.7385C69.3601 41.8046 69.2652 41.9076 69.2109 42.0313L68.9542 42.6095C68.7767 43.0046 68.8749 43.2169 69.1845 43.2169C69.3239 43.2278 69.4636 43.199 69.5863 43.134C69.7091 43.069 69.8095 42.9706 69.8753 42.851L70.2528 42.2692C70.502 41.9142 70.3699 41.6654 70.0263 41.6654Z" fill="#278067"/>
<path d="M75.4897 43.7949H75.3198C74.9423 43.7949 74.712 43.9852 74.712 44.3109V44.6768C74.556 44.3713 74.3115 44.1165 74.0084 43.9436C73.7054 43.7708 73.3568 43.6873 73.0056 43.7034C71.6993 43.7034 70.7178 44.6219 70.7178 46.327C70.7178 48.0322 71.7069 48.9579 73.0131 48.9579C73.361 48.9734 73.706 48.8915 74.0073 48.7222C74.3085 48.5529 74.5531 48.3032 74.712 48.0029V48.3505C74.712 48.6688 74.9347 48.8555 75.3198 48.8555H75.4897C75.5721 48.8655 75.6558 48.8572 75.7345 48.8311C75.8131 48.8051 75.8846 48.7621 75.9436 48.7053C76.0025 48.6486 76.0473 48.5795 76.0747 48.5035C76.102 48.4274 76.1111 48.3463 76.1013 48.2663V44.384C76.1111 44.3041 76.102 44.223 76.0747 44.1469C76.0473 44.0709 76.0025 44.0018 75.9436 43.9451C75.8846 43.8883 75.8131 43.8453 75.7345 43.8192C75.6558 43.7932 75.5721 43.7849 75.4897 43.7949ZM73.4359 47.8565C72.6394 47.8565 72.1033 47.2784 72.1033 46.3307C72.1033 45.383 72.6431 44.8122 73.4246 44.8122C74.2061 44.8122 74.7535 45.394 74.7535 46.3307C74.7535 47.2674 74.2212 47.8565 73.4359 47.8565Z" fill="#278067"/>
<path d="M80.3938 42.4448H80.1673C79.8295 42.4448 79.5557 42.7102 79.5557 43.0376V48.2774C79.5557 48.6048 79.8295 48.8702 80.1673 48.8702H80.3938C80.7315 48.8702 81.0054 48.6048 81.0054 48.2774V43.0376C81.0054 42.7102 80.7315 42.4448 80.3938 42.4448Z" fill="#278067"/>
<path d="M84.7047 47.8931C84.0554 47.8712 83.8025 47.5675 83.8025 46.7259V44.8158H84.6255C85.0483 44.8158 85.2371 44.6292 85.2371 44.2999C85.2371 43.9706 85.0483 43.795 84.6255 43.795H83.8025V43.2388C83.8025 42.8143 83.5986 42.635 83.1305 42.7302L82.9681 42.7631C82.5906 42.8472 82.4018 43.0302 82.4018 43.3851V43.795H82.1338C81.8356 43.795 81.6657 43.9706 81.6657 44.2999C81.6571 44.3678 81.6641 44.4366 81.6863 44.5015C81.7086 44.5664 81.7454 44.6257 81.7942 44.6751C81.843 44.7245 81.9025 44.7627 81.9684 44.7871C82.0343 44.8114 82.105 44.8212 82.1753 44.8158H82.4018V46.8357C82.4018 48.3835 83.055 48.9397 84.4782 48.9397C84.565 48.9448 84.652 48.9448 84.7387 48.9397C84.8154 48.9425 84.8918 48.9286 84.9623 48.899C85.0327 48.8694 85.0954 48.8249 85.1458 48.7687C85.1961 48.7126 85.2328 48.6462 85.2532 48.5744C85.2736 48.5027 85.2771 48.4274 85.2635 48.3542C85.2446 48.0468 85.0332 47.9041 84.7047 47.8931Z" fill="#278067"/>
<path d="M90.2659 43.795H90.096C89.7185 43.795 89.4844 43.9852 89.4844 44.3109V44.6768C89.3295 44.3713 89.0857 44.1164 88.7832 43.9435C88.4807 43.7705 88.1326 43.6871 87.7818 43.7035C86.4756 43.7035 85.4902 44.6219 85.4902 46.3271C85.4902 48.0322 86.4831 48.958 87.7894 48.958C88.1367 48.9736 88.4814 48.8918 88.782 48.7224C89.0827 48.5531 89.3265 48.3032 89.4844 48.0029V48.3506C89.4844 48.6689 89.711 48.8555 90.096 48.8555H90.2659C90.3484 48.8655 90.4321 48.8572 90.5107 48.8312C90.5894 48.8052 90.6609 48.7622 90.7198 48.7054C90.7787 48.6486 90.8236 48.5796 90.8509 48.5035C90.8782 48.4275 90.8873 48.3464 90.8775 48.2664V44.3841C90.8873 44.3041 90.8782 44.223 90.8509 44.147C90.8236 44.0709 90.7787 44.0019 90.7198 43.9451C90.6609 43.8883 90.5894 43.8453 90.5107 43.8193C90.4321 43.7933 90.3484 43.785 90.2659 43.795ZM88.2122 47.8566C87.4156 47.8566 86.8795 47.2784 86.8795 46.3307C86.8795 45.383 87.4156 44.8122 88.2009 44.8122C88.9861 44.8122 89.5297 45.394 89.5297 46.3307C89.5297 47.2675 88.9786 47.8566 88.1933 47.8566H88.2122Z" fill="#278067"/>
<path d="M92.667 42.1447H92.4895C92.1517 42.1447 91.8779 42.4101 91.8779 42.7375V48.281C91.8779 48.6084 92.1517 48.8738 92.4895 48.8738H92.667C93.0047 48.8738 93.2785 48.6084 93.2785 48.281V42.7375C93.2785 42.4101 93.0047 42.1447 92.667 42.1447Z" fill="#278067"/>
<path d="M94.9664 41.8082C94.868 41.7983 94.7687 41.8085 94.6747 41.8382C94.5807 41.8679 94.4942 41.9164 94.4208 41.9805C94.3473 42.0447 94.2886 42.1231 94.2484 42.2106C94.2083 42.2982 94.1875 42.3929 94.1875 42.4888C94.1875 42.5846 94.2083 42.6793 94.2484 42.7669C94.2886 42.8544 94.3473 42.9328 94.4208 42.997C94.4942 43.0611 94.5807 43.1096 94.6747 43.1393C94.7687 43.169 94.868 43.1792 94.9664 43.1694C95.0647 43.1792 95.1641 43.169 95.2581 43.1393C95.3521 43.1096 95.4386 43.0611 95.512 42.997C95.5854 42.9328 95.6441 42.8544 95.6843 42.7669C95.7245 42.6793 95.7453 42.5846 95.7453 42.4888C95.7453 42.3929 95.7245 42.2982 95.6843 42.2106C95.6441 42.1231 95.5854 42.0447 95.512 41.9805C95.4386 41.9164 95.3521 41.8679 95.2581 41.8382C95.1641 41.8085 95.0647 41.7983 94.9664 41.8082Z" fill="#278067"/>
<path d="M95.0417 43.795H94.8642C94.7825 43.7861 94.6998 43.7952 94.6222 43.8218C94.5447 43.8484 94.4744 43.8916 94.4166 43.9484C94.3588 44.0051 94.3151 44.0738 94.2886 44.1492C94.2622 44.2247 94.2538 44.305 94.264 44.3841V48.2994C94.2539 48.3786 94.2624 48.459 94.2888 48.5346C94.3152 48.6103 94.3589 48.6791 94.4166 48.7361C94.4743 48.7931 94.5445 48.8367 94.622 48.8637C94.6995 48.8907 94.7823 48.9004 94.8642 48.8921H95.0417C95.1237 48.9003 95.2067 48.8906 95.2843 48.8636C95.362 48.8366 95.4324 48.793 95.4903 48.7361C95.5483 48.6792 95.5924 48.6104 95.6193 48.5349C95.6462 48.4593 95.6552 48.3788 95.6457 48.2994V44.3841C95.6553 44.3048 95.6463 44.2245 95.6194 44.149C95.5925 44.0736 95.5484 44.005 95.4903 43.9483C95.4323 43.8917 95.3618 43.8485 95.2841 43.822C95.2064 43.7954 95.1235 43.7862 95.0417 43.795Z" fill="#278067"/>
<path d="M101.248 43.7949H101.079C100.701 43.7949 100.471 43.9852 100.471 44.3109V44.6768C100.315 44.3713 100.07 44.1165 99.7672 43.9436C99.4641 43.7708 99.1156 43.6873 98.7644 43.7034C97.4581 43.7034 96.4766 44.6219 96.4766 46.327C96.4766 48.0322 97.4695 48.9579 98.7719 48.9579C99.1198 48.9734 99.4648 48.8915 99.766 48.7222C100.067 48.5529 100.312 48.3032 100.471 48.0029V48.3505C100.471 48.6688 100.694 48.8555 101.079 48.8555H101.248C101.331 48.8655 101.415 48.8572 101.493 48.8311C101.572 48.8051 101.643 48.7621 101.702 48.7053C101.761 48.6486 101.806 48.5795 101.833 48.5035C101.861 48.4274 101.87 48.3463 101.86 48.2663V44.384C101.87 44.3041 101.861 44.223 101.833 44.1469C101.806 44.0709 101.761 44.0018 101.702 43.9451C101.643 43.8883 101.572 43.8453 101.493 43.8192C101.415 43.7932 101.331 43.7849 101.248 43.7949ZM99.1947 47.8565C98.3982 47.8565 97.8621 47.2784 97.8621 46.3307C97.8621 45.383 98.4019 44.8122 99.1834 44.8122C99.9649 44.8122 100.512 45.394 100.512 46.3307C100.512 47.2674 99.98 47.8565 99.1947 47.8565Z" fill="#278067"/>
<path d="M105.888 43.7182C105.556 43.6982 105.225 43.7737 104.937 43.9351C104.649 44.0965 104.417 44.3367 104.269 44.6256V44.3695C104.277 44.2908 104.266 44.2115 104.238 44.1373C104.21 44.063 104.166 43.9958 104.107 43.9407C104.049 43.8855 103.979 43.8438 103.901 43.8186C103.824 43.7933 103.742 43.7853 103.661 43.795H103.48C103.398 43.7856 103.314 43.7944 103.236 43.8207C103.158 43.8469 103.087 43.89 103.028 43.9467C102.97 44.0034 102.926 44.0723 102.898 44.148C102.871 44.2238 102.862 44.3045 102.872 44.3841V48.2994C102.862 48.3791 102.871 48.46 102.899 48.5359C102.926 48.6117 102.97 48.6807 103.028 48.7377C103.087 48.7947 103.158 48.8381 103.236 48.8649C103.314 48.8916 103.397 48.9009 103.48 48.8921H103.653C103.736 48.9009 103.819 48.8916 103.897 48.8649C103.975 48.8381 104.046 48.7947 104.105 48.7377C104.163 48.6807 104.208 48.6117 104.235 48.5359C104.262 48.46 104.271 48.3791 104.261 48.2994V46.2978C104.261 45.3611 104.578 44.8598 105.394 44.8598C106.209 44.8598 106.526 45.2879 106.526 46.221V48.2994C106.517 48.3795 106.526 48.4607 106.553 48.5369C106.58 48.6131 106.625 48.6823 106.684 48.7393C106.743 48.7963 106.814 48.8397 106.893 48.8662C106.972 48.8926 107.055 48.9015 107.138 48.8921H107.308C107.39 48.9009 107.474 48.8916 107.552 48.8649C107.63 48.8381 107.701 48.7947 107.759 48.7377C107.818 48.6807 107.862 48.6117 107.889 48.5359C107.916 48.46 107.925 48.3791 107.916 48.2994V46.1039C107.919 44.4756 107.297 43.7182 105.888 43.7182Z" fill="#278067"/>
<path d="M113.415 43.795H113.245C112.868 43.795 112.634 43.9852 112.634 44.3109V44.6768C112.479 44.3713 112.235 44.1164 111.933 43.9435C111.63 43.7705 111.282 43.6871 110.931 43.7035C109.621 43.7035 108.64 44.6219 108.64 46.3271C108.64 48.0322 109.633 48.958 110.935 48.958C111.283 48.9743 111.628 48.8929 111.93 48.7235C112.231 48.554 112.476 48.3038 112.634 48.0029V48.3506C112.634 48.6689 112.86 48.8555 113.245 48.8555H113.415C113.497 48.8649 113.581 48.8561 113.659 48.8299C113.737 48.8036 113.808 48.7605 113.867 48.7038C113.925 48.6471 113.97 48.5783 113.997 48.5025C114.024 48.4268 114.033 48.346 114.023 48.2664V44.3841C114.033 44.3045 114.024 44.2237 113.997 44.148C113.97 44.0722 113.925 44.0034 113.867 43.9467C113.808 43.89 113.737 43.8469 113.659 43.8206C113.581 43.7943 113.497 43.7856 113.415 43.795ZM111.358 47.8566C110.561 47.8566 110.029 47.2784 110.029 46.3307C110.029 45.383 110.565 44.8122 111.346 44.8122C112.128 44.8122 112.675 45.394 112.675 46.3307C112.675 47.2675 112.162 47.8566 111.358 47.8566Z" fill="#278067"/>
</svg>
