<svg width="333" height="49" viewBox="0 0 333 49" fill="none" xmlns="http://www.w3.org/2000/svg">
<path d="M312.202 0.470337H20.298C9.08771 0.470337 0 11.2155 0 24.4703C0 37.7252 9.08771 48.4703 20.298 48.4703H312.202C323.412 48.4703 332.5 37.7252 332.5 24.4703C332.5 11.2155 323.412 0.470337 312.202 0.470337Z" fill="#04C386"/>
<path d="M24.358 16.7079H17.3987C16.5784 16.7079 15.7916 17.0932 15.2116 17.779C14.6315 18.4649 14.3057 19.3951 14.3057 20.365V28.5753C14.3057 29.5452 14.6315 30.4755 15.2116 31.1613C15.7916 31.8472 16.5784 32.2325 17.3987 32.2325H24.358C25.1783 32.2325 25.965 31.8472 26.5451 31.1613C27.1251 30.4755 27.451 29.5452 27.451 28.5753V20.3467C27.4469 19.38 27.1193 18.4545 26.5396 17.7726C25.96 17.0907 25.1756 16.7079 24.358 16.7079ZM20.8783 29.0187C20.1128 29.0233 19.3635 28.759 18.7251 28.2595C18.0868 27.7599 17.5882 27.0475 17.2926 26.2126C16.997 25.3777 16.9177 24.4578 17.0647 23.5696C17.2117 22.6813 17.5784 21.8646 18.1183 21.223C18.6582 20.5814 19.3471 20.1437 20.0976 19.9655C20.8481 19.7872 21.6265 19.8764 22.3341 20.2217C23.0417 20.567 23.6466 21.153 24.0723 21.9052C24.498 22.6575 24.7253 23.5422 24.7253 24.4473C24.7253 25.6558 24.3206 26.8151 23.5997 27.6717C22.8788 28.5284 21.9004 29.0127 20.8783 29.0187ZM24.9805 20.7902C24.7809 20.7902 24.5858 20.7202 24.4198 20.5891C24.2539 20.458 24.1246 20.2716 24.0482 20.0536C23.9718 19.8356 23.9518 19.5957 23.9908 19.3643C24.0297 19.1328 24.1258 18.9202 24.2669 18.7533C24.408 18.5865 24.5878 18.4728 24.7836 18.4268C24.9793 18.3808 25.1822 18.4044 25.3666 18.4947C25.551 18.585 25.7086 18.7379 25.8195 18.9342C25.9304 19.1304 25.9896 19.361 25.9896 19.597C25.9927 19.7562 25.9687 19.9144 25.9191 20.0624C25.8695 20.2104 25.7952 20.3451 25.7008 20.4586C25.6063 20.572 25.4935 20.6618 25.3691 20.7227C25.2447 20.7836 25.1112 20.8143 24.9766 20.813L24.9805 20.7902Z" fill="white"/>
<path d="M20.8782 6.18445C17.8195 6.18445 14.8295 7.25689 12.2863 9.26615C9.74303 11.2754 7.76082 14.1312 6.5903 17.4725C5.41979 20.8138 5.11353 24.4904 5.71025 28.0375C6.30698 31.5846 7.77989 34.8428 9.94272 37.4001C12.1056 39.9574 14.8612 41.699 17.8611 42.4045C20.8611 43.1101 23.9706 42.748 26.7965 41.364C29.6223 39.98 32.0377 37.6362 33.737 34.6292C35.4363 31.6221 36.3433 28.0867 36.3433 24.4702C36.3433 19.6205 34.714 14.9694 31.8137 11.5402C28.9134 8.11097 24.9798 6.18445 20.8782 6.18445ZM28.8273 28.5844C28.8222 29.9841 28.3497 31.3248 27.5126 32.3146C26.6755 33.3043 25.5417 33.863 24.3579 33.869H17.3986C16.2134 33.863 15.0784 33.303 14.2411 32.3113C13.4038 31.3196 12.9322 29.9766 12.9291 28.5753V20.3467C12.9363 18.9486 13.4097 17.6103 14.2465 16.6225C15.0834 15.6347 16.2161 15.0773 17.3986 15.0713H24.3579C25.5423 15.0785 26.6764 15.639 27.5128 16.6306C28.3493 17.6222 28.8204 18.9645 28.8234 20.365L28.8273 28.5844Z" fill="white"/>
<path d="M20.8779 21.5582C20.3908 21.5582 19.9146 21.729 19.5096 22.049C19.1046 22.369 18.7889 22.8238 18.6025 23.3559C18.4161 23.888 18.3673 24.4735 18.4624 25.0383C18.5574 25.6032 18.792 26.1221 19.1364 26.5293C19.4808 26.9366 19.9196 27.2139 20.3974 27.3263C20.8751 27.4386 21.3703 27.381 21.8203 27.1606C22.2704 26.9402 22.655 26.5669 22.9256 26.088C23.1962 25.6092 23.3407 25.0462 23.3407 24.4702C23.3407 23.6979 23.0812 22.9572 22.6193 22.4111C22.1575 21.865 21.531 21.5582 20.8779 21.5582Z" fill="white"/>
</svg>
