<svg xmlns="http://www.w3.org/2000/svg" viewBox="0 0 375 138.59"><defs><style>.cls-1{fill:#278067;}</style></defs><g id="Capa_2" data-name="Capa 2"><g id="DISEÑO"><path class="cls-1" d="M65,28c-4.21.8-7.23,5.54-6.63,10.65.45,3.88,3.27,6.13,6.5,5.53a9.07,9.07,0,0,0,7-10.14C71.46,30.75,69.3,27.2,65,28Z"/><path class="cls-1" d="M94,38.89c-3.78.55-6,5.17-5.74,8.15.12,1.14.6,1.52,1.15,1.56,2.77.29,4.56,4,5,9.11C95.32,67,90.32,78,86.17,78.64c-1.89.28-3.44-2.74-4-8.68a53.7,53.7,0,0,1,1-15.21,22.14,22.14,0,0,0,.68-6.37c-.34-3.77-2.9-5.83-6-5.38-5.37.8-7,13.54-6.29,25.55-4.4,10.69-6.85,11.81-8.48,12.13-1.24.22-2.55-.8-2.95-4.22-.45-3.86-.21-8.1,1.72-15.09,1-3.44,1.65-4.73,1.41-6.78-.44-3.75-2.67-6.46-5.89-5.85s-4.9,5.12-6.32,12.6a69.33,69.33,0,0,0-.92,18.75c.82,7,4,12.38,9.28,11.37,4-.75,8.66-4.39,13-15.91,1.43,6.67,4.79,12.86,10.32,12,9.54-1.4,21.11-23.52,19.8-37.82C102,43,99.16,38.13,94,38.89Z"/><path class="cls-1" d="M190.76,60.63c-.73,0-1.5,1.88-2.93,3.63-1.77,2.25-4.44,4.73-8.23,4.84-4.26.12-6.58-3.28-7.39-8,10.84-2,17.76-9.8,17.63-17.6-.1-5.18-3.43-9.57-9.13-9.41-9.6.26-18.3,13.42-18.85,26.72-4.34,8-6.36,8.39-7.47,8.46s-2.13-.89-2.21-3.08C152,60.48,154.67,54,156.57,49.6c1-2.26,1.65-4,1.57-5.76-.11-2.86-2.29-5.14-3.73-5a3.49,3.49,0,0,0-2.13,1.4c-1.38,1.48-4.69,2.84-7.31,3l-1.08.09a32,32,0,0,0,.57-6c-.18-4.27-1.74-6.91-4-6.77-3,.21-5.17,4.26-5,8.86a13,13,0,0,0,3.18,8.05c-3.11,17.08-10.41,25-16.81,25.66-4.07.42-6.12-3-7-7.82,10.73-2.86,17.28-11.18,16.77-19-.34-5.15-3.88-9.29-9.57-8.69-10,1.06-18.41,16.15-17.5,30,.72,11,7.57,15.72,13.71,15.08,13-1.38,19.78-17.45,23.54-32.49a17.6,17.6,0,0,0,5.8,2.51c-2.7,4.67-6.11,12.26-5.88,17.78.24,6,3.75,9.77,8.27,9.46,3.93-.26,7.86-2.91,12.44-12.19,1.8,7.55,7.21,11.13,12.33,11C186.09,78.45,192,66.68,192,62.32,192,61.29,191.39,60.61,190.76,60.63ZM121.44,43.19c.91-.08,2,.84,2.13,3.25.38,6-4.14,12-9.17,14.25C114.41,52.49,118.19,43.54,121.44,43.19Zm58.38-3.52c.9,0,1.9,1,2,3.38.1,6-4.69,11.62-9.81,13.5C172.36,48.38,176.56,39.75,179.82,39.67Z"/><path class="cls-1" d="M272.8,69.88A27.16,27.16,0,0,0,261,46.53c7.64-4.34,12.75-11.78,13-20.15.31-10.1-7.56-22.22-28.42-23.28-27-1.33-45.48,16-46.06,35-.33,10.66,5.44,17,12.84,17.42C221,55.91,225.78,48,226,42.37c0-1.72-.39-2.44-1-2.48-.36,0-.55.21-.92.54a10.09,10.09,0,0,1-6.5,2.31c-3.88-.18-6.2-4.45-6-9.72C211.91,19.7,225,8.29,243.81,9.22c11.85.61,19.42,7.3,19.09,17.74a19.27,19.27,0,0,1-8.45,15.91,15.32,15.32,0,0,0-4.77-1c-3.79-.18-5.47,1.8-5.55,4.11s1.5,4.09,4.84,4.25a13.26,13.26,0,0,0,4.55-.57c4,2.49,7.64,7.51,7.4,15-.3,9.63-6,16.72-14.7,16.27-5.34-.26-10.23-3-15-6.5,8.16-14.87,11.36-36.78,17.21-49.94,2.42-5.41,4-6.58,4-7.74,0-.92-1-1.41-2.49-1.5a7.74,7.74,0,0,0-4.47,1.27c-13.36,7.5-17.7,33.72-23.84,51-4.45-2.86-9.26-5.29-14.67-5.56-9-.45-15.19,5.1-15.45,13.47-.25,8.15,5.18,14.3,15.65,14.81,8.59.43,14.77-3.17,19.65-9,6,5.47,12.78,11,22.27,11.46C262.76,93.3,272.37,83.55,272.8,69.88ZM208.31,83.33A6.83,6.83,0,0,1,201.66,76c.12-3.9,2.74-6.87,7.45-6.64,3.52.18,6.71,2.06,9.89,4.75C216.2,79.81,212.92,83.57,208.31,83.33Z"/><path class="cls-1" d="M374.82,67.13c.91-5-1.6-10-7.38-11-9.15-1.67-19.72,7.84-23.58,19.57C339,81.56,337,81.48,336,81.29c-.81-.12-1.41-1.28-1.23-3,.57-5.24,7.34-13,8.33-22.09.62-5.82-2.1-8.49-4.61-8.94-8-1.38-18.53,15.1-24.19,26.89,2.27-10.88,6.38-15.83,6.75-19.36.37-3.31-1.45-6.75-4.14-7.23-3.41-.59-6,3.72-8.83,14-.44,1.55-.85,3.07-1.21,4.51-6.62,9.08-12.38,9.73-15.22,9.37-4.05-.52-5.55-4.42-5.72-9.28,10.94-.34,18.57-7,19.19-14.75.4-5.16-2.48-10-8.15-10.75-10-1.29-20.39,11.6-21.49,25.43-.87,11,5.18,17.17,11.31,18,4.92.62,11.89-1,18.68-9.92a31.53,31.53,0,0,0,0,6.44c.72,3.61,2.25,6.2,5.39,6.74,3,.53,4-3.94,6.7-10.32,4.27-10,10.81-18.88,12.95-18.5.55.09.84.72.75,1.53-.43,4.09-6,11.59-6.85,19.46-.63,5.91,2.05,10.57,6.26,11.3,3.17.55,6.83-.77,11.77-6.86,0,8.2,4.95,13.13,10.33,14.11,11.48,2.1,19.78-8,20.56-12.29.18-1-.25-1.77-.89-1.89s-1.89,1.5-3.66,2.91c-2.23,1.78-5.41,3.63-9.27,2.92-4.31-.79-6-4.56-5.9-9.27C364.92,80.79,373.43,74.72,374.82,67.13ZM295.51,46c.91.12,1.81,1.27,1.62,3.67-.47,5.95-5.76,10.81-11,11.88C287.29,53.54,292.28,45.61,295.51,46Zm69.94,15.22c.92.17,1.74,1.36,1.32,3.7-1.07,5.81-7,10.27-12.54,11C356.23,68.12,362.14,60.66,365.45,61.26Z"/><path class="cls-1" d="M59,12.41c5.33-3,8.5,2.43,6.36,5.7C74,23.53,81.77,14.81,78.67,7.53,75.3-.41,62.79-1.74,55.73,2c-23.81,12.62-13.81,43.12-21,82.07-2.41-16.92-6.1-31.84-12-40.07-4.51-6.32-11-8.78-17-4.54-7.36,5.24-6.25,14.76-4.67,17,.42.58,1,.94,1.59.52,1.25-.89,1-4.69,3.71-6.63s5.3-.34,7.4,2.61c7.28,10.23,9.57,29.34,11.48,40.73a8.15,8.15,0,0,0,1.53,3.57,6.86,6.86,0,0,0,6.52,2.55h.31a5,5,0,0,0,2.59-1l.33-.2v0c2.73-2.24,3.92-7.34,5-13.32C46.18,56.73,42.52,23.16,59,12.41Z"/><path class="cls-1" d="M87.68,116h-.82A1.94,1.94,0,0,0,85,117.2L81,124.81l-3.9-7.61a2,2,0,0,0-1.89-1.2h-.82c-1.24,0-1.7.8-1.1,1.92l5.8,10.85V132a1.44,1.44,0,0,0,1.62,1.57h.59A1.46,1.46,0,0,0,83,132v-3.18l5.87-10.85C89.43,116.82,88.93,116,87.68,116Z"/><path class="cls-1" d="M95.24,119.46c-3.62,0-7.17,2.17-7.17,7.17s3.54,7.19,7.17,7.19,7.17-2.15,7.17-7.19S98.87,119.46,95.24,119.46Zm0,11.33c-2.07,0-3.51-1.52-3.51-4.17s1.44-4.15,3.49-4.15,3.51,1.55,3.51,4.15S97.31,130.79,95.25,130.79Z"/><path class="cls-1" d="M116.72,119.69h-.45c-1,0-1.53.55-1.54,1.61v.62a4.9,4.9,0,0,0-4.55-2.46c-3.47,0-6.12,2.36-6.12,6.71s2.69,6.73,6.16,6.73a4.75,4.75,0,0,0,4.42-2.42v1.31c0,2.83-1.26,4-3.52,4a3.89,3.89,0,0,1-2.88-1.16,1.76,1.76,0,0,0-1.88-.64l-.48.12a1.16,1.16,0,0,0-.71,2c1.22,1.62,3.3,2.49,6,2.49,4.77,0,7.15-2.26,7.15-7.47v-9.81A1.45,1.45,0,0,0,116.72,119.69Zm-5.48,10.52c-2.07,0-3.51-1.47-3.51-4s1.44-4,3.49-4,3.51,1.49,3.51,4S113.3,130.21,111.24,130.21Z"/><path class="cls-1" d="M132.53,119.7h-.45a1.45,1.45,0,0,0-1.62,1.61v5.47c0,2.57-.84,3.93-3,3.93s-3-1.17-3-3.72v-5.68a1.45,1.45,0,0,0-1.62-1.61h-.45a1.45,1.45,0,0,0-1.61,1.61v6c0,4.38,1.65,6.44,5.38,6.44a4.48,4.48,0,0,0,4.29-2.47V132a1.44,1.44,0,0,0,1.62,1.56h.45a1.45,1.45,0,0,0,1.61-1.61V121.31A1.45,1.45,0,0,0,132.53,119.7Z"/><path class="cls-1" d="M143.73,119.55a3.29,3.29,0,0,0-3.2,2.24v-.62c0-1-.58-1.48-1.62-1.48h-.45a1.46,1.46,0,0,0-1.62,1.61V132a1.47,1.47,0,0,0,1.62,1.62h.45a1.47,1.47,0,0,0,1.62-1.62V127c0-2.54.94-3.77,2.78-4.08,1-.17,1.58-.46,1.69-1.46l0-.27C145.15,120.16,144.72,119.55,143.73,119.55Z"/><path class="cls-1" d="M153.59,130.89c-1.73-.06-2.4-.89-2.4-3.19v-5.22h2.19c1.12,0,1.62-.51,1.62-1.41s-.5-1.38-1.62-1.38h-2.19v-1.52c0-1.16-.53-1.65-1.77-1.39l-.43.09c-1.06.23-1.5.73-1.5,1.7v1.12h-.71c-.79,0-1.24.48-1.24,1.38a1.26,1.26,0,0,0,1.35,1.41h.6V128c0,4.23,1.73,5.75,5.49,5.75a5.69,5.69,0,0,0,.7,0,1.37,1.37,0,0,0,1.39-1.6C155,131.31,154.46,130.92,153.59,130.89Z"/><path class="cls-1" d="M162.76,119.46a6.79,6.79,0,0,0-7.11,7.17c0,4.35,2.85,7.16,7.23,7.16a6.81,6.81,0,0,0,5.78-2.5c.69-.88.51-1.5-.6-1.77l-.33-.08c-.84-.2-1.21.13-1.82.63a4.12,4.12,0,0,1-2.86,1,3.42,3.42,0,0,1-3.72-3.59H168c1.12,0,1.69-.54,1.62-1.62C169.38,121.94,166.8,119.46,162.76,119.46Zm-3.36,5.6a3.21,3.21,0,0,1,3.45-3,3.14,3.14,0,0,1,3.38,3Z"/><path class="cls-1" d="M178.67,119.55a3.29,3.29,0,0,0-3.2,2.24v-.62c0-1-.58-1.48-1.62-1.48h-.45a1.46,1.46,0,0,0-1.62,1.61V132a1.47,1.47,0,0,0,1.62,1.62h.45a1.47,1.47,0,0,0,1.62-1.62V127c0-2.54.95-3.77,2.78-4.08,1-.17,1.58-.46,1.69-1.46l0-.27C180.09,120.16,179.66,119.55,178.67,119.55Z"/><path class="cls-1" d="M183.51,119.69H183a1.44,1.44,0,0,0-1.59,1.61V132a1.45,1.45,0,0,0,1.59,1.62h.47a1.46,1.46,0,0,0,1.6-1.62V121.3A1.45,1.45,0,0,0,183.51,119.69Z"/><path class="cls-1" d="M185.39,113.87H185a1.67,1.67,0,0,0-1.77,1l-.68,1.58c-.47,1.08-.21,1.66.61,1.66a1.9,1.9,0,0,0,1.83-1l1-1.59C186.65,114.55,186.3,113.87,185.39,113.87Z"/><path class="cls-1" d="M199.86,119.69h-.45c-1,0-1.61.52-1.61,1.41v1a4.79,4.79,0,0,0-4.52-2.66c-3.46,0-6.06,2.51-6.06,7.17s2.62,7.19,6.08,7.19a4.81,4.81,0,0,0,4.5-2.61v.95c0,.87.59,1.38,1.61,1.38h.45a1.45,1.45,0,0,0,1.62-1.61V121.3A1.45,1.45,0,0,0,199.86,119.69Zm-5.44,11.1c-2.11,0-3.53-1.58-3.53-4.17s1.43-4.15,3.5-4.15,3.52,1.59,3.52,4.15S196.5,130.79,194.42,130.79Z"/><rect class="cls-1" x="210.63" y="116" width="3.84" height="17.56" rx="1.62"/><path class="cls-1" d="M224.27,130.89c-1.72-.06-2.39-.89-2.39-3.19v-5.22h2.18c1.12,0,1.62-.51,1.62-1.41s-.5-1.38-1.62-1.38h-2.18v-1.52c0-1.16-.54-1.65-1.78-1.39l-.43.09c-1,.23-1.5.73-1.5,1.7v1.12h-.71c-.79,0-1.24.48-1.24,1.38a1.26,1.26,0,0,0,1.35,1.41h.6V128c0,4.23,1.73,5.75,5.5,5.75a5.64,5.64,0,0,0,.69,0,1.36,1.36,0,0,0,1.39-1.6C225.7,131.31,225.14,130.92,224.27,130.89Z"/><path class="cls-1" d="M239,119.69h-.45c-1,0-1.62.52-1.62,1.41v1a4.77,4.77,0,0,0-4.51-2.66c-3.46,0-6.07,2.51-6.07,7.17s2.63,7.19,6.09,7.19a4.79,4.79,0,0,0,4.49-2.61v.95c0,.87.6,1.38,1.62,1.38H239a1.45,1.45,0,0,0,1.62-1.61V121.3A1.45,1.45,0,0,0,239,119.69Zm-5.44,11.1c-2.11,0-3.53-1.58-3.53-4.17s1.42-4.15,3.5-4.15,3.52,1.59,3.52,4.15S235.59,130.79,233.51,130.79Z"/><rect class="cls-1" x="243.27" y="115.18" width="3.71" height="18.39" rx="1.62"/><path class="cls-1" d="M251.45,114.26a1.87,1.87,0,1,0,0,3.72,1.87,1.87,0,1,0,0-3.72Z"/><path class="cls-1" d="M251.65,119.69h-.47a1.44,1.44,0,0,0-1.59,1.61V132a1.45,1.45,0,0,0,1.59,1.62h.47a1.46,1.46,0,0,0,1.6-1.62V121.3A1.45,1.45,0,0,0,251.65,119.69Z"/><path class="cls-1" d="M268.09,119.69h-.45c-1,0-1.61.52-1.61,1.41v1a4.79,4.79,0,0,0-4.52-2.66c-3.46,0-6.06,2.51-6.06,7.17s2.63,7.19,6.08,7.19a4.81,4.81,0,0,0,4.5-2.61v.95c0,.87.59,1.38,1.61,1.38h.45a1.45,1.45,0,0,0,1.62-1.61V121.3A1.45,1.45,0,0,0,268.09,119.69Zm-5.44,11.1c-2.11,0-3.53-1.58-3.53-4.17s1.43-4.15,3.5-4.15,3.52,1.59,3.52,4.15S264.73,130.79,262.65,130.79Z"/><path class="cls-1" d="M280.38,119.48a4.48,4.48,0,0,0-4.29,2.48v-.7a1.44,1.44,0,0,0-1.61-1.57H274a1.45,1.45,0,0,0-1.61,1.61V132a1.46,1.46,0,0,0,1.61,1.62h.46a1.46,1.46,0,0,0,1.61-1.62v-5.47c0-2.56.84-3.93,3-3.93s3,1.17,3,3.72V132a1.46,1.46,0,0,0,1.62,1.62h.45a1.46,1.46,0,0,0,1.61-1.62v-6C285.76,121.55,284.11,119.48,280.38,119.48Z"/><path class="cls-1" d="M300.32,119.69h-.45c-1,0-1.62.52-1.62,1.41v1a4.77,4.77,0,0,0-4.51-2.66c-3.47,0-6.07,2.51-6.07,7.17s2.63,7.19,6.08,7.19a4.79,4.79,0,0,0,4.5-2.61v.95c0,.87.6,1.38,1.62,1.38h.45a1.45,1.45,0,0,0,1.61-1.61V121.3A1.45,1.45,0,0,0,300.32,119.69Zm-5.45,11.1c-2.11,0-3.52-1.58-3.52-4.17s1.42-4.15,3.49-4.15,3.52,1.59,3.52,4.15S297,130.79,294.87,130.79Z"/></g></g></svg>