<svg xmlns="http://www.w3.org/2000/svg" xmlns:xlink="http://www.w3.org/1999/xlink" viewBox="0 0 80 80"><defs><style>.cls-1{fill:none;}.cls-2{fill:#f6f6f3;}.cls-3{fill:url(#Nueva_muestra_de_motivo_4);}</style><pattern id="Nueva_muestra_de_motivo_4" data-name="Nueva muestra de motivo 4" width="195.57" height="195.57" patternTransform="translate(1933.27 94.06) scale(0.26)" patternUnits="userSpaceOnUse" viewBox="0 0 195.57 195.57"><rect class="cls-1" width="195.57" height="195.57"/><rect class="cls-2" width="195.57" height="195.57"/></pattern></defs><g id="Capa_2" data-name="Capa 2"><g id="DISEÑO"><path class="cls-3" d="M26.73,33.35H17.6a4.64,4.64,0,0,0,9.13,0Z"/><path class="cls-3" d="M33.72,44.39H30.55a1.79,1.79,0,0,0-2,2c0,4.13,0,8.26,0,12.39v.51h7c0-.1,0-.16,0-.23q0-6.4,0-12.82A1.76,1.76,0,0,0,33.72,44.39Z"/><path class="cls-3" d="M34.28,37.17c2.18-.14,4.2-1.9,4.32-3.82H29.47A4.67,4.67,0,0,0,34.28,37.17Z"/><path class="cls-3" d="M45.92,37.17a4.63,4.63,0,0,0,4.58-3.82H41.36A4.64,4.64,0,0,0,45.92,37.17Z"/><path class="cls-3" d="M61.17,30.45c-1.79-3.15-3.59-6.3-5.36-9.46a.65.65,0,0,0-.67-.34q-15.15,0-30.31,0a.7.7,0,0,0-.71.43q-2.62,4.65-5.26,9.28c-.08.14-.15.28-.24.46H61.35C61.28,30.67,61.23,30.55,61.17,30.45Z"/><path class="cls-3" d="M44.58,44.39c-.66,0-1,.37-1,1.09,0,1.63,0,3.25,0,4.88,0,.72.31,1.06,1,1.07h5.79c.72,0,1-.34,1-1.13V45.52c0-.76-.31-1.12-1-1.13Z"/><path class="cls-3" d="M58,37.17a4.54,4.54,0,0,0,4.32-3.82h-9.1A4.6,4.6,0,0,0,58,37.17Z"/><path class="cls-3" d="M40,0A40,40,0,1,0,80,40,40,40,0,0,0,40,0ZM65,33.26a2.29,2.29,0,0,0-.09.28A7,7,0,0,1,61,38.87c-.32.17-.32.38-.32.67,0,6.89,0,13.79,0,20.69a1.46,1.46,0,0,1-1.63,1.62q-19.08,0-38.16,0c-1.17,0-1.61-.45-1.61-1.62q0-10.35,0-20.69a.67.67,0,0,0-.42-.71,7.08,7.08,0,0,1-3.77-5.06,3.47,3.47,0,0,1,.4-2.56c2.33-4,4.6-8,6.87-12.07a1.74,1.74,0,0,1,1.68-1q15.93,0,31.87,0a1.69,1.69,0,0,1,1.64,1c1.7,3,3.43,6,5.15,9.06q1.13,2,2.26,3.91Z"/><path class="cls-3" d="M51.86,36.51a7.19,7.19,0,0,1-11.87,0,7.2,7.2,0,0,1-11.88,0,7.33,7.33,0,0,1-6.35,3.15V59.32h4.3v-.6c0-4.09,0-8.17,0-12.25,0-2.22,1.18-4,3.21-4.35a20.06,20.06,0,0,1,5.58,0A3.89,3.89,0,0,1,38,46.24c0,4.16,0,8.32,0,12.49v.59H58.2V39.66A7.36,7.36,0,0,1,51.86,36.51Zm1.74,8.67c.07,1.93,0,3.87,0,5.8A3.06,3.06,0,0,1,51,53.84q-3.48.07-7,0A3,3,0,0,1,41.41,51q-.09-3,0-6a3.09,3.09,0,0,1,2.85-3c1.09,0,2.18,0,3.27,0h0c1,0,2,0,3,0A3.1,3.1,0,0,1,53.6,45.18Z"/></g></g></svg>