<svg xmlns="http://www.w3.org/2000/svg" xmlns:xlink="http://www.w3.org/1999/xlink" viewBox="0 0 860 105"><defs><style>.cls-1{fill:none;}.cls-2{fill:#f6f6f3;}.cls-3{fill:#04c386;}.cls-4{fill:url(#Nueva_muestra_de_motivo_4);}</style><pattern id="Nueva_muestra_de_motivo_4" data-name="Nueva muestra de motivo 4" width="195.57" height="195.57" patternTransform="translate(1933.27 94.06) scale(0.26)" patternUnits="userSpaceOnUse" viewBox="0 0 195.57 195.57"><rect class="cls-1" width="195.57" height="195.57"/><rect class="cls-2" width="195.57" height="195.57"/></pattern></defs><g id="Capa_2" data-name="Capa 2"><g id="DISEÑO"><rect class="cls-3" width="860" height="105" rx="52.5"/><path class="cls-4" d="M40.73,45.85H31.59a4.64,4.64,0,0,0,9.14,0Z"/><path class="cls-4" d="M47.72,56.89H44.55a1.79,1.79,0,0,0-2,2v12.9h7c0-.1,0-.16,0-.23,0-4.27,0-8.54,0-12.82A1.77,1.77,0,0,0,47.72,56.89Z"/><path class="cls-4" d="M48.27,49.67c2.19-.14,4.2-1.9,4.33-3.82H43.46A4.67,4.67,0,0,0,48.27,49.67Z"/><path class="cls-4" d="M59.92,49.67a4.63,4.63,0,0,0,4.57-3.82H55.36A4.64,4.64,0,0,0,59.92,49.67Z"/><path class="cls-4" d="M75.16,43q-2.68-4.73-5.36-9.46a.65.65,0,0,0-.67-.34H38.82a.7.7,0,0,0-.71.43q-2.62,4.65-5.26,9.28c-.08.14-.14.28-.23.46H75.34C75.27,43.17,75.22,43.05,75.16,43Z"/><path class="cls-4" d="M58.57,56.89c-.66,0-1,.37-1,1.09,0,1.63,0,3.25,0,4.88,0,.72.31,1.06,1,1.07h5.8c.71,0,1-.34,1-1.13,0-1.59,0-3.18,0-4.78,0-.76-.31-1.12-1-1.13Z"/><path class="cls-4" d="M72,49.67a4.53,4.53,0,0,0,4.31-3.82h-9.1A4.61,4.61,0,0,0,72,49.67Z"/><path class="cls-4" d="M54,12.5a40,40,0,1,0,40,40A40,40,0,0,0,54,12.5ZM79,45.76a1.29,1.29,0,0,0-.08.28A7,7,0,0,1,75,51.37c-.32.17-.32.38-.32.67,0,6.89,0,13.79,0,20.69a1.47,1.47,0,0,1-1.64,1.62q-19.08,0-38.16,0c-1.16,0-1.61-.45-1.61-1.62q0-10.35,0-20.69a.67.67,0,0,0-.42-.71,7.07,7.07,0,0,1-3.76-5.06,3.41,3.41,0,0,1,.39-2.56q3.49-6,6.87-12.07a1.72,1.72,0,0,1,1.68-1q15.95,0,31.87,0a1.7,1.7,0,0,1,1.65,1c1.7,3,3.42,6,5.15,9.06.74,1.31,1.5,2.61,2.25,3.91Z"/><path class="cls-4" d="M65.85,49A7.18,7.18,0,0,1,54,49,7.21,7.21,0,0,1,42.1,49a7.33,7.33,0,0,1-6.35,3.15V71.82h4.3V59c0-2.22,1.18-4,3.22-4.35a20,20,0,0,1,5.57,0A3.91,3.91,0,0,1,52,58.74c0,4.16,0,8.32,0,12.49v.59H72.19V52.16A7.36,7.36,0,0,1,65.85,49Zm1.75,8.67c.06,1.93,0,3.87,0,5.8A3,3,0,0,1,65,66.34q-3.5.07-7,0a3,3,0,0,1-2.6-2.87c0-2-.06-4,0-6a3.09,3.09,0,0,1,2.84-3c1.09,0,2.18,0,3.27,0h0c1,0,2,0,3,0A3.11,3.11,0,0,1,67.6,57.68Z"/></g></g></svg>