<svg xmlns="http://www.w3.org/2000/svg" xmlns:xlink="http://www.w3.org/1999/xlink" viewBox="0 0 238.76 237.41"><defs><style>.cls-1{fill:url(#Nueva_muestra_de_degradado_3);}</style><linearGradient id="Nueva_muestra_de_degradado_3" x1="-768.1" y1="-535.95" x2="-648.86" y2="-329.43" gradientTransform="translate(944.22 212.76) rotate(-24.87)" gradientUnits="userSpaceOnUse"><stop offset="0" stop-color="#78582a"/><stop offset="0.21" stop-color="#e5d379"/><stop offset="0.36" stop-color="#9b8039"/><stop offset="0.49" stop-color="#9b8039"/><stop offset="0.65" stop-color="#e5d379"/><stop offset="0.83" stop-color="#9b8039"/><stop offset="1" stop-color="#e5d379"/></linearGradient></defs><g id="Capa_2" data-name="Capa 2"><g id="DISEÑO"><path class="cls-1" d="M30.27,177.4l-9.9,0-2.63,1.54a.78.78,0,0,1-1.15-.3l-.1-.17a.78.78,0,0,1,.3-1.15l2.63-1.55,4.81-8.61a.77.77,0,0,1,.63-.44.7.7,0,0,1,.59.4l.18.3a1,1,0,0,1,0,1.07l-4,7.08h8.16a1,1,0,0,1,.93.53l.16.28a.74.74,0,0,1,.07.74.65.65,0,0,1-.39.29A.88.88,0,0,1,30.27,177.4Zm7,17.95a8.45,8.45,0,0,1-3.07,1.73,5.78,5.78,0,0,1-2.21.21A6.3,6.3,0,0,1,27.92,195a6.23,6.23,0,0,1-1.6-4.43,7.08,7.08,0,0,1,2.82-4.86,7.06,7.06,0,0,1,5.24-1.91,6.71,6.71,0,0,1,5.7,6.76A7.07,7.07,0,0,1,37.31,195.35Zm-.16-8.13A4.25,4.25,0,0,0,34,185.58a5.52,5.52,0,0,0-3.66,1.51,5.7,5.7,0,0,0-2.16,3.36,4.15,4.15,0,0,0,1.09,3.35c1.84,2.17,4.32,2.21,6.81.11a5.53,5.53,0,0,0,2.11-3.35A4.15,4.15,0,0,0,37.15,187.22Zm17.63,17.71a5.71,5.71,0,0,0-2.39-5.25,6,6,0,0,0-4.76-1.42A7.18,7.18,0,0,0,43.12,201c-2.67,3.25-2.49,6.91.46,9.33l.14.12h0a6.15,6.15,0,0,0,4.53,1.44,6.39,6.39,0,0,0,.87-.18,7.15,7.15,0,0,0,3.47-2.44l.19-.23a.68.68,0,0,0,.18-.52.88.88,0,0,0-.36-.59l-3.67-3a.89.89,0,0,0-.61-.21.78.78,0,0,0-.57.32l0,0a.79.79,0,0,0,.11,1.19l2.82,2.31c-1.81,2-3.92,2.11-5.94.45a4.13,4.13,0,0,1-1.63-3.11,6.49,6.49,0,0,1,4.82-5.83,4.11,4.11,0,0,1,3.38,1A3.92,3.92,0,0,1,53,204.43a.92.92,0,0,0,.54,1l.18.09a.78.78,0,0,0,.74,0A.71.71,0,0,0,54.78,204.93Zm17.67,8.34a.9.9,0,0,0-.43-.5l-.18-.1a.86.86,0,0,0-.65-.1h0a.85.85,0,0,0-.49.43l-3.06,5.5a5.76,5.76,0,0,1-2.57,2.75,3.26,3.26,0,0,1-2.93-.4,3.31,3.31,0,0,1-1.89-2.28,5.87,5.87,0,0,1,1-3.64l3.06-5.49A.77.77,0,0,0,64,208.3l-.18-.1a.77.77,0,0,0-1.14.32L59.59,214a7.43,7.43,0,0,0-1.16,5,5.21,5.21,0,0,0,2.84,3.42,5.34,5.34,0,0,0,4.13.7l.27-.09a7.34,7.34,0,0,0,3.61-3.6l3.07-5.5A.86.86,0,0,0,72.45,213.27Zm14.85,6.64a3.76,3.76,0,0,1,.34,3.79,3.8,3.8,0,0,1-4.43,2.81l1.39,4.59c.1.37.07.64-.1.8a.4.4,0,0,1-.2.11.94.94,0,0,1-.6-.06l-.33-.11a1.08,1.08,0,0,1-.71-.78l-1.46-5-.82-.27-1.85-.66-1.28,3.62a.85.85,0,0,1-.42.5.77.77,0,0,1-.65,0l-.2-.07a.81.81,0,0,1-.51-.42.85.85,0,0,1,0-.65L79.39,217a.79.79,0,0,1,1.08-.51l2.87,1A8.35,8.35,0,0,1,87.3,219.91Zm-4.57-.75-1.86-.66-1.78,5.05,1.85.66c2.6.92,4.15,1,4.89-1.1C86.51,221.21,85.72,220.21,82.73,219.16Zm20.92,3.61L96,221.32a.78.78,0,0,0-1,.67l0,.1a.79.79,0,0,0,.67,1l2.93.55-2,10.67a.81.81,0,0,0,.1.64.83.83,0,0,0,.57.34l.2,0a.92.92,0,0,0,.44,0,.67.67,0,0,0,.21-.09.86.86,0,0,0,.33-.56l2-10.67,2.92.55a.77.77,0,0,0,1-.67l0-.1A.79.79,0,0,0,103.65,222.77Zm15.74,1.17-7.14-.25a.86.86,0,0,0-.63.2.81.81,0,0,0-.24.61L111,236.28a.87.87,0,0,0,.2.63.81.81,0,0,0,.61.24h0l7.14.26a1.08,1.08,0,0,0,.32,0,.77.77,0,0,0,.55-.77v-.1a.79.79,0,0,0-.82-.87l-6.09-.22.15-4.2,5.77.2a.76.76,0,0,0,.87-.8v-.06a.78.78,0,0,0-.81-.87l-5.77-.2.14-4,6.09.22a.87.87,0,0,0,.63-.2.89.89,0,0,0,.24-.61v-.1a.8.8,0,0,0-.21-.62A.81.81,0,0,0,119.39,223.94Zm16.61-.41a3.76,3.76,0,0,1,2,3.24,3.8,3.8,0,0,1-2.7,4.5l3.3,3.48c.25.29.34.54.26.76a.58.58,0,0,1-.45.35l-.24,0-.35.05a1.11,1.11,0,0,1-1-.38l-3.53-3.8-.84.13-2,.24L131,236a.8.8,0,0,1-.73.94l-.22,0a.9.9,0,0,1-.64-.14.86.86,0,0,1-.29-.59l-1.46-11.7a.79.79,0,0,1,.73-.94l3-.38A8.35,8.35,0,0,1,136,223.53Zm-4.43,1.37-2,.24.66,5.32,2-.24c2.74-.34,4.16-.95,3.88-3.17C135.86,225.05,134.72,224.51,131.57,224.9Zm14.18-4.4-.2.05a.78.78,0,0,0-.6,1l3,11.4h0a.78.78,0,0,0,1,.59l.2,0h0a.77.77,0,0,0,.56-1l-3-11.4A.78.78,0,0,0,145.75,220.5Zm.29-5-.17.05h0a1,1,0,0,0-.71.79l-.42,2a.8.8,0,0,0,.17.78.54.54,0,0,0,.54.11h0a1.08,1.08,0,0,0,.8-.81l.5-2a.82.82,0,0,0-.13-.8A.6.6,0,0,0,146,215.48Zm23.4,9.89a.77.77,0,0,1,.25.69.71.71,0,0,1-.49.51l-.25.1a.94.94,0,0,1-1.08-.22l-1.75-1.75-6.42,2.58,0,2.47a.94.94,0,0,1-.63.91l-.23.1-.11,0a.76.76,0,0,1-.62-.07.78.78,0,0,1-.29-.67l.37-12.91a1,1,0,0,1,.63-.91l.35-.14a.92.92,0,0,1,1.09.22Zm-9.58-7-.12,7.06,5.1-2.06Zm22.06-14a.77.77,0,0,0-1.17-.2l-.17.11a.87.87,0,0,0-.37.55.91.91,0,0,0,.17.63l6.84,9.61a.78.78,0,0,0,.87.35,1.05,1.05,0,0,0,.3-.15l.17-.12a.78.78,0,0,0,.2-1.17Zm10.67-7.56,2.18-2a.88.88,0,0,0,.31-.59.84.84,0,0,0-.25-.6l-.07-.07a.84.84,0,0,0-.58-.31.86.86,0,0,0-.61.25l-5.78,5.29a.83.83,0,0,0-.3.58.86.86,0,0,0,.25.61l.07.07a.78.78,0,0,0,1.19,0l2.2-2,7.32,8a.79.79,0,0,0,.81.27,1,1,0,0,0,.38-.22l.15-.14a.78.78,0,0,0,0-1.19Zm22.69-8.17a.76.76,0,0,1-.18.68l-.18.21a1,1,0,0,1-1.06.33l-2.37-.7-4.38,5.35,1.15,2.18a1,1,0,0,1-.11,1.11l-.16.19a.89.89,0,0,1-.43.31.82.82,0,0,1-.22,0,.78.78,0,0,1-.58-.45l-5.88-11.49a1,1,0,0,1,.11-1.1l.24-.3a1,1,0,0,1,1.07-.32l12.42,3.5A.79.79,0,0,1,215.28,188.72Zm-12.3-2,3.29,6.25,3.48-4.26Zm20.55-12.39a.87.87,0,0,0-.65-.12,1,1,0,0,0-.51.42l-2.65,4.5-9.35-5.51a.78.78,0,0,0-1.15.3l-.11.17a.87.87,0,0,0-.12.65.9.9,0,0,0,.42.51l10.16,6a.85.85,0,0,0,.66.11.87.87,0,0,0,.49-.41l3.19-5.41a.85.85,0,0,0,.12-.64.86.86,0,0,0-.42-.51Zm-6.18-14.24a.79.79,0,0,0-.65-.05.88.88,0,0,0-.46.47l-.08.19a.78.78,0,0,0,.43,1.11l10.8,4.75a.8.8,0,0,0,.6.06.84.84,0,0,0,.51-.49l.08-.18a.85.85,0,0,0,0-.66.83.83,0,0,0-.47-.45Zm18-14.9a.73.73,0,0,1,.1.7l-.07.26a1,1,0,0,1-.85.72l-2.46.29-1.93,6.64,1.91,1.56a.93.93,0,0,1,.33,1.06l-.07.24a.74.74,0,0,1-.47.55h0a.76.76,0,0,1-.69-.19l-9.92-8.27a.94.94,0,0,1-.33-1.06l.1-.36a1,1,0,0,1,.85-.72L234.68,145A.75.75,0,0,1,235.38,145.21Zm-12.09,3,5.47,4.46,1.54-5.29ZM237.7,125.5,226,124.21a.77.77,0,0,0-.92.75l0,.2a.79.79,0,0,0,.75.93l9.49,1L224.66,133a1,1,0,0,0-.59.89l0,.42a.86.86,0,0,0,.16.64.81.81,0,0,0,.58.28l11.72,1.3a.84.84,0,0,0,.39,0,.75.75,0,0,0,.25-.13.85.85,0,0,0,.29-.58l0-.21a.86.86,0,0,0-.15-.64.88.88,0,0,0-.59-.29l-9.56-1.05,10.69-5.95a1,1,0,0,0,.59-.88l0-.37A.79.79,0,0,0,237.7,125.5Zm.33-20.57,0,.27a.94.94,0,0,1-.55,1l-2.21,1.11.44,6.9,2.33.82a.94.94,0,0,1,.68.88v.25a.76.76,0,0,1-.25.68.47.47,0,0,1-.2.1.79.79,0,0,1-.52,0l-12.14-4.39a.94.94,0,0,1-.67-.88l0-.38a.93.93,0,0,1,.56-1L237,104.33a.76.76,0,0,1,.73,0A.71.71,0,0,1,238,104.93Zm-10.67,6.32,6.67,2.33-.36-5.49ZM1.54,118.88l.08,0,10.9-3.68a1.56,1.56,0,0,0,1.16-1.53l.05-.94a1.6,1.6,0,0,0-1-1.64L2.21,106.37a1.27,1.27,0,0,0-1.2,0,1.27,1.27,0,0,0-.53,1.08l0,.59a1.51,1.51,0,0,0,1.05,1.6l8,3.34-8.3,2.56A1.54,1.54,0,0,0,0,117l0,.59a1.3,1.3,0,0,0,.43,1.13A1.26,1.26,0,0,0,1.54,118.88Zm4.2-31.95L16,89.9a1.45,1.45,0,0,0,.87,0,1,1,0,0,0,.24-.1,1.41,1.41,0,0,0,.65-.89l.12-.43a1.4,1.4,0,0,0-.07-1.11,1.35,1.35,0,0,0-.89-.65l-10.22-3a1.4,1.4,0,0,0-1.11.06,1.46,1.46,0,0,0-.65.9l-.12.43a1.4,1.4,0,0,0,.07,1.11A1.41,1.41,0,0,0,5.74,86.93Zm8.37-21.49L25.49,67.1a1.83,1.83,0,0,0,.78,0,1.63,1.63,0,0,0,.95-.8l.46-.82a1.57,1.57,0,0,0-.16-1.92l-7.23-8.94A1.28,1.28,0,0,0,19.23,54a1.26,1.26,0,0,0-1,.73l-.29.51a1.51,1.51,0,0,0,.2,1.9l5.65,6.6L15.25,62.3a1.52,1.52,0,0,0-1.73.8l-.29.51a1.13,1.13,0,0,0,.88,1.83Zm32.1-23.77a1.31,1.31,0,0,0,0-2l-.09-.09a1.3,1.3,0,0,0-2,0L41,42.72,39.25,41l2.83-2.89a1.43,1.43,0,0,0,.48-1,1.29,1.29,0,0,0-.44-.92,1.27,1.27,0,0,0-.92-.41,1.46,1.46,0,0,0-1,.5l-2.83,2.89-1.7-1.67,3.06-3.12a1.3,1.3,0,0,0,0-2l-.1-.1a1.29,1.29,0,0,0-2,0l-4.36,4.45a1.4,1.4,0,0,0-.46,1,1.37,1.37,0,0,0,.48,1l7.6,7.45a1.3,1.3,0,0,0,1.31.42,1.65,1.65,0,0,0,.69-.44ZM68.13,25.53a1.72,1.72,0,0,1-1.87,0l-3.21-1.79-.42.25-1.11.66L62.93,27a1.43,1.43,0,0,1,.21,1.09,1.37,1.37,0,0,1-.7.85l-.41.24a1.66,1.66,0,0,1-.43.2,1.31,1.31,0,0,1-.65,0,1.46,1.46,0,0,1-.86-.71l-5.45-9.14a1.3,1.3,0,0,1,.49-1.94l2.77-1.65c3.57-2.13,5.8-1.85,7.45.92a4.09,4.09,0,0,1,0,4.71l3.18,1.66c.57.3.85.62.86,1s-.26.71-.82,1.05Zm-5.52-6.82a1.71,1.71,0,0,0-1.3-1,3.69,3.69,0,0,0-2,.69l-1.1.66,2,3.35,1.1-.66C63,20.74,63.34,19.94,62.61,18.71Zm27-16-6,1.65h0A1.34,1.34,0,0,0,82.7,5a1.41,1.41,0,0,0-.08,1.1l2.8,10.27a1.4,1.4,0,0,0,.64.91,1.45,1.45,0,0,0,1.1.09l6-1.65h0a1.42,1.42,0,0,0,.87-.62,1.44,1.44,0,0,0,.08-1.11l0-.12a1.31,1.31,0,0,0-1.74-1L88.18,14l-.67-2.41,3.91-1.07h0a1.48,1.48,0,0,0,.89-.63,1.3,1.3,0,0,0,.08-1,1.26,1.26,0,0,0-1.71-.9L86.81,9l-.62-2.3L90.4,5.54h0a1.39,1.39,0,0,0,.87-.63,1.41,1.41,0,0,0,.08-1.1l0-.14A1.29,1.29,0,0,0,89.62,2.67Zm55,2.56a3,3,0,0,1-2.15,2.59,3,3,0,0,1,1.5,3.35,3.22,3.22,0,0,1-2.41,2.74,9.49,9.49,0,0,1-4.14,0l-3.4-.61a1.28,1.28,0,0,1-1.15-1.64l1.85-10.48a1.4,1.4,0,0,1,.55-1A1.41,1.41,0,0,1,136.41,0L139.6.6C143.49,1.28,145.1,2.76,144.67,5.23Zm-4.2,3.84a4.11,4.11,0,0,0-2-.71l-1.66-.29-.51,2.84,1.64.29c2.24.4,2.66-.23,2.79-1A1.16,1.16,0,0,0,140.47,9.07Zm.12-3.1a1.16,1.16,0,0,0,.68-1A1,1,0,0,0,141,4a4.06,4.06,0,0,0-1.88-.64l-1.39-.25-.47,2.67,1.42.26A3.48,3.48,0,0,0,140.59,6Zm26,17.48a1.45,1.45,0,0,0,1,.12l.08,0a1.44,1.44,0,0,0,.78-.79l.05-.12a1.29,1.29,0,0,0-.69-1.88l-4-1.83,1-2.27,3.67,1.69a1.33,1.33,0,1,0,1.11-2.41l-3.67-1.69,1-2.17,4,1.83a1.28,1.28,0,0,0,1.88-.69l.06-.13a1.28,1.28,0,0,0-.69-1.87l-5.66-2.61a1.39,1.39,0,0,0-1.1-.1,1.44,1.44,0,0,0-.78.79L160.28,19a1.29,1.29,0,0,0,.69,1.88Zm17.46,10.92a1.29,1.29,0,0,0,2-.18l4.27-5.14-1,8.56a1.82,1.82,0,0,0,.67,1.73l.48.39a1.36,1.36,0,0,0,1.25.35,1.63,1.63,0,0,0,.74-.53l6.81-8.18a1.4,1.4,0,0,0,.38-1,1.43,1.43,0,0,0-.56-1l-.34-.28a1.3,1.3,0,0,0-2,.18l-4.25,5.12,1-8.52a1.8,1.8,0,0,0-.68-1.74l-.49-.41a1.45,1.45,0,0,0-1-.38,1.43,1.43,0,0,0-1,.56l-6.81,8.19a1.29,1.29,0,0,0,.19,2ZM204,53.93a1.39,1.39,0,0,0,.3,1.06l3.58,5.1a1.26,1.26,0,0,0,1.44.61,1.86,1.86,0,0,0,.53-.26l.11-.08a1.29,1.29,0,0,0,.34-2l-2.51-3.58,2.05-1.44,2.33,3.31a1.33,1.33,0,1,0,2.17-1.52L212,51.85l2-1.37,2.51,3.58a1.42,1.42,0,0,0,.91.63,1.37,1.37,0,0,0,1.07-.29l.11-.08a1.3,1.3,0,0,0,.34-2l-3.58-5.1a1.4,1.4,0,0,0-.9-.64,1.41,1.41,0,0,0-1.07.3L204.67,53A1.44,1.44,0,0,0,204,53.93ZM75.17,136.15l0-.09a48.94,48.94,0,0,1-1.62-18.15,2,2,0,0,1,.74-1.4,2.09,2.09,0,0,1,1.52-.46,2.06,2.06,0,0,1,1.85,2.24,45.24,45.24,0,0,0,1.6,17.07c.22.76.48,1.55.81,2.49a.17.17,0,0,1,0,.18.23.23,0,0,1-.1.07h-.06A6.93,6.93,0,0,1,75.17,136.15Zm58.29-28.41,0,0S133.46,107.75,133.46,107.74Zm37.91.8a49.26,49.26,0,0,1,.4,26.09,2.3,2.3,0,0,1-.15.57,49.79,49.79,0,0,1-7.71,16.17v0a.86.86,0,0,1-.1.16,50.14,50.14,0,0,1-11.46,11.34l.57,4.31a2.05,2.05,0,0,1-1.46,2.25l-28.38,8.25a2.06,2.06,0,0,1-2.41-1L118.22,172a50.34,50.34,0,0,1-13.79-3.37l-.21-.11a49.81,49.81,0,0,1-25-22.42v-.18a6.84,6.84,0,0,1,2.87-2.82.16.16,0,0,1,.15,0,.17.17,0,0,1,.11.09,45.79,45.79,0,0,0,33.59,24.36c-1.78-3.31-16-29.9-20-37.17l-.25-.45c-1-1.71-3.92-6.92-4.63-12.46a26.65,26.65,0,0,1-.17-4.64,10.36,10.36,0,0,1-5.15-1.22,10.17,10.17,0,0,1-4.43-13,6,6,0,0,0-3.63.23A2.11,2.11,0,0,1,76,98.75,2.07,2.07,0,0,1,75,97.48a2.15,2.15,0,0,1,1.39-2.54,10.28,10.28,0,0,1,7.5.16,10.26,10.26,0,0,1,2.7-1.75,22.41,22.41,0,0,1-.74-7.46v-.11c0-.13.28-2.17.34-2.47l0-.08c1.1-5.42,4.35-10.4,9.65-14.79,14-11.58,9.25-18.06,9-18.33a2.08,2.08,0,0,1,3-2.81l10,9.15,18.68,17,0,0q.57.52,1.08,1a4.74,4.74,0,0,0,1.9,1.2h0l.27.08h0C155.22,80.55,166.7,92.48,171.37,108.54ZM90.59,92.46a11,11,0,0,1,7.61,3.19c.36-.41,1.47-1.64,2.16-2.31l.08-.07c.12-.12,12.33-11.12,12.76-24.49a22.51,22.51,0,0,0-3.52-12.72c-1,5-4.77,10.21-11.21,15.54-4.82,4-7.58,8.45-8.38,13.24A17.38,17.38,0,0,0,90.59,92.46Zm.85,16.25A28,28,0,0,1,95.64,99l0,0-.18-.22c-.08-.09-.15-.18-.23-.26L95,98.28l-.07-.07-.2-.18-.25-.19-.09-.07-.16-.13a6,6,0,0,0-1.1-.6,6.18,6.18,0,0,0-7.8,2.69A6.07,6.07,0,0,0,87.75,108l.48.23.19.08.27.1A6.26,6.26,0,0,0,91.44,108.71Zm32.3-16.78c-1.47,4.19-2.92,7.4-9.09,13.24l-.55.54c-12,12.55-10.19,23.17-7.79,28a.81.81,0,0,0,.81.49.77.77,0,0,0,.63-.49c4.72-12.18,14.54-21.13,18.94-25.36,1.55-1.5,5.14-4.59,5.23-4.69,5.24-5.24,6.14-8.14,6.42-8.69a67.62,67.62,0,0,1-2-15.63,186.61,186.61,0,0,0-15-14.38.26.26,0,0,0-.41.32A41.15,41.15,0,0,1,125,78.07a1.12,1.12,0,0,1-1,1.27,1.14,1.14,0,0,1-.84-.22,1.1,1.1,0,0,1-.44-.74,41.59,41.59,0,0,0-5.25-14.56.26.26,0,0,0-.32-.12.28.28,0,0,0-.18.3,25.12,25.12,0,0,1,.3,4.91c-.49,14.78-12.71,26.14-14.11,27.38C88.33,111,99,127.34,99.29,127.76a.62.62,0,0,0,1.16-.31c.1-6,2.66-14.45,12.65-23.9,5.84-5.54,7.12-8.39,8.53-12.42a1.11,1.11,0,0,1,.57-.65l.18-.07a1.22,1.22,0,0,1,.82.07A1.18,1.18,0,0,1,123.74,91.93Zm20.49,44.71a18.2,18.2,0,0,1-1.69-.76,31.89,31.89,0,0,1-5.16-3.14,37.71,37.71,0,0,1-10.48-12,2,2,0,0,1,0-1.77,2.06,2.06,0,0,1,1.14-1.34,38.4,38.4,0,0,1,15.81-2.83q1.47.06,2.94.24A66.1,66.1,0,0,1,140,100.56a37.41,37.41,0,0,1-6.49,7.18c.15-.18-23.75,18.49-23.81,38.11l13.87,26,24.38-7.09Zm22.47.51-.83.25a33.45,33.45,0,0,1-16.83.76l2.68,20.07A45.93,45.93,0,0,0,166.7,137.15Zm-1-5.64c-5.5-8.06-12.91-12.31-22-12.64a35.49,35.49,0,0,0-12,1.74h0l0,0a35,35,0,0,0,8.3,8.9c7.38,5.43,15.92,6.71,25.42,3.72-5.49-2.07-16.79-6.24-21.51-8h0l-.29-.11c-1.47-.54-1.51-.66-1.44-.86s.15-.25,1,0A184.14,184.14,0,0,1,165.7,131.51Zm3.42-6.5a45.22,45.22,0,0,0-16-37.25.16.16,0,0,1-.06-.08c-.26-.23-1.27-1.08-2.83-2.18l-.41-.29a46,46,0,0,0-8.26-4.59l-.38-.15a5,5,0,0,0-.68-.25c0,.22,0,.47,0,.72a66.24,66.24,0,0,0,2.93,17,61.89,61.89,0,0,0,9.13,18.34,30.28,30.28,0,0,1,10.88,6.35,35.85,35.85,0,0,1,4.61,5.08c-2.42-7.83-8.08-20.08-11.34-26.88-.69-1.44-.64-1.54-.45-1.64s.27-.15,1.06,1.17C164.1,111.69,167.46,119.89,169.12,125Zm-35.66-17.27,0,0S133.46,107.75,133.46,107.74ZM78.94,141a7.17,7.17,0,0,1-6.84-3.76.17.17,0,0,0-.18-.08.15.15,0,0,0-.11.17,7.19,7.19,0,0,1-1,4.11,7.1,7.1,0,0,1-2.81,2.73.15.15,0,0,0,.09.29A7.22,7.22,0,0,1,75,148.21a.14.14,0,0,0,.18.08.17.17,0,0,0,.11-.17A7.22,7.22,0,0,1,79,141.28.15.15,0,0,0,78.94,141Zm62.8-73.64a6.22,6.22,0,0,1,5.9,3.24.13.13,0,0,0,.16.07.14.14,0,0,0,.1-.14,6.17,6.17,0,0,1,.81-3.55,6.11,6.11,0,0,1,2.43-2.35.13.13,0,0,0-.08-.25,6.23,6.23,0,0,1-5.9-3.25.12.12,0,0,0-.15-.06.12.12,0,0,0-.1.14,6.21,6.21,0,0,1-3.24,5.9A.13.13,0,0,0,141.74,67.35Z"/></g></g></svg>