<svg xmlns="http://www.w3.org/2000/svg" xmlns:xlink="http://www.w3.org/1999/xlink" viewBox="0 0 860 105"><defs><style>.cls-1{fill:none;}.cls-2{fill:#f6f6f3;}.cls-3{fill:#04c386;}.cls-4{fill:url(#Nueva_muestra_de_motivo_4);}</style><pattern id="Nueva_muestra_de_motivo_4" data-name="Nueva muestra de motivo 4" width="195.57" height="195.57" patternTransform="translate(1833.33 -1.8) scale(0.26)" patternUnits="userSpaceOnUse" viewBox="0 0 195.57 195.57"><rect class="cls-1" width="195.57" height="195.57"/><rect class="cls-2" width="195.57" height="195.57"/></pattern></defs><g id="Capa_2" data-name="Capa 2"><g id="DISEÑO"><rect class="cls-3" width="860" height="105" rx="52.5"/><path class="cls-4" d="M35.92,54a18.15,18.15,0,0,0,12,15.63C45.56,66.08,44,60.52,43.83,54Z"/><path class="cls-4" d="M46.74,54c.33,9.91,4,16.69,7.25,16.69S60.92,63.86,61.25,54Z"/><path class="cls-4" d="M61.25,51.05c-.33-9.91-4-16.69-7.26-16.69s-6.92,6.78-7.25,16.69Z"/><path class="cls-4" d="M47.9,35.42a18.15,18.15,0,0,0-12,15.63h7.91C44,44.48,45.56,38.92,47.9,35.42Z"/><path class="cls-4" d="M60.09,69.58A18.17,18.17,0,0,0,72.07,54H64.15C64,60.52,62.43,66.08,60.09,69.58Z"/><path class="cls-4" d="M54,12.5a40,40,0,1,0,40,40A40,40,0,0,0,54,12.5Zm0,61.05A21,21,0,1,1,75,52.5,21.07,21.07,0,0,1,54,73.55Z"/><path class="cls-4" d="M60.09,35.42c2.34,3.5,3.87,9.06,4.06,15.63h7.92A18.17,18.17,0,0,0,60.09,35.42Z"/></g></g></svg>