<svg xmlns="http://www.w3.org/2000/svg" xmlns:xlink="http://www.w3.org/1999/xlink" viewBox="0 0 80 80"><defs><style>.cls-1{fill:none;}.cls-2{fill:#f6f6f3;}.cls-3{fill:url(#Nueva_muestra_de_motivo_4);}</style><pattern id="Nueva_muestra_de_motivo_4" data-name="Nueva muestra de motivo 4" width="195.57" height="195.57" patternTransform="translate(1983.24 96.1) scale(0.26)" patternUnits="userSpaceOnUse" viewBox="0 0 195.57 195.57"><rect class="cls-1" width="195.57" height="195.57"/><rect class="cls-2" width="195.57" height="195.57"/></pattern></defs><g id="Capa_2" data-name="Capa 2"><g id="DISEÑO"><path class="cls-3" d="M49,23H31a8,8,0,0,0-8,8V49a8,8,0,0,0,8,8H49a8,8,0,0,0,8-8V31A8,8,0,0,0,49,23ZM40,50A10,10,0,1,1,50,40,10,10,0,0,1,40,50ZM50.61,32a2.61,2.61,0,1,1,2.6-2.61A2.61,2.61,0,0,1,50.61,32Z"/><path class="cls-3" d="M40,0A40,40,0,1,0,80,40,40,40,0,0,0,40,0ZM60.56,49A11.61,11.61,0,0,1,49,60.56H31A11.61,11.61,0,0,1,19.44,49V31A11.61,11.61,0,0,1,31,19.44H49A11.61,11.61,0,0,1,60.56,31Z"/><path class="cls-3" d="M40,33.63A6.37,6.37,0,1,0,46.37,40,6.38,6.38,0,0,0,40,33.63Z"/></g></g></svg>