<svg xmlns="http://www.w3.org/2000/svg" xmlns:xlink="http://www.w3.org/1999/xlink" viewBox="0 0 80 80"><defs><style>.cls-1{fill:none;}.cls-2{fill:#f6f6f3;}.cls-3{fill:url(#Nueva_muestra_de_motivo_4);}</style><pattern id="Nueva_muestra_de_motivo_4" data-name="Nueva muestra de motivo 4" width="195.57" height="195.57" patternTransform="translate(2383.01 440.45) scale(0.26)" patternUnits="userSpaceOnUse" viewBox="0 0 195.57 195.57"><rect class="cls-1" width="195.57" height="195.57"/><rect class="cls-2" width="195.57" height="195.57"/></pattern></defs><g id="Capa_2" data-name="Capa 2"><g id="DISEÑO"><path class="cls-3" d="M49.88,21.43V15.69c0-.83-.19-1-1-.7L31,20.91l-1.36.45,0,.07Z"/><path class="cls-3" d="M55.07,24.5H24.93c-.86,0-.93.07-.93.92V59.93c0,.78.09.86.89.86H55.07c.84,0,.91-.07.91-.89V25.39C56,24.57,55.91,24.5,55.07,24.5ZM30.51,31.33h7.15a1.52,1.52,0,1,1,0,3H30.5a1.53,1.53,0,1,1,0-3.05Zm19.69,24a2.06,2.06,0,0,1-.55.06H30.33a1.53,1.53,0,1,1,0-3H49.77a1.52,1.52,0,0,1,.43,3ZM28.9,47.78a1.5,1.5,0,0,1,1.61-1.52h7.15a1.52,1.52,0,1,1,0,3c-1.18,0-2.37,0-3.55,0s-2.4,0-3.6,0A1.5,1.5,0,0,1,28.9,47.78Zm21.3-7.36a2.06,2.06,0,0,1-.55.06H30.33a1.53,1.53,0,1,1,0-3H49.77a1.49,1.49,0,0,1,1.5,1.25A1.5,1.5,0,0,1,50.2,40.42Z"/><path class="cls-3" d="M40,0A40,40,0,1,0,80,40,40,40,0,0,0,40,0ZM56.15,63.84H23.83l-.66-.24a3.63,3.63,0,0,1-2.26-3.48c0-1.49,0-3,0-4.47V24a3.68,3.68,0,0,1,2.88-4L48,12a3.56,3.56,0,0,1,4.78,2.38A5.36,5.36,0,0,1,53,15.68c0,1.72,0,3.45,0,5.18v.6c.83,0,1.61,0,2.38,0a3.56,3.56,0,0,1,3.72,3.6c0,.18,0,.37,0,.56,0,11.24,0,22.49,0,33.74C59.1,61.58,58.39,63.17,56.15,63.84Z"/></g></g></svg>