<svg xmlns="http://www.w3.org/2000/svg" viewBox="0 0 542.15 43.26"><defs><style>.cls-1{fill:#278067;}</style></defs><g id="Capa_2" data-name="Capa 2"><g id="DISEÑO"><path class="cls-1" d="M309.4,41v-3.6a9.26,9.26,0,0,0,2.06.26c2,0,3.09-1.69,3.75-3.71l-7.61-19.4h4.74l5,14.62h.25l5-14.62h4.67L320,33c-2.24,5.7-3.86,8.38-8.16,8.38A9.22,9.22,0,0,1,309.4,41Z"/><path class="cls-1" d="M329.76,23.7c0-5.95,3.93-9.7,9.92-9.7s9.84,3.75,9.84,9.7-3.85,9.74-9.84,9.74S329.76,29.62,329.76,23.7Zm15.5,0c0-3.71-2.28-5.95-5.66-5.95s-5.54,2.24-5.54,5.95,2.35,6,5.62,6S345.26,27.45,345.26,23.7Z"/><path class="cls-1" d="M353,27.78c0-3.93,3.35-6.1,7.35-6.1a11.67,11.67,0,0,1,5.7,1.47c0-3.82-1.84-5.51-5.26-5.51a14.18,14.18,0,0,0-6,1.43V15.4A16,16,0,0,1,361.43,14c7.34,0,8.63,4.85,8.63,10.59v2.38c0,2.5.07,3.2,1.25,3.2a6.5,6.5,0,0,0,.81-.11v3a7,7,0,0,1-2.21.41c-2.2,0-3.05-1.25-3.23-3.42h-.22a8.08,8.08,0,0,1-6.69,3.45C355.55,33.47,353,31.49,353,27.78Zm13.05-1.84a8.68,8.68,0,0,0-4.49-1.32c-2.53,0-4.26,1.07-4.26,2.94s1.21,2.64,3.34,2.64C363.3,30.2,365.8,28,366.06,25.94Z"/><path class="cls-1" d="M376.64,14.55h2.71a32.19,32.19,0,0,1,.7,3.16h.19A6.69,6.69,0,0,1,386.37,14a6.39,6.39,0,0,1,6.17,3.71h.19A7.07,7.07,0,0,1,398.9,14c4.93,0,7.79,3.05,7.79,9v9.85h-4.15V23.41c0-3.2-1-5.63-4.15-5.63-2.68,0-4.63,2.21-4.63,5.66v9.45h-4.15V23.41c0-3.2-1.11-5.63-4-5.63s-4.78,2.25-4.78,5.7l0,9.41h-4.15Z"/><path class="cls-1" d="M411.5,23.7c0-5.95,3.93-9.7,9.92-9.7s9.85,3.75,9.85,9.7-3.86,9.74-9.85,9.74S411.5,29.62,411.5,23.7Zm15.51,0c0-3.71-2.28-5.95-5.66-5.95S415.8,20,415.8,23.7s2.35,6,5.62,6S427,27.45,427,23.7Z"/><path class="cls-1" d="M433.76,14.52h4.49L443.61,29h.3l5.36-14.47h4.37l-7.31,18.37h-5.22Z"/><path class="cls-1" d="M456.73,8.6a2.91,2.91,0,0,1,3.16-3,2.85,2.85,0,0,1,3.08,3,2.9,2.9,0,0,1-3.08,3.09A3,3,0,0,1,456.73,8.6Zm1.13,5.92H462V32.89h-4.16Z"/><path class="cls-1" d="M466.28,14.52h4.48L476.13,29h.29l5.36-14.47h4.38l-7.32,18.37h-5.21Z"/><path class="cls-1" d="M488.69,23.63c0-5.85,3.82-9.67,9.18-9.67,5.55,0,8.6,3.49,8.6,8.53a17.23,17.23,0,0,1-.22,2.61H493c0,2.46,1.8,4.85,6.32,4.85a17.25,17.25,0,0,0,6-1.07v3.31a14.76,14.76,0,0,1-6.28,1.28C492.29,33.47,488.69,29.58,488.69,23.63Zm13.52-1.4a4.29,4.29,0,0,0,0-.7c0-2.28-1.4-4-4.45-4A4.73,4.73,0,0,0,493,22.23Z"/><path class="cls-1" d="M511.54,14.55h2.72c.29,1,.51,2.46.7,3.46h.18a7.41,7.41,0,0,1,6.51-4V19c-2.87,0-5.92,1.62-5.92,5.55l0,8.38h-4.15Z"/><path class="cls-1" d="M524.36,23.63c0-5.85,3.82-9.67,9.19-9.67,5.55,0,8.6,3.49,8.6,8.53a18.66,18.66,0,0,1-.22,2.61H528.66c0,2.46,1.8,4.85,6.32,4.85a17.3,17.3,0,0,0,6-1.07v3.31a14.8,14.8,0,0,1-6.29,1.28C528,33.47,524.36,29.58,524.36,23.63Zm13.52-1.4a4.29,4.29,0,0,0,0-.7c0-2.28-1.4-4-4.44-4a4.73,4.73,0,0,0-4.85,4.74Z"/><path class="cls-1" d="M0,23c0-7.31,4.9-12.24,12.57-12.24a14,14,0,0,1,5.55,1v3.72a11,11,0,0,0-5.61-1.24c-5.16,0-8.69,3.33-8.69,8.75s3.69,8.79,8.75,8.79a11.06,11.06,0,0,0,5.62-1.24v3.69a12.94,12.94,0,0,1-5.62,1C5.13,35.28,0,30.29,0,23Z"/><path class="cls-1" d="M24.56,11.22h3.69l.06,20.21h9.6v3.3H24.56Z"/><path class="cls-1" d="M57.47,28.88H47.35l-2.19,5.88H41.34l9-23.51h4l9,23.51H59.66Zm-1.24-3.3-3.69-9.89h-.29l-3.69,9.89Z"/><path class="cls-1" d="M64.66,11.25h4.08l7.41,20h.2l7.41-20h3.79L78.41,34.76H73.8Z"/><path class="cls-1" d="M93.1,11.25h14.18v3.3H96.76v6.79h9.47v3.33H96.76l0,6.79h10.52v3.3H93.1Z"/><path class="cls-1" d="M121,11.25h4l5.23,19.1h.19l5.23-19.1h4.11L145,30.35h.17l5.26-19.1h4l-7.12,23.51h-4.54l-4.93-17.63h-.2l-4.93,17.63h-4.57Z"/><path class="cls-1" d="M160.05,11.25h3.66l0,23.48h-3.69Z"/><path class="cls-1" d="M171.84,11.25H186v3.33H175.5v6.79H185v3.3H175.5l0,10.09h-3.69Z"/><path class="cls-1" d="M192.09,11.25h3.66l0,23.48h-3.69Z"/><path class="cls-1" d="M254.51,37.5h0a2.83,2.83,0,0,0-2.84,2.82,2.89,2.89,0,0,0,2.83,2.94h0a2.83,2.83,0,0,0,2-.82,3,3,0,0,0,.87-2.06,2.85,2.85,0,0,0-.85-2.05A2.82,2.82,0,0,0,254.51,37.5Z"/><path class="cls-1" d="M266.28,30.24c0-.11-.1-.21-.15-.32a3.24,3.24,0,0,0-.2-.36,1.59,1.59,0,0,0-.13-.22l-.19-.19A16.83,16.83,0,0,0,264,27.57c-.22-.19-.44-.38-.67-.56a15.2,15.2,0,0,0-1.95-1.32l-.29-.14a13.83,13.83,0,0,0-2.32-1l-.08,0a14.5,14.5,0,0,0-2.64-.51L256,24l-.34,0c-.37,0-.73,0-1.1,0s-.73,0-1.09,0l-.35,0-.12,0a14.33,14.33,0,0,0-2.64.51l-.09,0a14.18,14.18,0,0,0-2.32,1l-.29.14a15.2,15.2,0,0,0-2,1.32l-.67.56a18.12,18.12,0,0,0-1.58,1.58l-.19.19a1.59,1.59,0,0,0-.13.22,3.24,3.24,0,0,0-.2.36,2.22,2.22,0,0,0-.14.32c-.05.11-.09.22-.15.33l0,.34a3.16,3.16,0,0,0,.31,1s0,.05,0,.08a2.55,2.55,0,0,0,.47.61l.06.09,0,0a2.53,2.53,0,0,0,.65.4h0a2.07,2.07,0,0,0,.61.12c.1,0,.2.06.29.06h.06a2.34,2.34,0,0,0,1.58-.69c.21-.2.41-.41.61-.62s.59-.58.89-.85c.14-.12.28-.25.43-.36a10.52,10.52,0,0,1,1.23-.82l.28-.16a9.68,9.68,0,0,1,1.33-.57c.12,0,.23-.09.35-.12a9.75,9.75,0,0,1,1.19-.27c.2,0,.39-.07.59-.09s.61,0,.91,0,.61,0,.91,0,.39.06.59.09a10.35,10.35,0,0,1,1.2.27l.34.12a9.68,9.68,0,0,1,1.33.57l.28.16a11.54,11.54,0,0,1,1.24.82l.43.36c.29.27.58.54.88.85s.4.42.61.62a2.34,2.34,0,0,0,1.58.69H264c.09,0,.19,0,.29-.06a2.2,2.2,0,0,0,.62-.12h0a2.53,2.53,0,0,0,.65-.4l0,0a.47.47,0,0,0,.06-.09,2.36,2.36,0,0,0,.47-.61s0-.05,0-.08a3.16,3.16,0,0,0,.31-1l-.05-.34C266.37,30.46,266.32,30.35,266.28,30.24Z"/><path class="cls-1" d="M283,14.67s0-.08,0-.12a1.91,1.91,0,0,0,0-.63,2.14,2.14,0,0,0-.08-.44,3,3,0,0,0-.35-.59c-.06-.08-.08-.18-.15-.26l0,0,0,0-.5-.54c-.21-.22-.44-.41-.65-.62-.57-.58-1.15-1.13-1.74-1.66L278.48,9c-.59-.5-1.2-1-1.81-1.43a38.07,38.07,0,0,0-6-3.7l-.05,0A35.5,35.5,0,0,0,261.23.66c-.45-.09-.92-.16-1.39-.23-.8-.12-1.61-.21-2.42-.27l-1.51-.1c-.32,0-.63,0-1-.06h-.88c-.33,0-.64.05-1,.06l-1.51.1c-.81.06-1.62.15-2.42.27-.47.07-.94.14-1.39.23a35.32,35.32,0,0,0-9.41,3.13l-.06,0a38.54,38.54,0,0,0-6,3.7c-.61.46-1.21.93-1.81,1.43l-.91.81c-.6.53-1.18,1.08-1.75,1.66-.21.21-.43.4-.65.62l-.5.54,0,0s0,0,0,0a1.83,1.83,0,0,0-.16.26,3,3,0,0,0-.35.59,2.14,2.14,0,0,0-.08.44,2.22,2.22,0,0,0,0,.63s0,.08,0,.12.07.19.09.28.06.23.11.34a2.35,2.35,0,0,0,.5.69h0a2.33,2.33,0,0,0,.7.45l.19.07a.84.84,0,0,0,.14.06,2.64,2.64,0,0,0,.62.08h0c.08,0,.16,0,.25-.05a2.71,2.71,0,0,0,1.51-.75l1-1a39.66,39.66,0,0,1,3.1-2.84,33.11,33.11,0,0,1,12.09-6.15c.46-.12.91-.22,1.37-.31l.68-.13c1-.19,2-.33,3-.43l.68,0c.77-.06,1.53-.07,2.29-.08s1.52,0,2.29.08l.68,0c1,.1,2,.24,3,.43l.68.13c.46.09.92.19,1.37.31A33.11,33.11,0,0,1,274.66,12a39.66,39.66,0,0,1,3.1,2.84l1,1a2.71,2.71,0,0,0,1.51.75c.09,0,.17.05.25.05h0a2.64,2.64,0,0,0,.62-.08.84.84,0,0,0,.14-.06l.19-.07a2.33,2.33,0,0,0,.7-.45h0a2.35,2.35,0,0,0,.5-.69,3.38,3.38,0,0,0,.11-.34C282.89,14.86,282.94,14.77,283,14.67Z"/><path class="cls-1" d="M274.15,21.13A1.74,1.74,0,0,0,274,21c-.29-.35-.62-.68-.94-1-.71-.71-1.44-1.37-2.19-2l-.05,0-.22-.16q-1-.85-2.16-1.59c-.37-.24-.75-.47-1.13-.7s-.94-.53-1.42-.77-.94-.49-1.43-.69c-.24-.11-.49-.19-.74-.28A25,25,0,0,0,260,12.56l-.72-.16c-.33-.06-.64-.17-1-.22-.91-.14-1.82-.2-2.56-.25l-.76-.06h-.07l-.41,0-.41,0H254l-.77.06c-.74.05-1.65.11-2.56.25-.34.05-.65.16-1,.22l-.72.16a25,25,0,0,0-3.75,1.15c-.24.09-.5.17-.74.28-.49.2-1,.45-1.42.69s-1,.49-1.43.77-.76.46-1.13.7q-1.11.74-2.16,1.59l-.22.16,0,0c-.75.63-1.48,1.29-2.19,2-.32.33-.64.66-.94,1a1.74,1.74,0,0,0-.11.18,2.14,2.14,0,0,0-.23,2.56,2.42,2.42,0,0,0,.44.62h0v0a2.4,2.4,0,0,0,.27.16,2.43,2.43,0,0,0,.51.32c.05,0,.11,0,.17,0a2.09,2.09,0,0,0,.66.13h.09a2.28,2.28,0,0,0,.57-.15,1.19,1.19,0,0,0,.27-.07,2.72,2.72,0,0,0,.42-.27,3.07,3.07,0,0,0,.35-.24c.09-.08.16-.17.24-.25.27-.29.54-.56.81-.83s.62-.6.94-.89.37-.33.56-.49.63-.52.94-.76l.68-.5c.24-.18.49-.34.74-.5s.69-.44,1-.64c.06,0,.12-.06.17-.1a21.28,21.28,0,0,1,5.3-2.05l.58-.13a20.74,20.74,0,0,1,2.49-.36H253c.51,0,1,0,1.5,0s1,0,1.5,0h.11a20.74,20.74,0,0,1,2.49.36l.58.13a21.28,21.28,0,0,1,5.3,2.05l.17.1c.35.2.7.42,1,.64s.49.32.73.5l.68.5c.32.24.63.5.95.76l.55.49c.32.29.63.58.94.89s.54.54.81.83l.24.25c.11.1.23.15.35.24a2.72,2.72,0,0,0,.42.27,1.34,1.34,0,0,0,.27.07,2.28,2.28,0,0,0,.57.15h.09a2.21,2.21,0,0,0,.67-.13s.11,0,.17,0a2.65,2.65,0,0,0,.5-.32,2.4,2.4,0,0,0,.27-.16v0h0a2.42,2.42,0,0,0,.44-.62,2.14,2.14,0,0,0-.23-2.56Z"/></g></g></svg>