<svg xmlns="http://www.w3.org/2000/svg" xmlns:xlink="http://www.w3.org/1999/xlink" viewBox="0 0 860 105"><defs><style>.cls-1{fill:none;}.cls-2{fill:#f6f6f3;}.cls-3{fill:#04c386;}.cls-4{fill:url(#Nueva_muestra_de_motivo_4);}</style><pattern id="Nueva_muestra_de_motivo_4" data-name="Nueva muestra de motivo 4" width="195.57" height="195.57" patternTransform="translate(2106.05 4.77) scale(0.26)" patternUnits="userSpaceOnUse" viewBox="0 0 195.57 195.57"><rect class="cls-1" width="195.57" height="195.57"/><rect class="cls-2" width="195.57" height="195.57"/></pattern></defs><g id="Capa_2" data-name="Capa 2"><g id="DISEÑO"><rect class="cls-3" width="860" height="105" rx="52.5"/><path class="cls-4" d="M48.18,37.94a7.2,7.2,0,0,1-1-6L46,32.24c-1.91.51-3.89,1-5.82,1.58a.61.61,0,0,0-.27.45c0,.57,0,1.17,0,1.74v1c0,.35.1.46.42.48h0l5.93.32Z"/><path class="cls-4" d="M55.3,40.91l-.37,0c-.32,0-.63.05-.93.05s-.6,0-.94-.05l-.39,0-.12,1.16c-.12,1.15-.24,2.29-.35,3.43a.44.44,0,0,0,.09.37.67.67,0,0,0,.45.17c.82,0,1.67,0,2.51,0a.63.63,0,0,0,.44-.16.59.59,0,0,0,.11-.44c0-.45-.09-1-.16-1.63s-.16-1.39-.25-2.08Z"/><path class="cls-4" d="M34.62,35.3c-.64,0-1.25,0-1.63,0a.73.73,0,0,0-.43.39.75.75,0,0,0,.4.5c.65.06,3.29.05,4.22,0h.65v-.94H34.62Z"/><path class="cls-4" d="M56.5,72.9h-5v2.89c0,.14,0,.27,0,.4A2.55,2.55,0,0,0,54,78.48h0a2.47,2.47,0,0,0,2.48-2.24,23.43,23.43,0,0,0,0-2.38C56.51,73.54,56.5,73.22,56.5,72.9Z"/><path class="cls-4" d="M54,39H54a5.09,5.09,0,0,0,5-5,5.09,5.09,0,0,0-5-5.05h0A5.08,5.08,0,0,0,48.94,34a5.11,5.11,0,0,0,5,5Z"/><path class="cls-4" d="M64.87,44.19a5.82,5.82,0,0,0-1.66-4.07,1.05,1.05,0,0,0-.68-.26c-1,0-2,.09-3,.14l-1.91.1a.36.36,0,0,0-.28.08c-.05.06-.06.16,0,.35.19,1.5.37,3.06.55,4.76a2.52,2.52,0,0,1-2.41,2.76q-1.46,0-2.91,0a2.52,2.52,0,0,1-2.41-2.76c.16-1.52.34-3.15.55-4.76a.47.47,0,0,0,0-.34c0-.06-.15-.09-.34-.1l-1,0a23.57,23.57,0,0,1-2.9-.21c-1.22-.19-2,.28-2.68,1.6a3.54,3.54,0,0,0-.39,1.08c-.22,1.55-.39,3.12-.51,4.3s-.21,2.11-.31,3.16c-.16,1.72-.33,3.5-.54,5.24a12.57,12.57,0,0,0,.59,6.15,10.84,10.84,0,0,0,2,3.34,9.48,9.48,0,0,1,9.36-9h.06a9.44,9.44,0,0,1,9.29,9A11.25,11.25,0,0,0,66,58.84a17,17,0,0,0-.13-4.45c-.07-.55-.14-1.12-.18-1.67-.13-1.55-.29-3.12-.44-4.65C65.11,46.8,65,45.49,64.87,44.19Z"/><path class="cls-4" d="M75.07,35.34c-.66-.05-3.32,0-4.27,0h-.63v.94h.65c.94,0,3.58,0,4.22,0a.65.65,0,0,0,.39-.43C75.44,35.65,75.18,35.34,75.07,35.34Z"/><path class="cls-4" d="M54,12.5h0a40,40,0,0,0-40,40h0a40,40,0,0,0,40,40h0a40,40,0,0,0,40-40h0A40,40,0,0,0,54,12.5ZM74.82,38.33H71.08a1.85,1.85,0,0,0-1.77.63,2.72,2.72,0,0,1-1.72.6,9.62,9.62,0,0,1-1.51,0h-.43c.11.3.22.59.34.88a11.14,11.14,0,0,1,.7,2.14,35.37,35.37,0,0,1,.42,3.53c0,.43.07.86.12,1.29.1,1.09.21,2.18.31,3.27.15,1.65.31,3.34.49,5a13,13,0,0,1-4.4,11.57,2,2,0,0,0-.69,1.48,4.09,4.09,0,0,1-3.08,3.95,5.71,5.71,0,0,1-1,.15l-.38,0v3a4.54,4.54,0,0,1-9,.92,6.45,6.45,0,0,1-.07-1.24v-.42c0-.53,0-1.07,0-1.61V72.9l-.36,0a5.88,5.88,0,0,1-1-.14,4.08,4.08,0,0,1-3.09-3.87,2.2,2.2,0,0,0-.78-1.64A13,13,0,0,1,40,55.67c.21-2,.41-4.11.6-6.11.1-1.14.21-2.28.32-3.42l.09-1a19.93,19.93,0,0,1,.33-2.66,11.93,11.93,0,0,1,.7-2.06c.1-.25.21-.51.31-.77l-.42,0c-.44,0-.92,0-1.39-.06a2.7,2.7,0,0,1-2.34-1.1.64.64,0,0,0-.43-.15H33.12a2.54,2.54,0,0,1-2.63-2.55,2.5,2.5,0,0,1,2.58-2.53c.71,0,3.81,0,4.5,0,.26,0,.4-.11.61-.33a5,5,0,0,1,1.46-1.08c.38-.18,3.35-1,6-1.67l2.9-.78a.75.75,0,0,0,.24-.21l.07-.08A7.11,7.11,0,0,1,54,26.84h0a7.07,7.07,0,0,1,5.17,2.26l0,0a.88.88,0,0,0,.35.28c1.83.52,8.12,2.25,8.66,2.38A2.48,2.48,0,0,1,69.91,33a.62.62,0,0,0,.44.22c.41,0,2.56,0,3.25,0h1.24a2.54,2.54,0,1,1,0,5.08Z"/><path class="cls-4" d="M67.5,33.69l-4.26-1.15L61.14,32a1.34,1.34,0,0,0-.31,0h0a7.26,7.26,0,0,1-1,6l1.55-.09,6.39-.35c.28,0,.38-.12.37-.46v-.63c0-.62,0-1.26,0-1.89S68,33.82,67.5,33.69Z"/><path class="cls-4" d="M54.23,57.73h-.31a7.08,7.08,0,0,0-7.12,6.63A21.44,21.44,0,0,0,47,68c0,.32.08.64.11,1a1.91,1.91,0,0,0,2.1,1.83c1.18,0,2.37,0,3.55,0h2.64c1.13,0,2.26,0,3.4,0a1.93,1.93,0,0,0,2-1.74c.16-1.17.3-2.32.39-3.49a7.19,7.19,0,0,0-7-7.84Z"/></g></g></svg>