<svg xmlns="http://www.w3.org/2000/svg" xmlns:xlink="http://www.w3.org/1999/xlink" viewBox="0 0 80 80"><defs><style>.cls-1{fill:none;}.cls-2{fill:#f6f6f3;}.cls-3{fill:url(#Nueva_muestra_de_motivo_4);}</style><pattern id="Nueva_muestra_de_motivo_4" data-name="Nueva muestra de motivo 4" width="195.57" height="195.57" patternTransform="translate(1833.33 -1.8) scale(0.26)" patternUnits="userSpaceOnUse" viewBox="0 0 195.57 195.57"><rect class="cls-1" width="195.57" height="195.57"/><rect class="cls-2" width="195.57" height="195.57"/></pattern></defs><g id="Capa_2" data-name="Capa 2"><g id="DISEÑO"><path class="cls-3" d="M21.92,41.45a18.19,18.19,0,0,0,12,15.63C31.56,53.58,30,48,29.84,41.45Z"/><path class="cls-3" d="M32.75,41.45c.32,9.91,4,16.69,7.25,16.69s6.93-6.78,7.25-16.69Z"/><path class="cls-3" d="M47.25,38.55c-.32-9.91-4-16.69-7.25-16.69s-6.93,6.78-7.25,16.69Z"/><path class="cls-3" d="M33.9,22.92a18.19,18.19,0,0,0-12,15.63h7.92C30,32,31.56,26.42,33.9,22.92Z"/><path class="cls-3" d="M46.1,57.08a18.19,18.19,0,0,0,12-15.63H50.16C50,48,48.44,53.58,46.1,57.08Z"/><path class="cls-3" d="M40,0A40,40,0,1,0,80,40,40,40,0,0,0,40,0Zm0,61.05a21,21,0,1,1,21-21A21.08,21.08,0,0,1,40,61.05Z"/><path class="cls-3" d="M46.1,22.92C48.44,26.42,50,32,50.16,38.55h7.92A18.19,18.19,0,0,0,46.1,22.92Z"/></g></g></svg>