<svg xmlns="http://www.w3.org/2000/svg" viewBox="0 0 263.83 79.64"><defs><style>.cls-1{fill:#04c386;}</style></defs><g id="Capa_2" data-name="Capa 2"><g id="DISEÑO"><path class="cls-1" d="M63.34,69.42c0-19.69,19.82-40.24,19.82-54,0-5.59-3.4-8.75-7.9-8.75C64.32,6.69,49.73,23.59,38.05,37,43.65,25.41,48.39,15.2,48.39,8.63c0-4.86-2.8-8.63-7.66-8.63C24.68,0,0,17.63,0,28.69c0,2.07.85,3.53,3,3.53S6.2,30.27,6.2,27.11c0-6.56,19.58-21.52,32.34-21.52,2.19,0,3.77,1,3.77,3.65,0,4.14-3.65,14.1-9,25.9C29.06,44.26,24,55,20.67,60.43c-1.22,2.06-1.83,3.52-1.83,4.62a2.8,2.8,0,0,0,3,2.67c1.83,0,2.31-1.82,3.77-4.5,1.22-2.55,5.84-12.28,12.28-20.3C51.19,26.75,65.53,12,74,12a3.46,3.46,0,0,1,3.41,3.28c0,13.74-19.21,32.1-19.21,53.37,0,7.91,3.28,11,6.32,11a2.75,2.75,0,0,0,3-3C67.6,74.29,63.34,73.8,63.34,69.42Z"/><path class="cls-1" d="M156.48,36.6c-4.5,0-11.73,4.13-13.92,9.2-.37.4-.75.86-1.16,1.37-4.37,5.84-13,15.57-23.71,15.57a3.52,3.52,0,0,1-3.64-3.65c0-1.22.12-2,2.31-2.43,7.53-1.7,18.11-8.76,18.11-15,0-2.31-2.67-4.25-5-4.25-5.22,0-11.8,3.28-16.73,11.2-4.56,5.64-11.23,12.51-13.91,12.51-1,0-1.58-1-1.58-2.8a27.91,27.91,0,0,1,1.58-7.54,27.15,27.15,0,0,1,3.89-7.54,7.57,7.57,0,0,0,1.46-2.79c0-1.1-.49-2.31-2.56-2.31-.73,0-1.94,1-3,2.43-1.7,2.19-4,6.81-5.83,9.85C89.12,56.05,81.1,62,78.91,62c-1.22,0-1.46-.73-1.46-1.71C77.45,56.78,85,48.15,85,41c0-2.06-.25-3.76-2.56-3.76s-3,2.06-3,4.86C79.39,49,72,55.56,72,61.64a4.76,4.76,0,0,0,5.1,5c5.11,0,11.68-6.08,16-10.46,0,.85-.24,1.95-.24,3.28,0,2.92.85,6.33,5.11,6.33,2.91,0,6.68-2.82,10.45-6.49v0c0,3.89,3.53,7.78,7.3,7.78,12,0,21.28-8.62,27.28-15.4,2.34,2.65,7.49,3.35,7.49,7a4.28,4.28,0,0,1-4.26,4.5c-2.3,0-3.4-1.21-3.4-3.28a2,2,0,0,0-2.19-1.82,2.86,2.86,0,0,0-2.67,3c0,2.91,3.28,6,7.54,6,7.05,0,10.57-4.37,10.57-8.39,0-7.78-8.75-7.29-8.75-10.69s5.71-6.81,7.42-6.81a1.85,1.85,0,0,1,1.82,1.58c0,.48-1.82.85-1.82,2.91,0,1.34,1.21,2.07,2.55,2.07,2.43,0,4-4.25,4-6.81S158.54,36.6,156.48,36.6ZM128,42.19c1,0,1.46.24,1.46,1.22,0,2.55-9.61,9.36-13.86,9.48C117.45,50,124.26,42.19,128,42.19Z"/><path class="cls-1" d="M177.76,32.46c3.4-1.21,6.68-2.19,9.36-2.19,1.82,0,3.4.25,3.4,1.22,0,.61-.24,1.09-.24,1.82s.24,1.1,1.34,1.1c1.58,0,3.76-2.55,3.76-4.74,0-2.44-2.18-3.89-6.44-3.89a28.21,28.21,0,0,0-7.78,1.33c4.13-6.93,4.74-8.63,6.81-10.33,2.31-1.82,2.55-2.8,2.55-4.26s-1-2.19-2.55-2.19-2.92,1.22-5,4.14c-2.91,4-5.22,8.39-8.75,14.71a21.67,21.67,0,0,1-3.77.49c-1.46,0-1.82-.85-3.65-.85a3,3,0,0,0-3.16,3c0,1.7,1.46,2.55,5.11,2.55a18.14,18.14,0,0,0,2.55-.12c-5.83,11.55-11.67,24.8-11.67,31.85,0,3,1.22,4.86,3,4.86a2.53,2.53,0,0,0,2.55-2.43c0-1.09-.73-1.7-.73-3.28C164.5,59,171.19,44.26,177.76,32.46Z"/><path class="cls-1" d="M202.92,40.73a4.11,4.11,0,0,0-4.38-4.26c-3,0-6.56,2.68-11.06,7.42-.61.61-1,1-1.46,1-.24,0-.24-.12-.24-.36,0-1.09,1.7-4.26,1.7-5.71A2.17,2.17,0,0,0,185.17,37c-1.7,0-2.55,1.46-3.4,4.38A106.48,106.48,0,0,1,177.39,53c-1.82,4.5-3.77,9.73-3.77,11.06a3.35,3.35,0,0,0,2.8,2.8c1.09,0,3.28-7.05,6.08-11.43,3.89-6.08,11.91-13.86,13.61-13.86.73,0,1.1.37,1.1.85s-.85,2.07-.85,3.28A2.39,2.39,0,0,0,198.67,48C201.71,48,202.92,44.5,202.92,40.73Z"/><path class="cls-1" d="M259,36.6c-4.53,0-11.82,4.18-14,9.3-.32.38-.65.8-1,1.27-4.5,5.84-11.8,13.62-16.17,13.62-1.1,0-1.59-1.34-1.59-2.92a15.5,15.5,0,0,1,2.19-6.93c2.56-4.86,5.72-9,5.72-10.57S233,37.81,231,37.81s-2.68,2.56-3.65,2.56c-.49,0-2.68-2.8-5-2.8-10,.12-23.22,12.16-23.22,24.56,0,2.92,2.43,4.74,3.65,4.74,2.8,0,6.57-2.43,12.28-7.42,2.67-2.43,4.62-4.74,5.35-4.74.24,0,.24.37.24,1.1,0,1.09-.24,2.79-.24,4.13a5.41,5.41,0,0,0,5.71,5.71c5.42,0,13.54-7.43,19.37-14,2.34,2.66,7.5,3.35,7.5,7a4.28,4.28,0,0,1-4.25,4.5c-2.31,0-3.41-1.21-3.41-3.28a2,2,0,0,0-2.19-1.82,2.87,2.87,0,0,0-2.67,3c0,2.91,3.28,6,7.54,6,7.05,0,10.58-4.37,10.58-8.39,0-7.78-8.76-7.29-8.76-10.69s5.72-6.81,7.42-6.81a1.85,1.85,0,0,1,1.82,1.58c0,.48-1.82.85-1.82,2.91,0,1.34,1.21,2.07,2.55,2.07,2.43,0,4-4.25,4-6.81S261,36.6,259,36.6ZM206.2,61a1.41,1.41,0,0,1-1.46-1.46c0-6,10.7-17.39,15.93-17.39A1.31,1.31,0,0,1,222,43.65c0,1.34,2.07,1,2.07,1.58C224.08,47.3,208.27,61,206.2,61Z"/></g></g></svg>